<?xml version="1.0" standalone="no"?>
<!DOCTYPE svg PUBLIC "-//W3C//DTD SVG 1.1//EN" "http://www.w3.org/Graphics/SVG/1.1/DTD/svg11.dtd" >
<svg xmlns="http://www.w3.org/2000/svg" xmlns:xlink="http://www.w3.org/1999/xlink" version="1.1">
<metadata>
Created by FontForge 20170731 at Thu Nov 13 13:00:05 2014
 By Aleksey,,,
copyright missing
</metadata>
<defs>
<font id="PantonIcons-BFillRegular" horiz-adv-x="0" >
  <font-face 
    font-family="Panton Icons B Fill"
    font-weight="400"
    font-stretch="normal"
    units-per-em="1000"
    panose-1="0 0 5 0 0 0 0 0 0 0"
    ascent="750"
    descent="-250"
    x-height="577"
    cap-height="655.5"
    bbox="93 -373 1214 793.765"
    underline-thickness="50"
    underline-position="-200"
    unicode-range="U+0020-007A"
  />
<missing-glyph horiz-adv-x="500" 
d="M410 -250h-317v1000h317v-1000zM168 683v-33h65v-37h-66v-33h166v33h-66v37h66v33h-165zM167 554v-104h166v34h-66v70h-100zM233 484h-33v36h33v-36zM167 423v-33h66v-37h-66v-33h100v70h66v33h-166zM300 363v-66h-133v-34h166v100h-33zM233 241v-56h34v23h33v-47h-100
v80h-33v-113h166v113h-100zM167 68v-113h166v113h-166zM300 -12h-100v47h100v-47zM167 -68v-33h70l-70 -47v-33h166v33h-102l70 47h32v33h-166z" />
    <glyph glyph-name=".notdef" horiz-adv-x="500" 
d="M410 -250h-317v1000h317v-1000zM168 683v-33h65v-37h-66v-33h166v33h-66v37h66v33h-165zM167 554v-104h166v34h-66v70h-100zM233 484h-33v36h33v-36zM167 423v-33h66v-37h-66v-33h100v70h66v33h-166zM300 363v-66h-133v-34h166v100h-33zM233 241v-56h34v23h33v-47h-100
v80h-33v-113h166v113h-100zM167 68v-113h166v113h-166zM300 -12h-100v47h100v-47zM167 -68v-33h70l-70 -47v-33h166v33h-102l70 47h32v33h-166z" />
    <glyph glyph-name=".null" 
 />
    <glyph glyph-name="nonmarkingreturn" horiz-adv-x="333" 
 />
    <glyph glyph-name="space" unicode=" " 
 />
    <glyph glyph-name="A" unicode="A" horiz-adv-x="898" 
d="M590 335q-63 -55 -63 -84.5t63 -85.5q33 -29 51.5 -49t44.5 -56.5t38.5 -82.5t13.5 -103h47q13 0 13 -13v-22q0 -13 -13 -13h-672q-13 0 -13 13v22q0 13 13 13h50q1 57 11.5 103.5t24 75t38 56.5t39 39.5t41.5 31.5q59 41 59 70.5t-59 70.5q-27 20 -41.5 31.5t-39 39.5
t-38 56.5t-24 75t-11.5 103.5h-50q-13 0 -13 13v21q0 13 13 13h672q13 0 13 -13v-21q0 -13 -13 -13h-47q-1 -57 -13.5 -103t-38.5 -83t-44.5 -56.5t-51.5 -49.5z" />
    <glyph glyph-name="B" unicode="B" horiz-adv-x="1225" 
d="M959 674q68 0 117 -49t49 -117v-372q0 -69 -49 -117.5t-117 -48.5h-279q22 -26 41 -51l79 -97q9 -10 -2 -18l-17 -14q-10 -9 -18 2q-27 32 -79 98q-9 11 -25 32t-23 28v-151q0 -13 -13 -13h-21q-13 0 -13 13v151q-7 -7 -23 -28t-25 -32q-52 -66 -79 -98q-8 -11 -18 -2
l-17 14q-10 9 -1 18q13 17 39 48.5t39 48.5q38 47 41 51h-278q-69 0 -118 48.5t-49 117.5v372q0 68 49 117t118 49h692z" />
    <glyph glyph-name="C" unicode="C" horiz-adv-x="1225" 
d="M378 -211q-8 -11 -19 -2l-17 13q-9 8 -2 18l117 150h-190q-69 0 -118 48.5t-49 117.5v372q0 68 49 117t118 49h692q68 0 117 -49t49 -117v-372q0 -69 -49 -117.5t-117 -48.5h-191q60 -75 117 -150q8 -11 -2 -18l-17 -13q-9 -9 -18 2l-140 179h-191zM348 186
q-21 4 -37.5 -10t-16.5 -36q0 -19 13.5 -32.5t32.5 -13.5q20 0 33.5 13.5t13.5 32.5q0 9 -3 15l122 144q2 0 4 -0.5t4 -0.5q12 0 23 7l114 -64q0 -19 13.5 -32t32.5 -13t33 13.5t14 32.5q0 11 -4 19l141 192q20 -2 35.5 12t15.5 35q0 19 -14 32.5t-33 13.5t-32.5 -13.5
t-13.5 -32.5q0 -11 4 -19l-141 -192h-5q-13 0 -23 -6l-113 63q-1 19 -14.5 32t-32.5 13q-20 0 -33.5 -13.5t-13.5 -32.5q0 -9 3 -15z" />
    <glyph glyph-name="D" unicode="D" horiz-adv-x="959" 
d="M836 145q23 -14 23 -41q0 -19 -14 -32.5t-33 -13.5t-33 13.5t-14 32.5q0 28 23 41v161l-312 -180l-359 206q-17 10 -17 27t17 27l321 185q38 22 76 0l320 -185q17 -10 17.5 -26t-15.5 -27v-188zM454 84q22 -13 43 0l203 116v-147q0 -39 -25 -69.5t-64.5 -46t-87 -23
t-95.5 0t-87.5 23.5t-64.5 46.5t-25 69.5v146z" />
    <glyph glyph-name="E" unicode="E" horiz-adv-x="947" 
d="M334 356l-187 187v-134q0 -14 -13 -14h-21q-13 0 -13 14v171q0 18 12.5 31t31.5 13h171q13 0 13 -13v-21q0 -13 -13 -13h-134l187 -187q10 -10 0 -19l-15 -15q-9 -10 -19 0zM579 390l187 187h-135q-13 0 -13 13v21q0 13 13 13h172q18 0 31 -13t13 -31v-171q0 -14 -13 -14
h-21q-14 0 -14 14v134l-187 -187q-8 -10 -18 0l-15 15q-9 9 0 19zM368 111q-94 -93 -187 -187h134q13 0 13 -13v-21q0 -13 -13 -13h-171q-19 0 -31.5 13t-12.5 31v172q0 13 13 13h21q13 0 13 -13v-135l187 187q10 9 19 0l15 -15q10 -10 0 -19zM612 145l59 -59l69 -69l59 -59
v135q0 13 14 13h21q13 0 13 -13v-172q0 -18 -13 -31t-31 -13h-172q-13 0 -13 13v21q0 13 13 13h135l-187 187q-9 9 0 19l15 15q10 10 18 0z" />
    <glyph glyph-name="F" unicode="F" horiz-adv-x="926" 
d="M139 609l59 -59l69 -69l59 -59v134q0 13 13 13h22q13 0 13 -13v-172q0 -18 -13 -31t-31 -13h-172q-13 0 -13 13v22q0 13 13 13h134l-187 187q-9 9 0 18l16 16q8 10 18 0zM820 576q-31 -31 -93.5 -94t-93.5 -94h135q13 0 13 -13v-21q0 -13 -13 -13h-172q-18 0 -31 13
t-13 31v172q0 13 13 13h21q13 0 13 -13v-135l187 187q10 9 19 0l15 -15q10 -10 0 -18zM787 -106l-187 187v-134q0 -13 -13 -13h-22q-13 0 -13 13v172q0 18 13 31t31 13h172q13 0 13 -13v-22q0 -13 -13 -13h-134l187 -187q9 -9 0 -18l-16 -16q-8 -8 -18 0zM106 -72l59 59
l69 69l59 59h-135q-13 0 -13 13v21q0 13 13 13h172q18 0 31 -13t13 -31v-172q0 -13 -13 -13h-21q-13 0 -13 13v135l-187 -187q-10 -10 -19 0l-15 15q-10 9 0 19z" />
    <glyph glyph-name="G" unicode="G" horiz-adv-x="981" 
d="M753 483q53 0 90.5 -37.5t37.5 -90.5v-91h-367v172h-47v-172h-367v91q0 53 37.5 90.5t90.5 37.5h57l-9 8q-29 29 -35.5 68t7.5 72.5t46 56.5t74 23q41 0 73 -25.5t49 -65.5q17 41 50 66t73 25q42 0 74 -23t45.5 -56.5t7 -72.5t-35.5 -68l-8 -8h57zM310 524
q39 -38 157 -40q0 36 -2 58.5t-11.5 50.5t-27.5 47q-24 24 -58 24q-35 0 -58.5 -25t-23 -56t23.5 -59zM671 524q38 38 17 89t-75 51q-34 0 -58 -24q-26 -27 -33.5 -64t-7.5 -92q118 2 157 40zM467 -174h-177q-53 0 -90.5 37.5t-37.5 90.5v261h305v-389zM818 215v-261
q0 -53 -37 -90.5t-90 -37.5h-177v389h304z" />
    <glyph glyph-name="H" unicode="H" horiz-adv-x="1030" 
d="M877 669q20 4 36.5 -9t16.5 -34v-561q0 -55 -50 -92q-46 -33 -109.5 -33t-109.5 33q-49 36 -49 89t49 89q46 34 110.5 33.5t110.5 -34.5v471l-463 -96v-566q0 -57 -50 -92q-46 -34 -109.5 -34t-109.5 34q-50 36 -50 89t50 89q47 34 111 33.5t110 -35.5v485q0 15 10 27
t26 16z" />
    <glyph glyph-name="I" unicode="I" horiz-adv-x="808" 
d="M419 608v-647q0 -54 -50 -90q-46 -34 -109.5 -34t-109.5 34q-50 36 -50 89t50 89q46 33 109.5 33t109.5 -33l2 -2v568q0 31 27.5 40.5t50.5 -13.5l254 -260q9 -10 0 -19l-15 -15q-10 -10 -18 0zM341 10q-33 25 -81.5 25t-81.5 -25q-30 -22 -30 -50.5t30 -50.5
q33 -24 81.5 -24t81.5 24q30 22 30 50.5t-30 50.5z" />
    <glyph glyph-name="J" unicode="J" horiz-adv-x="1028" 
d="M889 350q9 -10 19 0l15 15q9 9 0 19l-254 260q-23 23 -50.5 13.5t-27.5 -40.5v-568l-2 2q-46 33 -109.5 33t-110.5 -33q-49 -36 -49 -89t49 -89q47 -34 110.5 -34t109.5 34q49 35 49 90v647zM113 520q-13 0 -13 13v21q0 13 13 13h303q13 0 13 -13v-21q0 -13 -13 -13h-303
zM113 363q-13 0 -13 13v21q0 13 13 13h303q13 0 13 -13v-21q0 -13 -13 -13h-303zM113 206q-13 0 -13 13v22q0 13 13 13h303q13 0 13 -13v-22q0 -13 -13 -13h-303zM561 12q30 -22 30 -50.5t-30 -50.5q-34 -24 -82 -24t-82 24q-29 22 -29 50.5t29 50.5q34 25 82 25t82 -25z
" />
    <glyph glyph-name="K" unicode="K" horiz-adv-x="1016" 
d="M903 420q17 -17 11 -41t-29 -32q-44 -14 -93 -8l-138 -138q49 -111 14 -215q-8 -23 -32 -28.5t-41 11.5l-169 169l-288 -289q-9 -9 -18 0l-15 15q-9 10 0 19l288 289l-170 170q-17 17 -11.5 41t28.5 32q103 35 214 -14l139 138q-8 47 7 93q8 23 32 29t41 -12z" />
    <glyph glyph-name="L" unicode="L" horiz-adv-x="1192" 
d="M943 642q61 0 105 -44t44 -105v-489q0 -62 -44 -105.5t-105 -43.5h-694q-61 0 -105 43.5t-44 105.5v489q0 61 44 105t105 44h694zM1045 493q0 42 -30 72t-72 30h-694q-42 0 -71.5 -30t-29.5 -72v-322l216 219q13 13 30.5 13t30.5 -12l251 -244l126 128q12 13 29.5 13
t30.5 -12l183 -167v384zM724 528q25 0 43 -18t18 -43t-18 -43t-43 -18q-26 0 -43.5 18t-17.5 43t18 43t43 18z" />
    <glyph glyph-name="M" unicode="M" horiz-adv-x="1010" 
d="M386 -128v675l238 87v-674zM859 566q51 -20 51 -74v-562q0 -23 -16.5 -34t-38.5 -4l-183 68v674zM151 -59q-51 19 -51 74v561q0 23 16.5 34.5t37.5 3.5l184 -67v-675z" />
    <glyph glyph-name="N" unicode="N" horiz-adv-x="966" 
d="M116 482q-16 -8 -16 -24.5t16 -24.5l331 -159q36 -17 72 0l331 159q16 7 16 24t-16 25l-339 163q-28 13 -56 -1zM850 272q16 -8 16 -25t-16 -24l-331 -159q-36 -17 -72 0l-331 159q-16 7 -16 24t16 25l113 54l198 -94q56 -27 112 0l197 95zM850 62q16 -7 16 -24.5
t-16 -24.5l-331 -159q-36 -17 -72 0l-331 159q-16 8 -16 25t16 24l113 54l198 -94q56 -27 112 0l197 95z" />
    <glyph glyph-name="O" unicode="O" horiz-adv-x="969" 
d="M302 382q17 102 58 169.5t101 79.5v-267q-79 3 -159 18zM509 631q60 -12 100.5 -80t57.5 -169q-78 -15 -158 -18v267zM145 429q65 126 197 177q-62 -78 -86 -213q-56 15 -111 36zM714 393q-24 135 -86 213q132 -51 197 -177q-55 -21 -111 -36zM125 113q-51 136 0 273
q67 -26 124 -40q-11 -97 0 -194q-62 -15 -124 -39zM721 152q11 97 0 194q55 13 123 40q51 -137 1 -273q-64 24 -124 39zM296 163q-9 86 0 172q79 -16 165 -19v-134q-86 -3 -165 -19zM509 316q86 3 165 19q9 -86 0 -172q-79 16 -165 19v134zM461 -133q-61 12 -101.5 80
t-57.5 169q80 16 159 18v-267zM668 116q-17 -102 -58 -169.5t-101 -79.5v267q71 -1 159 -18zM256 105q24 -136 85 -213q-131 53 -196 177q51 20 111 36zM825 69q-65 -124 -197 -177q62 76 86 213q56 -15 111 -36z" />
    <glyph glyph-name="P" unicode="P" horiz-adv-x="974" 
d="M756 649q49 0 83.5 -34.5t34.5 -82.5v-554q0 -49 -34.5 -83.5t-83.5 -34.5h-538q-49 0 -83.5 34.5t-34.5 83.5v554q0 48 34.5 82.5t83.5 34.5h538zM231 563q-21 0 -36 -15t-15 -37t15 -37t36 -15q22 0 37 15t15 37t-15 37t-37 15zM726 563q-22 0 -37 -15t-15 -37t15 -37
t37 -15t37 15t15 37t-15 37t-37 15zM231 391q-21 0 -36 -15.5t-15 -36.5q0 -22 15 -37t36 -15q22 0 37 15t15 37q0 21 -15 36.5t-37 15.5zM726 391q-22 0 -37 -15.5t-15 -36.5q0 -22 15 -37t37 -15t37 15t15 37q0 21 -15 36.5t-37 15.5zM231 223q-21 0 -36 -15t-15 -37
q0 -21 15 -36.5t36 -15.5q22 0 37 15.5t15 36.5q0 22 -15 37t-37 15zM726 223q-22 0 -37 -15t-15 -37q0 -21 15 -36.5t37 -15.5t37 15.5t15 36.5q0 22 -15 37t-37 15zM231 54q-21 0 -36 -15t-15 -37t15 -37t36 -15q22 0 37 15t15 37t-15 37t-37 15zM726 54q-22 0 -37 -15
t-15 -37t15 -37t37 -15t37 15t15 37t-15 37t-37 15z" />
    <glyph glyph-name="Q" unicode="Q" horiz-adv-x="930" 
d="M782 5q0 116 -44 222.5t-126 188.5t-188.5 126t-222.5 44q-13 0 -13 13v22q0 13 13 13q128 0 243 -48.5t202 -135.5t135.5 -202t48.5 -243q0 -13 -13 -13h-22q-13 0 -13 13zM188 384q0 13 13 13q162 0 277 -115t115 -277q0 -13 -13 -13h-22q-13 0 -13 13q0 144 -101 243
q-99 101 -243 101q-13 0 -13 13v22zM130 -66q-30 29 -30 71t30 71q29 29 71 29t71 -29t29 -71t-29 -71q-29 -30 -71 -30t-71 30z" />
    <glyph glyph-name="R" unicode="R" horiz-adv-x="1268" 
d="M1129 368q-102 99 -230 149.5t-265 50.5q-136 0 -265 -50.5t-230 -149.5q-9 -9 -18 0l-16 16q-9 9 0 18q109 105 246 159.5t283 54.5t283 -54.5t246 -159.5q10 -10 0 -18l-16 -16q-8 -10 -18 0zM966 187q-10 -9 -19 0q-131 124 -313 124t-313 -124q-9 -9 -19 0l-15 15
q-9 10 0 19q147 138 347 138q202 0 347 -138q9 -9 0 -19zM511 -6q53 44 123 44t123 -44q9 -6 2 -15l-117 -117q-8 -8 -15 0l-117 116q-8 8 1 16z" />
    <glyph glyph-name="S" unicode="S" horiz-adv-x="662" 
d="M562 111q-2 -75 -36.5 -130.5t-85 -80.5t-109.5 -25t-109.5 25t-85 80.5t-36.5 130.5q-2 86 54.5 211.5t133.5 243.5q16 25 43 25t44 -26q77 -119 133 -243.5t54 -210.5z" />
    <glyph glyph-name="T" unicode="T" horiz-adv-x="1072" 
d="M100 267q0 104 37.5 188.5t99 136.5t139.5 80t160 28t160 -28t139.5 -80t99 -136.5t37.5 -188.5v-207q0 -96 -60 -169t-168 -84q-20 -2 -34 11.5t-14 32.5v418q0 20 14.5 33t33.5 11q117 -11 181 -100v54q0 93 -33.5 168t-88.5 121.5t-125 71.5t-143 25t-143 -25
t-125 -71.5t-88.5 -121.5t-33.5 -168v-57q63 92 183 103q19 2 33.5 -11.5t14.5 -32.5v-418q0 -19 -14.5 -32.5t-33.5 -11.5q-108 11 -168 84t-60 169v207z" />
    <glyph glyph-name="U" unicode="U" horiz-adv-x="1031" 
d="M100 294q0 99 35.5 179t94 129t133.5 76t152.5 27t152.5 -27t133.5 -76t94 -129t35.5 -179v-346q0 -78 -36.5 -141t-96 -101.5t-130.5 -58.5t-145 -20q-41 0 -70.5 29.5t-29.5 71.5t29.5 71.5t70.5 29.5q42 0 71.5 -29.5t29.5 -71.5q0 -26 -12 -49q115 23 193 92t78 177
q-58 -81 -167 -90q-20 -2 -34 11.5t-14 32.5v393q0 19 14 32.5t34 11.5q109 -9 167 -90v45q0 88 -31.5 158.5t-83.5 114t-118 67t-135 23.5t-135 -23.5t-118 -67t-83.5 -114t-31.5 -158.5v-45q60 81 168 90q19 2 33 -11.5t14 -32.5v-393q0 -19 -14 -32.5t-33 -11.5
q-97 7 -156 75.5t-59 166.5v194z" />
    <glyph glyph-name="V" unicode="V" horiz-adv-x="1067" 
d="M953 434q13 -12 13 -30t-13 -31l-165 -149q-15 -12 -29 -12h-229v-391q0 -13 -13 -13h-21q-14 0 -14 13v391h-229q-63 0 -108 45t-45 108v83q0 63 45 108t108 45h229v86q0 13 14 13h21q13 0 13 -13v-86h229q17 0 29 -12z" />
    <glyph glyph-name="W" unicode="W" horiz-adv-x="1160" 
d="M1049 539q11 -10 11 -24.5t-11 -24.5l-99 -98q-11 -11 -25 -11h-577q-41 0 -71 30t-30 71v65q0 42 30 71.5t71 29.5h257v60q0 13 13 13h22q13 0 13 -13v-60h272q15 0 25 -10zM836 326q43 0 73 -30t30 -73v-68q0 -43 -30 -73t-73 -30h-183v-226q0 -13 -13 -13h-22
q-13 0 -13 13v226h-367q-15 0 -25 10l-102 102q-11 10 -11 25t11 25l102 102q10 10 25 10h598z" />
    <glyph glyph-name="X" unicode="X" horiz-adv-x="1082" 
d="M488 592l-132 -149l-114 149h246zM839 592l-113 -149l-132 149h245zM407 429l134 151l134 -151h-268zM100 429l96 145l110 -145h-206zM982 429h-207l111 145zM105 381h232l140 -428h-26zM387 381h308l-129 -428h-49zM745 381h231l-345 -428h-26z" />
    <glyph glyph-name="Y" unicode="Y" horiz-adv-x="987" 
d="M493 641q163 0 278.5 -115t115.5 -278q0 -164 -115.5 -279t-278.5 -115t-278 115.5t-115 278.5t115 278t278 115zM280 76q-10 -20 5.5 -35.5t35.5 -6.5l250 122q9 5 14 14l122 250q9 20 -6.5 35.5t-35.5 5.5l-249 -121q-10 -4 -15 -15zM493 300q-21 0 -36.5 -15.5
t-15.5 -36.5q0 -22 15.5 -37t36.5 -15q22 0 37 15t15 37q0 21 -15 36.5t-37 15.5z" />
    <glyph glyph-name="Z" unicode="Z" horiz-adv-x="939" 
d="M692 619q61 0 104 -43t43 -103v-446q0 -60 -43 -103t-104 -43h-446q-60 0 -103 43t-43 103v446q0 60 43 103t103 43h446zM288 319q0 -13 14 -13h21q13 0 13 13v69h69q13 0 13 13v22q0 13 -13 13h-69v68q0 13 -13 13h-21q-14 0 -14 -13v-68h-68q-13 0 -13 -13v-22
q0 -13 13 -13h68v-69zM719 388q13 0 13 13v22q0 13 -13 13h-164q-13 0 -13 -13v-22q0 -13 13 -13h164zM401 145q8 9 0 19l-16 15q-9 9 -18 0l-55 -55l-54 55q-10 9 -19 0l-15 -15q-10 -10 0 -19l55 -54l-55 -55q-10 -10 0 -18l15 -16q9 -10 19 0l54 55l55 -55q9 -9 18 0
l16 16q8 8 0 18l-55 55zM719 119q13 0 13 13v22q0 13 -13 13h-164q-13 0 -13 -13v-22q0 -13 13 -13h164zM719 20q13 0 13 13v21q0 13 -13 13h-164q-13 0 -13 -13v-21q0 -13 13 -13h164z" />
    <glyph glyph-name="a" unicode="a" horiz-adv-x="1057" 
d="M842 552q32 0 57 -15l-300 -302q-29 -29 -71 -29t-71 29l-299 302q24 15 56 15h628zM120 -8q-20 29 -20 65v381q0 37 22 67l254 -255zM934 505q23 -31 23 -67v-381q0 -36 -21 -65l-256 257zM423 202q43 -44 105 -44t105 44l14 13l254 -256q-27 -16 -59 -16h-628
q-31 0 -60 16l255 257z" />
    <glyph glyph-name="b" unicode="b" horiz-adv-x="990" 
d="M430 656q26 26 64.5 26.5t64.5 -25.5l280 -282l-235 -236l-11 11q-40 40 -99 40t-99 -40l-10 -10l-234 235zM351 106l-234 -236q-17 26 -17 57v353q0 23 8 42q4 9 11 18zM638 105l233 235q19 -25 19 -60v-353q0 -32 -17 -57zM429 117q26 25 65.5 25t64.5 -25l279 -280
q-23 -14 -52 -14h-582q-28 0 -53 14z" />
    <glyph glyph-name="c" unicode="c" horiz-adv-x="991" 
d="M611 606h-230l49 50q26 26 64.5 26.5t64.5 -25.5zM677 558q13 0 21.5 -8t8.5 -21v-287l-102 -103l-11 11q-40 40 -99 40t-99 -40l-11 -10l-102 103v286q0 13 8.5 21t21.5 8h364zM755 461l84 -86l-84 -85v171zM236 291l-84 84l84 84v-168zM352 106l-235 -236
q-17 29 -17 57v353q0 34 20 60zM871 340q20 -26 20 -60v-353q0 -31 -18 -57l-235 235zM430 117q26 25 65 25t65 -25l279 -280q-25 -14 -52 -14h-583q-29 0 -52 14z" />
    <glyph glyph-name="d" unicode="d" horiz-adv-x="864" 
d="M760 499q9 -91 -4 -184t-46 -180t-97.5 -155t-151.5 -97q-28 -9 -58 0q-87 27 -151.5 94.5t-98 155.5t-46 181.5t-3.5 184.5q2 15 8 21t21 7q68 1 149.5 39.5t129.5 89.5q20 23 40 0q48 -51 129.5 -89.5t149.5 -39.5q15 -1 21 -7t8 -21zM604 399q6 12 -6 17l-19 10
q-12 5 -18 -6l-133 -255l-84 132q-8 10 -18 4l-18 -11q-12 -8 -4 -18q40 -66 89 -140q16 -24 38 -22.5t35 26.5q107 202 138 263z" />
    <glyph glyph-name="e" unicode="e" horiz-adv-x="864" 
d="M760 499q9 -91 -4 -184t-46 -180t-97.5 -155t-151.5 -97q-28 -9 -58 0q-87 27 -151.5 94.5t-98 155.5t-46 181.5t-3.5 184.5q2 15 8 21t21 7q68 1 149.5 39.5t129.5 89.5q20 23 40 0q48 -51 129.5 -89.5t149.5 -39.5q15 -1 21 -7t8 -21zM528 143q10 -9 19 0l15 16
q10 8 0 18l-96 96l96 97q10 8 0 18l-15 15q-9 9 -19 0l-96 -96l-96 96q-10 9 -19 0l-15 -15q-10 -10 0 -18l96 -97l-96 -96q-10 -10 0 -18l15 -16q9 -9 19 0l96 97z" />
    <glyph glyph-name="f" unicode="f" horiz-adv-x="1208" 
d="M1090 143q18 -41 18 -87q0 -92 -65 -156.5t-156 -64.5q-92 0 -157 66t-64 158q-61 31 -124 0q1 -92 -64 -158t-157 -66q-91 0 -156 64.5t-65 156.5q0 46 18 87l134 380q10 27 19.5 46.5t25 33.5t25.5 22t33.5 15.5t36 10.5t46.5 10q12 3 15 -10l5 -21q3 -12 -10 -15
q-7 -2 -25 -5.5t-23.5 -5t-19 -5t-18.5 -7t-15 -9t-15 -12t-12 -16t-12.5 -21.5t-10.5 -27l-93 -264q55 34 117 34q77 0 137 -47.5t78 -121.5q68 26 137 0q17 73 77 121t137 48q63 0 118 -34l-94 264q-5 15 -10.5 27t-12.5 21.5t-11.5 16t-15 12t-15 8.5t-18.5 7t-19 5.5
t-23.5 5t-25.5 5.5q-13 3 -10 15l5 21q3 13 16 10q40 -9 54.5 -12.5t40.5 -13.5t38 -22.5t26.5 -35t25.5 -54.5z" />
    <glyph glyph-name="g" unicode="g" horiz-adv-x="985" 
d="M409 593q76 74 175 37q159 -61 234 -120q73 -55 67 -98q-4 -28 -43.5 -43t-89 -21t-108 -25t-90.5 -52l-83 -82q-32 -32 -51 -90.5t-24.5 -108t-21 -89t-43.5 -43.5q-42 -6 -98 67q-62 81 -119 233q-39 101 37 176zM476 533q-15 0 -25.5 -10.5t-10.5 -25.5t10.5 -26
t25.5 -11q16 0 26.5 11t10.5 26t-10.5 25.5t-26.5 10.5zM575 533q-15 0 -25.5 -10.5t-10.5 -25.5t10.5 -26t25.5 -11t26 11t11 26t-11 25.5t-26 10.5zM476 433q-15 0 -25.5 -10.5t-10.5 -25.5t10.5 -26t25.5 -11q16 0 26.5 11t10.5 26t-10.5 25.5t-26.5 10.5zM575 433
q-15 0 -25.5 -10.5t-10.5 -25.5t10.5 -26t25.5 -11t26 11t11 26t-11 25.5t-26 10.5zM361 270q10 8 0 18l-15 15q-9 9 -18 0l-42 -41l-41 41q-9 9 -19 0l-15 -15q-9 -9 0 -18l42 -42l-42 -42q-10 -8 0 -18l15 -15q10 -9 19 0l41 41l42 -41q9 -9 18 0l15 15q9 10 0 19l-41 41z
" />
    <glyph glyph-name="h" unicode="h" horiz-adv-x="910" 
d="M478 -75q-34 -35 -83 -35t-83 35l-177 177q-35 34 -35 83t35 84l298 298q33 33 80 33h251q20 0 33 -13t13 -33l-1 -252q0 -46 -33 -79zM706 430q0 30 -21.5 51t-50.5 21q-30 0 -51 -21t-21 -51q0 -29 21 -50t51 -21q31 0 51.5 21t20.5 50z" />
    <glyph glyph-name="i" unicode="i" horiz-adv-x="1072" 
d="M536 634q71 0 145.5 -20t140.5 -58t108 -101t42 -139q0 -77 -42 -140t-108 -100.5t-140.5 -58t-145.5 -20.5q-39 0 -97 8q-55 -93 -161 -120q-10 -3 -16.5 3t-0.5 17q34 73 21 152q-182 103 -182 259q0 76 42 139t108 100.5t140.5 58t145.5 20.5z" />
    <glyph glyph-name="j" unicode="j" horiz-adv-x="1314" 
d="M392 70q68 -7 86 -7q84 0 168 29t147 94t63 152q0 66 -36.5 120.5t-94 87t-122 50t-125.5 17.5t-125.5 -17.5t-122 -50t-94 -87t-36.5 -120.5q0 -134 159 -224q11 -70 -16 -130q-4 -11 0.5 -16t15.5 -1q85 24 133 103zM1084 14q130 73 130 182q0 48 -23 87t-61.5 64.5
t-80 41.5t-87.5 25q-43 6 -71 2q12 -36 12 -78q0 -96 -60 -167t-157 -113q16 -25 44 -42q100 -58 250 -38q21 -33 43 -50.5t56 -29.5q11 -4 14.5 0t-0.5 16q-18 44 -9 100z" />
    <glyph glyph-name="k" unicode="k" horiz-adv-x="946" 
d="M833 581q13 0 13 -13v-22q0 -13 -13 -13h-62l-42 -549q-6 -70 -54 -120q-50 -48 -116 -48h-172q-66 0 -116 48q-47 48 -53 120l-42 549h-63q-13 0 -13 13v22q0 13 13 13h221v73q0 17 12.5 29.5t30.5 12.5h193q17 0 29.5 -12.5t12.5 -29.5v-73h221zM377 581h192v72h-192
v-72z" />
    <glyph glyph-name="l" unicode="l" horiz-adv-x="987" 
d="M887 306q1 -12 -6.5 -20t-19.5 -8h-337v-313q0 -57 -40.5 -98t-98.5 -41t-98.5 40.5t-40.5 98.5q0 13 13 13h22q13 0 13 -13q0 -37 27 -64t64 -27t64 27t27 64v313h-350q-12 0 -19.5 8t-6.5 20q18 131 125.5 215t244.5 92v61q0 13 13 13h21q13 0 13 -13v-61
q89 -5 168.5 -43t134.5 -107.5t67 -156.5z" />
    <glyph glyph-name="m" unicode="m" horiz-adv-x="981" 
d="M676 645q13 0 21.5 -8t8.5 -21v-112h-431v112q0 13 8.5 21t21.5 8h371zM754 223h-527v-189h-127v305q0 48 34.5 82.5t83.5 34.5h545q49 0 83.5 -34.5t34.5 -82.5v-305h-127v189zM726 403q-14 0 -24.5 -10.5t-10.5 -24.5q0 -15 10.5 -25.5t24.5 -10.5q15 0 25.5 10.5
t10.5 25.5q0 14 -10.5 24.5t-25.5 10.5zM305 -155q-13 0 -21.5 8t-8.5 21v301h431v-301q0 -13 -8.5 -21t-21.5 -8h-371z" />
    <glyph glyph-name="n" unicode="n" horiz-adv-x="816" 
d="M196 -197q-13 0 -13 13v21q0 13 13 13h113v117q-93 6 -171 51q-11 7 -4 19l10 19q7 10 18 3q123 -70 256 -33q136 36 206 157t33 257q-36 136 -157 205q-11 6 -5 18l11 19q6 10 18 4q138 -80 179 -234q27 -101 0 -200t-99 -172t-173 -100q-36 -10 -78 -13v-117h113
q13 0 13 -13v-21q0 -13 -13 -13h-270zM494 515q67 -67 67 -163t-67 -163q-68 -67 -163.5 -67t-162.5 67q-68 67 -68 163t68 163q67 67 162.5 67t163.5 -67z" />
    <glyph glyph-name="o" unicode="o" horiz-adv-x="1110" 
d="M265 565h53q13 0 13 14v21q0 13 -13 13h-53q-68 0 -116.5 -48.5t-48.5 -116.5v-54q0 -13 13 -13h21q13 0 13 13v54q0 48 34.5 82.5t83.5 34.5zM844 565h-53q-13 0 -13 14v21q0 13 13 13h53q68 0 117 -48.5t49 -116.5v-54q0 -13 -13 -13h-22q-13 0 -13 13v54
q0 48 -34.5 82.5t-83.5 34.5zM265 -62h53q13 0 13 -13v-21q0 -14 -13 -14h-53q-68 0 -116.5 49t-48.5 117v53q0 13 13 13h21q13 0 13 -13v-53q0 -49 34.5 -83.5t83.5 -34.5zM844 -62h-53q-13 0 -13 -13v-21q0 -14 13 -14h53q68 0 117 49t49 117v53q0 13 -13 13h-22
q-13 0 -13 -13v-53q0 -49 -34.5 -83.5t-83.5 -34.5z" />
    <glyph glyph-name="p" unicode="p" horiz-adv-x="1093" 
d="M875 502q49 0 83.5 -34.5t34.5 -83.5v-371q0 -49 -34.5 -83.5t-83.5 -34.5h-657q-49 0 -83.5 34.5t-34.5 83.5v481q0 49 34.5 83.5t83.5 34.5h186q28 0 47.5 -7.5t35.5 -27t22.5 -31.5t22.5 -44h343z" />
    <glyph glyph-name="q" unicode="q" horiz-adv-x="1160" 
d="M1060 413q0 49 -34.5 78t-83.5 29h-308l-18 36t-17.5 28t-24 26.5t-28.5 13.5t-40 7h-191q-50 0 -84 -28t-34 -76v-117h14h673q60 0 106 -37.5t56 -96.5q1 -4 4.5 -5.5t6.5 0.5t3 6v136zM884 362q41 0 73 -24.5t41 -64.5l58 -254q13 -57 -21.5 -102t-93.5 -45h-657
q-42 0 -73.5 24.5t-40.5 64.5l-66 284q-13 56 18 86.5t89 30.5h673z" />
    <glyph glyph-name="r" unicode="r" horiz-adv-x="1078" 
d="M225 565q11 34 48 34h533q37 0 48 -34l114 -329h-257q-16 0 -29 -11t-15 -28q-6 -54 -45 -84t-83 -30t-83 30t-45 84q-2 17 -14.5 28t-29.5 11h-257zM978 -43q0 -24 -16 -40t-40 -16h-766q-24 0 -40 16t-16 40v231h264q8 -58 44 -97t83.5 -48.5t95 0t83.5 48.5t44 97h264
v-231z" />
    <glyph glyph-name="s" unicode="s" horiz-adv-x="949" 
d="M849 128q0 -40 -28.5 -69t-69.5 -29h-76v358l-191 192h-163v14q0 40 29 69t69 29h238v-151q0 -16 12 -28t29 -12h151v-373zM834 544h-134v134zM628 -32q0 -40 -29 -69t-69 -29h-332q-40 0 -69 29t-29 69v466q0 40 29 69t69 29h238v-151q0 -17 12 -28.5t28 -11.5h152v-373
zM613 384h-134v134z" />
    <glyph glyph-name="t" unicode="t" horiz-adv-x="961" 
d="M858 591q0 13 -8.5 22t-21.5 9h-239q-13 0 -13 -13v-22q0 -8 2.5 -10.5t10.5 -2.5h187l-244 -244q-9 -9 1 -19l15 -14q10 -9 19 0l244 243v-193q-1 -7 2 -9.5t11 -2.5h21q13 0 13 12v244zM852 -57q9 -21 -7 -33q-131 -93 -329 5q-116 57 -215 158q-100 101 -152 209
q-98 198 -5 329q12 16 33 7q107 -49 169 -172q8 -16 -3 -30l-46 -61q-10 -15 -3 -30q42 -91 105 -154q74 -74 160 -111q15 -7 30 3l61 46q14 11 30 3q123 -62 172 -169z" />
    <glyph glyph-name="u" unicode="u" horiz-adv-x="961" 
d="M852 544q-49 -107 -172 -169q-16 -8 -30 3l-61 46q-15 10 -30 3q-86 -37 -160 -111q-63 -63 -105 -154q-7 -15 3 -30l46 -61q11 -14 3 -30q-62 -123 -169 -172q-21 -9 -33 7q-93 131 5 329q52 108 152 209q99 101 215 158q198 98 329 5q16 -12 7 -33zM530 -73
q0 -12 13 -12h21q8 0 11 2.5t2 9.5v193l244 -243q9 -9 19 0l15 14q10 10 1 19l-244 244h187q8 0 10.5 2.5t2.5 10.5v22q0 13 -13 13h-239q-13 0 -21.5 -9t-8.5 -22v-244z" />
    <glyph glyph-name="v" unicode="v" horiz-adv-x="954" 
d="M852 544q-49 -107 -172 -169q-16 -8 -30 3l-61 46q-15 10 -30 3q-86 -37 -160 -111q-63 -63 -105 -154q-7 -15 3 -30l46 -61q11 -14 3 -30q-62 -123 -169 -172q-21 -9 -33 7q-93 131 5 329q52 108 152 209q99 101 215 158q198 98 329 5q16 -12 7 -33z" />
    <glyph glyph-name="w" unicode="w" horiz-adv-x="1168" 
d="M1024 480q22 0 35 -17t8 -37l-83 -302q-14 -54 -59 -86.5t-101 -32.5h-241q-62 0 -106.5 34.5t-56.5 94.5l-87 446q-8 39 -30 55.5t-63 16.5h-127q-13 0 -13 13v22q0 13 13 13h127q118 0 140 -111l21 -109h623zM578 -44q27 0 46 -19t19 -46t-19 -46t-46 -19t-46.5 19
t-19.5 46t19.5 46t46.5 19zM829 -44q27 0 46.5 -19t19.5 -46t-19.5 -46t-46.5 -19t-46 19t-19 46t19 46t46 19z" />
    <glyph glyph-name="x" unicode="x" horiz-adv-x="1169" 
d="M1025 480q21 0 34.5 -17t7.5 -37l-82 -302q-15 -54 -59.5 -86.5t-100.5 -32.5h-242q-62 0 -106 34.5t-56 94.5q-15 75 -44.5 223.5t-43.5 222.5q-7 39 -29 55.5t-63 16.5h-127q-14 0 -14 13v22q0 13 14 13h127q117 0 139 -111l21 -109h624zM910 528h-371l97 98
q47 48 88.5 47.5t88.5 -48.5zM578 -44q27 0 46.5 -19t19.5 -46t-19.5 -46t-46.5 -19t-46 19t-19 46t19 46t46 19zM830 -44q27 0 46 -19t19 -46t-19 -46t-46 -19t-46 19t-19 46t19 46t46 19z" />
    <glyph glyph-name="y" unicode="y" horiz-adv-x="1014" 
d="M315 546q-13 0 -13 13q0 139 106 231q10 8 19 -1l14 -17q8 -10 -1 -18q-90 -76 -90 -195q0 -13 -13 -13h-22zM442 546q-13 0 -13 13q0 108 83 180q11 8 19 -1l14 -16q8 -10 -1 -19q-67 -58 -67 -144q0 -13 -13 -13h-22zM739 403q48 0 85.5 -19.5t57 -50.5t28.5 -69t0 -76
t-28.5 -69t-57 -50.5t-85.5 -19.5h-36v-92q0 -58 -41.5 -99.5t-99.5 -41.5h-320q-58 0 -100 41.5t-42 99.5v500q0 18 13.5 31.5t31.5 13.5h513q19 0 32 -13.5t13 -31.5v-54h36zM739 97q48 0 81.5 26.5t41 65t0 76.5t-41 64.5t-81.5 26.5h-36v-259h36z" />
    <glyph glyph-name="z" unicode="z" horiz-adv-x="1084" 
d="M329 420q-139 0 -162 -138l-66 -405q-3 -20 10 -35.5t34 -15.5h794q21 0 34 15.5t10 35.5l-66 405q-23 138 -162 138h-26v65q0 51 -20.5 90.5t-53.5 60t-73 30t-80 0t-73 -30t-53.5 -60t-20.5 -90.5v-65h-26zM403 420v65q0 38 15.5 67.5t40 44.5t54 22.5t59 0t54 -22.5
t40 -44.5t15.5 -67.5v-65h-278zM428 271q0 -20 -14.5 -34.5t-34.5 -14.5t-34.5 14.5t-14.5 34.5t14.5 34.5t34.5 14.5t34.5 -14.5t14.5 -34.5zM754 271q0 -20 -14.5 -34.5t-34.5 -14.5t-34.5 14.5t-14.5 34.5t14.5 34.5t34.5 14.5t34.5 -14.5t14.5 -34.5z" />
  </font>
</defs>
</svg>
