<?xml version="1.0" standalone="no"?>
<!DOCTYPE svg PUBLIC "-//W3C//DTD SVG 1.1//EN" "http://www.w3.org/Graphics/SVG/1.1/DTD/svg11.dtd" >
<svg xmlns="http://www.w3.org/2000/svg" xmlns:xlink="http://www.w3.org/1999/xlink" version="1.1">
<metadata>
Created by FontForge 20170731 at Thu Nov 13 13:00:05 2014
 By Aleksey,,,
copyright missing
</metadata>
<defs>
<font id="PantonIcons-BFillLight" horiz-adv-x="954" >
  <font-face 
    font-family="Panton Icons B Fill Light"
    font-weight="400"
    font-stretch="normal"
    units-per-em="1000"
    panose-1="0 0 5 0 0 0 0 0 0 0"
    ascent="750"
    descent="-250"
    x-height="577"
    cap-height="656.5"
    bbox="93 -369 1230 767.5"
    underline-thickness="50"
    underline-position="-200"
    unicode-range="U+0020-007A"
  />
<missing-glyph horiz-adv-x="500" 
d="M410 -250h-317v1000h317v-1000zM168 683v-33h65v-37h-66v-33h166v33h-66v37h66v33h-165zM167 554v-104h166v34h-66v70h-100zM233 484h-33v36h33v-36zM167 423v-33h66v-37h-66v-33h100v70h66v33h-166zM300 363v-66h-133v-34h166v100h-33zM233 241v-56h34v23h33v-47h-100
v80h-33v-113h166v113h-100zM167 68v-113h166v113h-166zM300 -12h-100v47h100v-47zM167 -68v-33h70l-70 -47v-33h166v33h-102l70 47h32v33h-166z" />
    <glyph glyph-name=".notdef" horiz-adv-x="500" 
d="M410 -250h-317v1000h317v-1000zM168 683v-33h65v-37h-66v-33h166v33h-66v37h66v33h-165zM167 554v-104h166v34h-66v70h-100zM233 484h-33v36h33v-36zM167 423v-33h66v-37h-66v-33h100v70h66v33h-166zM300 363v-66h-133v-34h166v100h-33zM233 241v-56h34v23h33v-47h-100
v80h-33v-113h166v113h-100zM167 68v-113h166v113h-166zM300 -12h-100v47h100v-47zM167 -68v-33h70l-70 -47v-33h166v33h-102l70 47h32v33h-166z" />
    <glyph glyph-name=".null" horiz-adv-x="0" 
 />
    <glyph glyph-name="nonmarkingreturn" horiz-adv-x="333" 
 />
    <glyph glyph-name="space" unicode=" " horiz-adv-x="0" 
 />
    <glyph glyph-name="A" unicode="A" horiz-adv-x="894" 
d="M579 349q-68 -63 -68 -100t68 -101q32 -29 49.5 -48.5t42.5 -56t37.5 -83t13.5 -102.5h67q5 0 5 -5v-9q0 -5 -5 -5h-683q-6 0 -6 5v9q0 5 6 5h70q1 69 14 121.5t39 88t44.5 53t50.5 41.5q64 48 64 86.5t-64 87.5q-25 18 -40 30.5t-38 39.5t-35.5 55.5t-23 75t-11.5 102.5
h-70q-6 0 -6 6v8q0 6 6 6h683q5 0 5 -6v-8q0 -6 -5 -6h-67q-1 -56 -13.5 -102t-38 -82.5t-42.5 -55.5t-49 -50z" />
    <glyph glyph-name="B" unicode="B" horiz-adv-x="1196" 
d="M944 659q63 0 107.5 -44.5t44.5 -107.5v-371q0 -63 -44.5 -107.5t-107.5 -44.5h-311q21 -20 63 -74q37 -48 80 -99q3 -4 -1 -8l-7 -5q-4 -4 -7 0q-7 9 -36 44.5t-44 55.5q-57 73 -73 80v-187q0 -5 -6 -5h-8q-5 0 -5 5v187q-16 -6 -64 -69q-6 -7 -9 -11q-37 -46 -81 -100
q-3 -4 -7 0l-7 5q-4 4 0 8q47 57 80 99q44 58 63 74h-312q-63 0 -107.5 44.5t-44.5 107.5v371q0 63 44.5 107.5t107.5 44.5h692z" />
    <glyph glyph-name="C" unicode="C" horiz-adv-x="1196" 
d="M496 -16l-153 -196q-4 -4 -8 -1l-7 6q-4 3 0 7l144 184h-220q-62 0 -107 44.5t-45 107.5v371q0 63 45 107.5t107 44.5h692q63 0 107.5 -44.5t44.5 -107.5v-371q0 -63 -44.5 -107.5t-107.5 -44.5h-219l144 -184q4 -4 -1 -7l-6 -6q-4 -3 -8 1l-154 196h-204zM326 198
q-23 0 -39.5 -16.5t-16.5 -39.5t16.5 -39.5t39.5 -16.5t39.5 16.5t16.5 39.5q0 20 -13 36l102 120q13 -8 29 -8q26 0 43 21l87 -48q-3 -9 -3 -19q0 -23 16.5 -39.5t39.5 -16.5t39.5 16.5t16.5 39.5t-16 39l123 168q10 -6 25 -6q23 0 39.5 16.5t16.5 39.5t-16.5 39.5
t-39.5 16.5t-39.5 -16.5t-16.5 -39.5t16 -39l-123 -168q-12 6 -25 6q-28 0 -44 -21l-87 49q4 12 4 19q0 23 -16.5 39.5t-39.5 16.5t-40 -16.5t-17 -39.5q0 -22 14 -36l-103 -121q-13 8 -28 8z" />
    <glyph glyph-name="D" unicode="D" horiz-adv-x="1028" 
d="M878 208q20 -3 33.5 -18.5t13.5 -36.5q0 -24 -16.5 -40.5t-40.5 -16.5q-23 0 -39.5 16.5t-16.5 40.5q0 21 13.5 36.5t33.5 18.5v102l-340 -196q-6 -3 -10 0l-398 229q-11 6 -11 17.5t11 18.5l382 219q21 11 41 0l384 -219q10 -6 10 -18t-11 -18l-39 -22v-113zM499 97
q16 -8 30 0l224 129v-172q0 -60 -49 -100t-119.5 -49.5t-140.5 0.5t-119 50.5t-49 99.5v171z" />
    <glyph glyph-name="E" unicode="E" horiz-adv-x="919" 
d="M336 354q-108 109 -217 217v-177q0 -5 -5 -5h-8q-6 0 -6 5v180q0 12 9 21t21 9h180q5 0 5 -6v-8q0 -6 -5 -6h-177q143 -143 217 -216q4 -4 0 -8l-6 -6q-4 -4 -8 0zM570 368q37 37 108.5 108t108.5 108h-177q-5 0 -5 6v8q0 6 5 6h180q12 0 20.5 -9t8.5 -21v-180
q0 -5 -5 -5h-8q-6 0 -6 5v177l-217 -217q-3 -4 -7 0l-6 6q-4 4 0 8zM350 120q-74 -73 -217 -216h177q5 0 5 -6v-8q0 -5 -5 -5h-180q-12 0 -21 8.5t-9 20.5v180q0 5 6 5h8q5 0 5 -5v-177q109 108 217 217q4 4 8 0l6 -6q4 -4 0 -8zM583 134l217 -217v177q0 5 6 5h8q5 0 5 -5
v-180q0 -12 -8.5 -20.5t-20.5 -8.5h-180q-5 0 -5 5v8q0 6 5 6h177q-37 37 -108.5 108t-108.5 108q-4 4 0 8l6 6q4 4 7 0z" />
    <glyph glyph-name="F" unicode="F" horiz-adv-x="910" 
d="M115 592l217 -217v177q0 5 5 5h9q5 0 5 -5v-180q0 -12 -8.5 -20.5t-21.5 -8.5h-179q-6 0 -6 5v8q0 6 6 6h176q-143 143 -216 217q-4 3 0 7l6 6q3 4 7 0zM808 579l-217 -217h176q6 0 6 -6v-8q0 -5 -6 -5h-179q-13 0 -21.5 8.5t-8.5 20.5v180q0 5 5 5h9q5 0 5 -5v-177
l217 217q4 4 7 0l7 -6q3 -4 0 -7zM794 -114l-217 217v-177q0 -5 -5 -5h-9q-5 0 -5 5v180q0 12 8.5 20.5t21.5 8.5q30 0 90 0.5t89 0.5q6 0 6 -6v-8q0 -6 -6 -6h-176q143 -143 217 -216q3 -4 0 -8l-7 -6q-3 -4 -7 0zM102 -100l216 216h-176q-6 0 -6 6v8q0 5 6 5h179
q13 0 21.5 -8.5t8.5 -20.5v-180q0 -5 -5 -5h-9q-5 0 -5 5v177l-217 -217q-4 -4 -7 0l-6 6q-4 4 0 8z" />
    <glyph glyph-name="G" unicode="G" horiz-adv-x="952" 
d="M738 447q47 0 80.5 -33t33.5 -80v-77h-367v172h-19v-172h-366v77q0 47 33.5 80t80.5 33h108q-28 11 -50 32q-26 26 -31.5 61t6.5 64.5t40.5 50t65.5 20.5q46 0 78 -30.5t45 -76.5q12 46 44.5 76.5t77.5 30.5q37 0 66 -20.5t41 -50t6.5 -64.5t-31.5 -61q-23 -22 -50 -32
h108zM466 448v10q0 41 -1.5 63t-12 54t-31.5 53q-28 28 -68 28q-31 0 -54.5 -17t-34 -42t-6 -54t26.5 -51q21 -20 57.5 -30.5t57.5 -11.5t66 -2zM531 628q-22 -22 -33 -57t-12 -56t-1 -67q46 1 67 2t57.5 11.5t56.5 30.5q45 46 20.5 105t-88.5 59q-40 0 -67 -28zM466 -180
h-190q-47 0 -80.5 33t-33.5 80v305h304v-418zM790 238v-305q0 -47 -33.5 -80t-80.5 -33h-191v418h305z" />
    <glyph glyph-name="H" unicode="H" horiz-adv-x="1001" 
d="M865 652q14 3 25 -6t11 -23v-563q0 -45 -44 -78q-42 -30 -101 -30t-102 30q-43 32 -43 78t43 77t102 31t101 -31q14 -10 25 -24v510q0 13 -13 11l-470 -98q-9 -2 -9 -11v-571q0 -45 -43 -78q-43 -31 -102 -31t-101 31q-44 32 -44 78t44 77q42 31 101 31t102 -31
q15 -11 24 -24v518q0 24 24 29z" />
    <glyph glyph-name="I" unicode="I" horiz-adv-x="782" 
d="M680 385q4 -4 0 -7l-6 -7q-4 -3 -7 0l-256 263q-4 4 -9 5t-8.5 -1.5t-3.5 -8.5v-654q0 -45 -44 -78q-42 -30 -101 -30t-101 30q-44 32 -44 77.5t44 77.5q42 31 101 31t101 -31q16 -11 25 -23v600q0 21 18.5 27.5t35.5 -9.5q170 -174 255 -262z" />
    <glyph glyph-name="J" unicode="J" horiz-adv-x="1016" 
d="M914 385q4 -4 0 -7l-6 -7q-4 -3 -8 0l-255 263q-4 4 -9 5t-8.5 -1.5t-3.5 -8.5v-654q0 -45 -44 -78q-42 -30 -101 -30t-102 30q-43 32 -43 77.5t43 77.5q43 31 102 31t101 -31q13 -9 25 -23v600q0 21 18.5 27.5t34.5 -9.5q128 -130 256 -262zM105 545q-5 0 -5 5v9
q0 5 5 5h319q5 0 5 -5v-9q0 -5 -5 -5h-319zM105 390q-5 0 -5 5v9q0 5 5 5h319q5 0 5 -5v-9q0 -5 -5 -5h-319zM429 239q0 -6 -5 -6h-319q-5 0 -5 6v8q0 5 5 5h319q5 0 5 -5v-8z" />
    <glyph glyph-name="K" unicode="K" horiz-adv-x="994" 
d="M885 410q12 -12 8 -28t-20 -21q-47 -15 -93 -6l-151 -151q53 -110 18 -213q-5 -16 -21 -19.5t-28 8.5l-180 179l-303 -305q-3 -4 -7 0l-6 6q-4 4 0 7l303 306l-180 179q-11 12 -7.5 28t19.5 21q102 36 213 -17l150 150q-8 49 6 94q5 16 21.5 19.5t28.5 -8.5z" />
    <glyph glyph-name="L" unicode="L" horiz-adv-x="1163" 
d="M929 626q55 0 94.5 -39.5t39.5 -95.5v-489q0 -56 -39.5 -95t-94.5 -39h-695q-56 0 -95 39t-39 95v489q0 56 39.5 95.5t94.5 39.5h695zM1044 491q0 48 -34 82t-81 34h-695q-47 0 -81 -34t-34 -82v-356l241 243q8 9 20 8.5t20 -8.5l254 -246q8 -8 14 0l130 131q8 9 19.5 9
t20.5 -8l206 -189v416zM709 543q32 0 55 -23t23 -55t-23 -55t-55 -23t-54.5 23t-22.5 55t22.5 55t54.5 23z" />
    <glyph glyph-name="M" unicode="M" horiz-adv-x="1037" 
d="M385 -152v705l267 98v-705zM937 -125q0 -12 -6.5 -17t-17.5 -1l-242 89v705l244 -89q22 -8 22 -33v-654zM100 624q0 12 6.5 17t17.5 1l242 -89v-705l-244 89q-22 8 -22 33v654z" />
    <glyph glyph-name="N" unicode="N" horiz-adv-x="966" 
d="M116 482q-16 -8 -16 -24.5t16 -24.5l331 -159q36 -17 72 0l331 159q16 7 16 24t-16 25l-339 163q-28 13 -56 -1zM850 272q16 -8 16 -25t-16 -24l-331 -159q-36 -17 -72 0l-331 159q-16 7 -16 24t16 25l144 69l187 -90q36 -17 72 0l187 90zM850 63q16 -8 16 -25t-16 -24
l-331 -159q-36 -17 -72 0l-331 159q-16 8 -16 25t16 24l144 69l187 -90q36 -17 72 0l187 90z" />
    <glyph glyph-name="O" unicode="O" horiz-adv-x="997" 
d="M300 369q18 118 66.5 194.5t122.5 81.5v-298q-97 2 -189 22zM508 645q74 -5 122.5 -81.5t66.5 -194.5q-92 -20 -189 -22v298zM139 419q39 82 109.5 139t159.5 77q-96 -68 -127 -262q-74 18 -142 46zM716 373q-31 194 -127 262q89 -20 159.5 -77t109.5 -139
q-65 -26 -142 -46zM131 92q-64 155 0 310q73 -30 147 -48q-14 -108 0 -215q-70 -17 -147 -47zM719 139q14 108 0 215q73 18 147 48q64 -155 0 -310q-77 30 -147 47zM297 143q-12 104 0 207q94 -20 192 -22v-163q-91 0 -192 -22zM508 328q98 2 192 22q12 -103 0 -207
q-101 22 -192 22v163zM489 -152q-74 5 -122.5 82t-66.5 194q99 22 189 22v-298zM697 124q-18 -117 -66.5 -194t-122.5 -82v298q90 0 189 -22zM281 120q29 -191 127 -262q-88 20 -159.5 77t-110.5 139q79 31 143 46zM858 74q-38 -82 -109 -139t-160 -77q97 69 127 262
q65 -15 142 -46z" />
    <glyph glyph-name="P" unicode="P" horiz-adv-x="1002" 
d="M770 659q55 0 93.5 -39t38.5 -93v-554q0 -55 -38.5 -93.5t-93.5 -38.5h-538q-54 0 -93 38.5t-39 93.5v554q0 54 39 93t93 39h538zM246 563q-23 0 -40 -17t-17 -40t17 -40t40 -17t40 17t17 40t-17 40t-40 17zM741 563q-24 0 -41 -17t-17 -40t17 -40t41 -17q23 0 40 17
t17 40t-17 40t-40 17zM246 391q-23 0 -40 -17t-17 -40t17 -40t40 -17t40 17t17 40t-17 40t-40 17zM741 391q-24 0 -41 -17t-17 -40t17 -40t41 -17q23 0 40 17t17 40t-17 40t-40 17zM246 224q-23 0 -40 -17t-17 -41q0 -23 17 -40t40 -17t40 17t17 40q0 24 -17 41t-40 17z
M741 224q-24 0 -41 -17t-17 -41q0 -23 17 -40t41 -17q23 0 40 17t17 40q0 24 -17 41t-40 17zM246 54q-23 0 -40 -17t-17 -40t17 -40t40 -17t40 17t17 40t-17 40t-40 17zM741 54q-24 0 -41 -17t-17 -40t17 -40t41 -17q23 0 40 17t17 40t-17 40t-40 17z" />
    <glyph glyph-name="Q" unicode="Q" horiz-adv-x="928" 
d="M213 602q-6 0 -6 5v8q0 6 6 6q125 0 237 -47.5t197 -133.5q86 -85 133.5 -197t47.5 -237q0 -6 -6 -6h-8q-5 0 -5 6q0 118 -45.5 227.5t-129.5 193.5t-193 129t-228 46zM591 6q0 -6 -6 -6h-8q-5 0 -5 6q0 148 -106 254q-105 104 -253 105q-6 0 -6 5v8q0 6 6 6
q156 0 267 -111q111 -113 111 -267zM133 85q33 33 79.5 33t79.5 -33t33 -79.5t-33 -79.5t-79.5 -33t-79.5 33t-33 79.5t33 79.5z" />
    <glyph glyph-name="R" unicode="R" horiz-adv-x="1257" 
d="M115 358q-3 -4 -7 0l-6 6q-4 4 0 8q108 106 244.5 160.5t281.5 53.5q146 1 282.5 -53.5t244.5 -160.5q4 -4 0 -8l-6 -6q-4 -4 -7 0q-106 103 -239 156.5t-275 52.5q-141 1 -274 -52.5t-239 -156.5zM960 176q4 -3 7 0l7 6q3 4 -1 8q-93 91 -219 124t-251.5 0t-218.5 -124
q-4 -4 -1 -8l7 -6q3 -3 7 0q137 134 331.5 134t331.5 -134zM508 -20q53 44 123 44t123 -44q9 -6 2 -15l-117 -117q-7 -8 -15 0l-117 116q-8 8 1 16z" />
    <glyph glyph-name="S" unicode="S" horiz-adv-x="692" 
d="M592 109q-2 -80 -39 -138.5t-91 -85t-116 -26.5t-116 26.5t-91 85t-39 138.5q-2 70 40 176.5t84.5 180.5t80.5 128q19 26 41 26t39 -26q37 -52 81 -127.5t86 -181.5t40 -176z" />
    <glyph glyph-name="T" unicode="T" horiz-adv-x="1048" 
d="M100 262q0 100 36.5 181t96 131t135.5 77t156 27t156 -27t135.5 -77t96 -131t36.5 -181v-207q0 -97 -59 -164.5t-156 -74.5q-13 -1 -22.5 7.5t-9.5 21.5v419q0 13 9.5 22t22.5 8q68 -5 119.5 -41.5t76.5 -98.5v108q0 96 -35 173t-92 125t-129.5 73.5t-148.5 25.5
t-148.5 -25.5t-129.5 -73.5t-92 -125t-35 -173v-108q25 62 76.5 98.5t118.5 41.5q13 1 22.5 -8t9.5 -22v-419q0 -13 -9.5 -21.5t-22.5 -7.5q-97 7 -155.5 74.5t-58.5 164.5v207z" />
    <glyph glyph-name="U" unicode="U" horiz-adv-x="1003" 
d="M100 284q0 95 34.5 172.5t91 125t128.5 73.5t147.5 26t147.5 -26t128.5 -73.5t91 -125t34.5 -172.5v-347q0 -99 -61.5 -170.5t-148.5 -103.5t-184 -32q-37 0 -62.5 26t-25.5 63t25.5 63t62.5 26t63 -26t26 -63q0 -40 -29 -66q61 7 115.5 28t100 54.5t72.5 85.5t27 115v60
q-24 -55 -73.5 -91.5t-111.5 -43.5q-14 -2 -23.5 7t-9.5 22v394q0 13 9.5 22t23.5 7q62 -7 111.5 -43.5t73.5 -91.5v105q0 91 -33 164.5t-86.5 118.5t-122.5 69.5t-140.5 24.5t-140.5 -24.5t-122.5 -69.5t-86.5 -118.5t-33 -164.5v-105q24 55 73.5 91.5t111.5 43.5
q14 2 23.5 -7t9.5 -22v-394q0 -13 -9.5 -22t-23.5 -7q-87 9 -145.5 74t-58.5 152v196z" />
    <glyph glyph-name="V" unicode="V" horiz-adv-x="1038" 
d="M929 424q9 -8 9 -20t-9 -20l-165 -150q-7 -7 -19 -7h-243v-413q0 -6 -5 -6h-19q-5 0 -5 6v413h-234q-58 0 -98.5 40.5t-40.5 97.5v83q0 57 40.5 98t98.5 41h234v107q0 6 5 6h19q5 0 5 -6v-107h243q11 0 19 -8z" />
    <glyph glyph-name="W" unicode="W" horiz-adv-x="1130" 
d="M1024 508q14 -14 0 -29l-99 -99q-8 -6 -15 -6h-577q-35 0 -60.5 25.5t-25.5 61.5v65q0 36 25.5 61.5t60.5 25.5h262v81q0 6 5 6h19q5 0 5 -6v-81h286q9 0 15 -6zM821 291q37 0 63 -26.5t26 -63.5v-67q0 -37 -26 -63t-63 -26h-197v-247q0 -6 -5 -6h-19q-5 0 -5 6v247h-372
q-9 0 -15 6l-102 102q-14 14 0 30l102 102q6 6 15 6h598z" />
    <glyph glyph-name="X" unicode="X" horiz-adv-x="1135" 
d="M547 606l-165 -186l-141 186h306zM895 606l-141 -186l-165 186h306zM402 415l166 186l165 -186h-331zM100 415l122 184l140 -184h-262zM1035 415h-261l140 184zM537 -115h-18q-6 0 -7 4l-409 507h271zM580 -115h-23l-163 511h347zM626 -111q-3 -4 -8 -4h-18l161 511h272z
" />
    <glyph glyph-name="Y" unicode="Y" horiz-adv-x="987" 
d="M493 641q163 0 278.5 -115t115.5 -278q0 -164 -115.5 -279t-278.5 -115t-278 115.5t-115 278.5t115 278t278 115zM280 76q-10 -20 5.5 -35.5t35.5 -6.5l250 122q9 5 14 14l122 250q9 20 -6.5 35.5t-35.5 5.5l-249 -121q-10 -4 -15 -15zM493 300q-21 0 -36.5 -15.5
t-15.5 -36.5q0 -22 15.5 -37t36.5 -15q22 0 37 15t15 37q0 21 -15 36.5t-37 15.5z" />
    <glyph glyph-name="Z" unicode="Z" horiz-adv-x="967" 
d="M707 632q66 0 113 -47t47 -114v-445q0 -67 -47 -114t-113 -47h-446q-67 0 -114 47t-47 114v445q0 67 47 114t114 47h446zM426 401q5 0 5 5v9q0 5 -5 5h-91v91q0 5 -5 5h-9q-5 0 -5 -5v-91h-91q-5 0 -5 -5v-9q0 -5 5 -5h91v-91q0 -5 5 -5h9q5 0 5 5v91h91zM742 401
q5 0 5 5v9q0 5 -5 5h-182q-6 0 -6 -5v-9q0 -5 6 -5h182zM409 162q4 4 0 8l-6 6q-3 4 -7 0l-70 -71l-71 71q-4 4 -7 0l-6 -6q-4 -4 0 -8l70 -70l-70 -71q-4 -3 0 -7l6 -6q3 -4 7 0l71 70l70 -70q4 -4 7 0l6 6q4 4 0 7l-70 71zM742 132q5 0 5 5v9q0 5 -5 5h-182q-6 0 -6 -5v-9
q0 -5 6 -5h182zM742 33q5 0 5 5v8q0 6 -5 6h-182q-6 0 -6 -6v-8q0 -5 6 -5h182z" />
    <glyph glyph-name="a" unicode="a" horiz-adv-x="1085" 
d="M857 564q45 0 78 -27l-312 -315q-32 -32 -80.5 -32t-80.5 32l-312 315q35 27 78 27h629zM133 -32q-33 36 -33 86v381q0 53 36 89l274 -277zM949 524q36 -36 36 -89v-381q0 -48 -33 -86l-278 279zM449 209q38 -39 94 -38.5t94 38.5l24 24l277 -278q-35 -29 -81 -29h-629
q-46 0 -81 29l277 279z" />
    <glyph glyph-name="b" unicode="b" horiz-adv-x="1019" 
d="M619 112l-22 22q-35 35 -88.5 35t-88.5 -36l-21 -20l-253 256l289 291q30 31 74 31t75 -30l289 -292zM100 274q0 46 32 81l254 -255l-256 -258q-30 33 -30 79v353zM632 99l254 256q33 -35 33 -81v-353q0 -45 -31 -79zM433 120q30 30 75.5 30t75.5 -30l291 -291
q-32 -26 -75 -26h-582q-42 0 -74 26z" />
    <glyph glyph-name="c" unicode="c" horiz-adv-x="1020" 
d="M436 662q34 35 73.5 35t74.5 -35l75 -76h-297zM707 567q13 0 21 -8t8 -21v-308l-117 -117l-21 21q-35 36 -89 36t-89 -36l-20 -20l-117 117v307q0 13 8 21t21 8h395zM755 490l119 -120l-119 -120v240zM264 251l-118 119l118 119v-238zM386 101l-256 -258q-30 35 -30 79
v353q0 46 33 81zM887 356q33 -35 33 -81v-353q0 -45 -31 -79l-256 257zM434 121q30 30 75 30t75 -30l291 -291q-31 -26 -74 -26h-582q-41 0 -75 26z" />
    <glyph glyph-name="d" unicode="d" horiz-adv-x="898" 
d="M794 496q9 -95 -4.5 -193t-48.5 -189.5t-103 -162.5t-159 -102q-29 -10 -60 0q-92 29 -160 100t-103 163t-48 190.5t-4 193.5q2 17 8.5 23t22.5 7q72 1 157 41.5t136 94.5q12 13 21 13t21 -13q51 -54 136 -94.5t157 -41.5q16 -1 22.5 -7t8.5 -23zM608 402q2 5 -2 7l-7 4
q-5 2 -7 -2q-64 -121 -142 -271q-3 -4 -8 -4t-7 4q-12 19 -44.5 69t-49.5 77q-3 5 -7 2l-7 -4q-4 -3 -2 -8l94 -146q8 -14 24 -13t23 15z" />
    <glyph glyph-name="e" unicode="e" horiz-adv-x="898" 
d="M794 496q9 -95 -4.5 -193t-48.5 -189.5t-102.5 -162.5t-159.5 -102q-29 -10 -60 0q-92 29 -160 100t-103 163t-48 190.5t-4 193.5q2 17 8.5 23t22.5 7q72 1 157 41.5t136 94.5q12 13 21 13t21 -13q51 -54 136 -94.5t157 -41.5q16 -1 22.5 -7t8.5 -23zM560 135q4 -4 8 0
l6 6q4 4 0 7l-112 112l112 113q4 3 0 7l-6 6q-4 4 -8 0l-112 -112l-112 112q-3 4 -7 0l-6 -6q-4 -4 0 -7l112 -113l-112 -112q-4 -3 0 -7l6 -6q4 -4 7 0l112 112z" />
    <glyph glyph-name="f" unicode="f" horiz-adv-x="1139" 
d="M1021 147q18 -51 18 -84q0 -82 -58 -140t-140 -58t-140.5 58t-58.5 140q0 7 1 11q-34 19 -73.5 19t-73.5 -19q1 -4 1 -11q0 -82 -58.5 -140t-140.5 -58t-140 58t-58 140q0 28 18 84l127 358q10 29 22 48.5t24.5 31.5t32 20t36 12.5t46.5 10.5q3 1 5 1t5 1t5 1q5 2 6 -4
l2 -9q0 -5 -4 -6q-7 -1 -24.5 -4.5t-23 -5t-19.5 -5t-18.5 -6t-15 -7t-15 -9.5t-12.5 -13t-12.5 -17t-10.5 -20.5t-11 -25.5l-105 -296q58 58 140 58q74 0 129.5 -47.5t66.5 -119.5q35 18 75.5 18t75.5 -18q11 72 66.5 119.5t129.5 47.5q82 0 140 -58l-105 296
q-5 14 -11 25.5t-10.5 20.5t-12.5 17t-12.5 13t-15 9.5t-15 7t-18.5 6t-19.5 5t-23 5t-24.5 4.5q-4 1 -4 6l2 9q1 6 6 4q83 -17 106 -30q45 -24 70 -96z" />
    <glyph glyph-name="g" unicode="g" horiz-adv-x="1014" 
d="M155 343q-82 -82 -40 -191q60 -159 121 -238q61 -78 111 -72q33 5 51.5 45.5t24 90.5t23.5 108.5t50 90.5l82 83q32 32 91 50t109 23.5t90.5 24t44.5 51.5q8 49 -71 111q-81 61 -239 122q-108 41 -190 -41zM478 540q16 0 27 -11t11 -27t-11 -27t-27 -11t-27 11t-11 27
t11 27t27 11zM590 540q16 0 27 -11t11 -27t-11 -27t-27 -11t-27 11t-11 27t11 27t27 11zM478 433q16 0 27 -11t11 -27t-11 -27t-27 -11t-27 11t-11 27t11 27t27 11zM590 433q16 0 27 -11t11 -27t-11 -27t-27 -11t-27 11t-11 27t11 27t27 11zM230 284q-4 4 0 7l6 6q4 3 7 0
l58 -57l57 57q4 4 7 0l7 -6q3 -4 0 -7l-58 -58l58 -57q3 -4 0 -8l-7 -6q-3 -3 -7 0l-57 58l-58 -58q-3 -2 -7 0l-6 6q-4 4 0 8l57 57z" />
    <glyph glyph-name="h" unicode="h" horiz-adv-x="937" 
d="M502 -85q-39 -38 -94 -38t-93 38l-177 177q-38 38 -38 93t38 94l317 317q11 11 20 14.5t30 3.5l296 1q16 0 26 -10t10 -26v-297q0 -21 -3.5 -30t-15.5 -21zM724 430q0 32 -23 54.5t-54 22.5t-54 -22.5t-23 -54.5q0 -31 22.5 -53.5t54.5 -22.5t54.5 22.5t22.5 53.5z" />
    <glyph glyph-name="i" unicode="i" horiz-adv-x="1100" 
d="M550 639q75 0 152 -21.5t144.5 -61t110.5 -105.5t43 -145t-43 -145t-110.5 -105.5t-144.5 -61t-152 -21.5q-36 0 -89 7q-59 -98 -192 -124q-13 -3 -19 4.5t1 19.5q44 80 32 158q-81 47 -132 115t-51 153q0 79 43 145t111 105.5t145 61t151 21.5z" />
    <glyph glyph-name="j" unicode="j" horiz-adv-x="1330" 
d="M413 51q54 -6 79 -6q64 0 131.5 18.5t126.5 53.5t96.5 92t37.5 126t-37.5 126t-96.5 91.5t-126 53t-132 18.5t-132 -18.5t-126 -53t-96.5 -91.5t-37.5 -126q0 -74 44.5 -133.5t115.5 -100.5q11 -68 -27 -136q-6 -12 -2 -18t17 -4q115 24 165 108zM1120 -112
q-30 55 -22 113q58 33 95 81.5t37 109.5q0 60 -35 109t-88.5 76.5t-112 40.5t-109.5 9q18 -42 18 -92q0 -103 -72.5 -175.5t-181.5 -107.5q63 -60 148.5 -82t176.5 -10q40 -68 133 -89q9 -1 13 4t0 13z" />
    <glyph glyph-name="k" unicode="k" horiz-adv-x="920" 
d="M815 559q5 0 5 -5v-9q0 -5 -5 -5h-71l-43 -562q-5 -65 -48 -110t-107 -45h-172q-63 0 -106.5 45t-48.5 110l-44 562h-69q-6 0 -6 5v9q0 5 6 5h227v87q0 13 9 22t22 9h193q12 0 21 -9t9 -22v-87h228zM352 559h216v87q0 12 -11 12h-193q-12 0 -12 -12v-87z" />
    <glyph glyph-name="l" unicode="l" horiz-adv-x="1027" 
d="M927 276q1 -13 -7.5 -22t-22.5 -9h-367v-293q0 -51 -36.5 -87.5t-88.5 -36.5t-88.5 36.5t-36.5 87.5q0 6 6 6h8q5 0 5 -6q0 -43 31 -74t75 -31q43 0 74 30.5t31 74.5v293h-380q-13 0 -22 9t-8 22q3 102 62 185t149.5 127t192.5 47v71q0 5 5 5h9q5 0 5 -5v-71
q102 -3 192.5 -47t149.5 -127t62 -185z" />
    <glyph glyph-name="m" unicode="m" horiz-adv-x="1009" 
d="M275 498v140q0 13 8 21t21 8h401q13 0 21 -8t8 -21v-140h-459zM100 347q0 55 38.5 93.5t93.5 38.5h545q55 0 93.5 -38.5t38.5 -93.5v-309q0 -10 -10 -10h-146v189h-497v-189h-146q-10 0 -10 10v309zM733 419q-18 0 -31 -12.5t-13 -31.5t13 -31.5t31 -12.5q19 0 32 12.5
t13 31.5t-13 31.5t-32 12.5zM304 -161q-13 0 -21 8.5t-8 21.5v328h459v-328q0 -13 -8 -21.5t-21 -8.5h-401z" />
    <glyph glyph-name="n" unicode="n" horiz-adv-x="815" 
d="M201 -180q-5 0 -5 6v8q0 6 5 6h133v145q-93 2 -176 49q-4 3 -2 8l4 7q2 5 8 2q126 -74 267 -35q141 38 214 164.5t35 267.5q-39 142 -164 213q-5 3 -2 7l4 8q3 4 7 1q134 -77 173 -224q40 -148 -36.5 -282t-225.5 -174q-48 -12 -87 -12v-145h134q5 0 5 -6v-8q0 -6 -5 -6
h-286zM517 529q71 -71 71 -173t-71 -173t-173 -71t-173 71t-71 173t71 173t173 71t173 -71z" />
    <glyph glyph-name="o" unicode="o" horiz-adv-x="1081" 
d="M251 570h61q5 0 5 5v9q0 5 -5 5h-61q-62 0 -106.5 -44.5t-44.5 -106.5v-61q0 -5 5 -5h9q5 0 5 5v61q0 55 38.5 93.5t93.5 38.5zM830 570h-61q-5 0 -5 5v9q0 5 5 5h61q63 0 107 -44.5t44 -106.5v-61q0 -5 -5 -5h-8q-6 0 -6 5v61q0 55 -38.5 93.5t-93.5 38.5zM251 -86h61
q5 0 5 -5v-9q0 -5 -5 -5h-61q-62 0 -106.5 44.5t-44.5 106.5v61q0 6 5 6h9q5 0 5 -6v-61q0 -55 38.5 -93.5t93.5 -38.5zM830 -86h-61q-5 0 -5 -5v-9q0 -5 5 -5h61q63 0 107 44.5t44 106.5v61q0 6 -5 6h-8q-6 0 -6 -6v-61q0 -55 -38.5 -93.5t-93.5 -38.5z" />
    <glyph glyph-name="p" unicode="p" horiz-adv-x="1121" 
d="M889 512q54 0 93 -38.5t39 -93.5v-371q0 -55 -39 -93.5t-93 -38.5h-657q-55 0 -93.5 38.5t-38.5 93.5v482q0 54 38.5 93t93.5 39h186q54 0 81.5 -26.5t55.5 -84.5h334z" />
    <glyph glyph-name="q" unicode="q" horiz-adv-x="1190" 
d="M1088 414q0 52 -36 83q-38 33 -96 33h-299q-28 58 -55.5 84.5t-81.5 26.5h-191q-55 0 -93.5 -32.5t-38.5 -86.5v-128q18 2 28 2h673q53 0 94 -32t53 -83l25 -115q2 -10 11 -9t9 12zM956 -142q66 0 104 50t24 114l-58 255q-10 45 -46 72.5t-82 27.5h-673q-64 0 -99.5 -36
t-21.5 -98l66 -285q10 -45 46 -72.5t82 -27.5h658z" />
    <glyph glyph-name="r" unicode="r" horiz-adv-x="1107" 
d="M232 591q8 25 37 25h569q29 0 37 -25l128 -367h-278q-11 0 -19 -7.5t-10 -18.5q-7 -60 -50 -93t-92.5 -33t-92.5 33t-50 93q-2 11 -10 18.5t-19 7.5h-278zM1007 -80q0 -31 -31 -31h-845q-31 0 -31 31v285h282q10 0 10 -9q6 -54 39.5 -90.5t78 -45.5t88.5 0t77.5 45.5
t39.5 90.5q0 9 10 9h282v-285z" />
    <glyph glyph-name="s" unicode="s" horiz-adv-x="978" 
d="M492 529h-171v29q0 46 33.5 79t79.5 33h259v-157q0 -11 8.5 -19.5t19.5 -8.5h157v-394q0 -46 -33 -79t-80 -33h-90v367zM721 504q-9 0 -9 9v150l159 -159h-150zM656 -69q0 -47 -33 -79.5t-79 -32.5h-332q-46 0 -79 33t-33 79v467q0 46 33 79t79 33h264v-153q0 -11 8 -19
t19 -8h153v-399zM645 349h-142q-8 0 -8 8v142z" />
    <glyph glyph-name="t" unicode="t" 
d="M852 -57q9 -21 -7 -33q-131 -93 -329 5q-116 57 -215 158q-100 101 -152 209q-98 198 -5 329q12 16 33 7q107 -49 169 -172q8 -16 -3 -30l-46 -61q-10 -15 -3 -30q42 -91 105 -154q74 -74 160 -111q15 -7 30 3l61 46q14 11 30 3q123 -62 172 -169zM510 287q-4 4 0 8
l268 268h-227q-6 0 -6 6v8q0 5 6 5h244q16 0 16 -16v-244q0 -5 -5 -5h-9q-5 0 -5 5v228l-269 -269q-4 -4 -7 0z" />
    <glyph glyph-name="u" unicode="u" 
d="M852 544q-49 -107 -172 -169q-16 -8 -30 3l-61 46q-15 10 -30 3q-86 -37 -160 -111q-63 -63 -105 -154q-7 -15 3 -30l46 -61q11 -14 3 -30q-62 -123 -169 -172q-21 -9 -33 7q-93 131 5 329q52 108 152 209q99 101 215 158q198 98 329 5q16 -12 7 -33zM803 -93q-3 -4 -7 0
l-269 269v-228q0 -5 -5 -5h-9q-5 0 -5 5v244q0 16 16 16h244q6 0 6 -5v-8q0 -6 -6 -6h-227l268 -268q4 -4 0 -8z" />
    <glyph glyph-name="v" unicode="v" 
d="M852 544q-49 -107 -172 -169q-16 -8 -30 3l-61 46q-15 10 -30 3q-86 -37 -160 -111q-63 -63 -105 -154q-7 -15 3 -30l46 -61q11 -14 3 -30q-62 -123 -169 -172q-21 -9 -33 7q-93 131 5 329q52 108 152 209q99 101 215 158q198 98 329 5q16 -12 7 -33z" />
    <glyph glyph-name="w" unicode="w" horiz-adv-x="1154" 
d="M1024 467q15 0 24 -11t5 -25l-82 -302q-13 -49 -54 -79t-92 -30h-242q-57 0 -97.5 31.5t-50.5 86.5q-36 178 -88 446q-9 44 -35 63.5t-72 19.5h-135q-5 0 -5 6v8q0 6 5 6h135q106 0 126 -99l23 -121h635zM578 -52q23 0 39.5 -16.5t16.5 -39.5t-16.5 -39t-39.5 -16
t-39.5 16t-16.5 39t16.5 39.5t39.5 16.5zM830 -52q23 0 39 -16.5t16 -39.5q0 -22 -16.5 -38.5t-38.5 -16.5q-23 0 -39.5 16t-16.5 39t16.5 39.5t39.5 16.5z" />
    <glyph glyph-name="x" unicode="x" horiz-adv-x="1155" 
d="M1025 467q14 0 23.5 -11.5t5.5 -24.5l-83 -302q-13 -50 -53.5 -79.5t-92.5 -29.5h-242q-56 0 -96.5 31.5t-51.5 86.5l-87 446q-9 44 -35 63.5t-72 19.5h-135q-6 0 -6 6v8q0 6 6 6h135q106 0 125 -99l24 -121h635zM933 487h-393l117 118q44 44 80 43.5t80 -44.5zM578 -52
q23 0 39.5 -16.5t16.5 -39.5t-16.5 -39t-39.5 -16q-22 0 -38.5 16.5t-16.5 38.5q0 23 16 39.5t39 16.5zM830 -52q23 0 39.5 -16.5t16.5 -39.5t-16.5 -39t-39.5 -16t-39.5 16t-16.5 39t16.5 39.5t39.5 16.5z" />
    <glyph glyph-name="y" unicode="y" horiz-adv-x="979" 
d="M305 534q-5 0 -5 6q0 140 100 226q5 3 8 0l5 -7q4 -4 0 -7q-94 -81 -94 -212q0 -6 -5 -6h-9zM431 534q-5 0 -5 6q0 108 78 176q4 4 8 0l5 -6q4 -4 0 -8q-72 -62 -72 -162q0 -6 -5 -6h-9zM719 385q51 0 88.5 -24t54 -60t16.5 -78t-16.5 -78t-54 -60t-88.5 -24h-50v-105
q0 -52 -37 -89t-89 -37h-317q-52 0 -89 37t-37 89v496q0 12 8.5 21t21.5 9h509q13 0 21.5 -9t8.5 -21v-67h50zM719 80q67 0 104.5 44.5t37.5 98t-37.5 98t-104.5 44.5h-50v-285h50z" />
    <glyph glyph-name="z" unicode="z" horiz-adv-x="1054" 
d="M954 -124q2 -14 -7 -24.5t-23 -10.5h-794q-14 0 -23 10.5t-7 24.5l66 404q21 127 148 127h40v79q0 47 19 83.5t49.5 55.5t67.5 28t74 0t67.5 -28t49.5 -55.5t19 -83.5v-79h40q127 0 148 -127zM374 407h307v79q0 58 -31.5 97t-77 48.5t-90.5 0t-76.5 -48.5t-31.5 -97v-79z
M364 297q-17 0 -28.5 -11.5t-11.5 -27.5t12 -28t28 -12t28 12t12 28t-11.5 27.5t-28.5 11.5zM730 258q0 16 -11.5 27.5t-28.5 11.5q-16 0 -27.5 -11.5t-11.5 -27.5q0 -17 11.5 -28.5t27.5 -11.5t28 12t12 28z" />
  </font>
</defs>
</svg>
