<?xml version="1.0" standalone="no"?>
<!DOCTYPE svg PUBLIC "-//W3C//DTD SVG 1.1//EN" "http://www.w3.org/Graphics/SVG/1.1/DTD/svg11.dtd" >
<svg xmlns="http://www.w3.org/2000/svg" xmlns:xlink="http://www.w3.org/1999/xlink" version="1.1">
<metadata>
Created by FontForge 20170731 at Thu Nov 13 12:42:52 2014
 By Aleksey,,,
copyright missing
</metadata>
<defs>
<font id="PantonIcons-DFillRegular" horiz-adv-x="1197" >
  <font-face 
    font-family="Panton Icons D Fill"
    font-weight="400"
    font-stretch="normal"
    units-per-em="1000"
    panose-1="0 0 5 0 0 0 0 0 0 0"
    ascent="750"
    descent="-250"
    x-height="621"
    cap-height="693"
    bbox="93 -250 1129 754"
    underline-thickness="50"
    underline-position="-200"
    unicode-range="U+0020-007A"
  />
<missing-glyph horiz-adv-x="500" 
d="M410 -250h-317v1000h317v-1000zM168 683v-33h65v-37h-66v-33h166v33h-66v37h66v33h-165zM167 554v-104h166v34h-66v70h-100zM233 484h-33v36h33v-36zM167 423v-33h66v-37h-66v-33h100v70h66v33h-166zM300 363v-66h-133v-34h166v100h-33zM233 241v-56h34v23h33v-47h-100
v80h-33v-113h166v113h-100zM167 68v-113h166v113h-166zM300 -12h-100v47h100v-47zM167 -68v-33h70l-70 -47v-33h166v33h-102l70 47h32v33h-166z" />
    <glyph glyph-name=".notdef" horiz-adv-x="500" 
d="M410 -250h-317v1000h317v-1000zM168 683v-33h65v-37h-66v-33h166v33h-66v37h66v33h-165zM167 554v-104h166v34h-66v70h-100zM233 484h-33v36h33v-36zM167 423v-33h66v-37h-66v-33h100v70h66v33h-166zM300 363v-66h-133v-34h166v100h-33zM233 241v-56h34v23h33v-47h-100
v80h-33v-113h166v113h-100zM167 68v-113h166v113h-166zM300 -12h-100v47h100v-47zM167 -68v-33h70l-70 -47v-33h166v33h-102l70 47h32v33h-166z" />
    <glyph glyph-name=".null" horiz-adv-x="0" 
 />
    <glyph glyph-name="nonmarkingreturn" horiz-adv-x="333" 
 />
    <glyph glyph-name="space" unicode=" " horiz-adv-x="0" 
 />
    <glyph glyph-name="A" unicode="A" horiz-adv-x="991" 
d="M513 694q-17 8 -35 0l-351 -154q-27 -12 -27 -41v-512q0 -28 27 -40l351 -154q18 -8 35 0l352 154q26 11 26 40v512q0 30 -26 41zM816 515q16 7 27.5 -2t10.5 -23t-17 -21l-316 -138v-474q0 -17 -12.5 -24.5t-25 0t-12.5 24.5v474l-314 137q-16 7 -18 21t9 22t28 1
l321 -136z" />
    <glyph glyph-name="B" unicode="B" horiz-adv-x="1087" 
d="M544 693q-184 0 -314 -130t-130 -313q0 -120 59.5 -222.5t162 -162t222.5 -59.5q183 0 313 130t130 314q0 183 -130 313t-313 130zM546 535q16 0 23 -6.5t7 -23.5v-5q0 -18 -6.5 -24t-23.5 -6h-5q-17 0 -23.5 6t-6.5 24v5q0 17 6.5 23.5t23.5 6.5h5zM453 393h103
q13 0 13 -13v-326h69q14 0 14 -14v-24q0 -14 -14 -14h-189q-14 0 -14 14v24q0 14 14 14h69v288h-65q-13 0 -13 13v25q0 13 13 13z" />
    <glyph glyph-name="C" unicode="C" horiz-adv-x="935" 
d="M227 -181l-114 114q-13 14 -13 31.5t13 31.5l285 285q-56 67 -56 156q0 102 72 174t174 72t174.5 -72t72.5 -174t-72.5 -174t-174.5 -72q-87 0 -156 56l-166 -166q74 -74 111 -112q10 -8 0 -18l-15 -15q-9 -9 -18 0l-112 111l-83 -83l112 -111q9 -9 0 -19l-15 -15
q-10 -9 -19 0zM675 470q23 0 39.5 16.5t16.5 39.5t-16.5 39.5t-39.5 16.5t-39.5 -16.5t-16.5 -39.5t16.5 -39.5t39.5 -16.5z" />
    <glyph glyph-name="D" unicode="D" horiz-adv-x="1138" 
d="M154 86q-30 -30 -43.5 -65t-10.5 -67.5t17.5 -63t38 -54t54 -38t63 -17.5t67.5 10.5t65 43.5l137 137q36 36 47.5 79t2 81.5t-34.5 71.5l58 58q33 -26 71 -35.5t81 2t79 47.5l138 138q58 58 53.5 132t-55 117.5t-117.5 55t-132 -53.5l-138 -138q-36 -36 -47.5 -79t-2 -81
t35.5 -71l-58 -59q-33 26 -71.5 35.5t-81.5 -2t-79 -47.5zM763 410q9 10 0 19l-15 15q-10 10 -19 0q-76 -76 -114 -115q-27 32 -25.5 79.5t39.5 85.5l138 137q34 34 76.5 39t75 -16.5t54 -54t16.5 -75t-39 -76.5l-137 -138q-38 -38 -85 -39.5t-80 25.5zM377 91q-10 -8 0 -18
l15 -15q10 -10 18 0q19 18 56.5 55.5l56.5 56.5q27 -32 25.5 -79t-39.5 -85l-138 -138q-29 -29 -64 -36.5t-64.5 3.5t-53.5 35t-35 53.5t-3.5 64.5t36.5 64l138 138q38 38 85 39.5t79 -25.5q-18 -19 -56 -56.5t-56 -56.5z" />
    <glyph glyph-name="E" unicode="E" horiz-adv-x="934" 
d="M688 501q0 69 -32.5 120t-82 74t-106.5 23t-106.5 -23t-82 -74t-32.5 -120v-156q-62 -10 -104 -58.5t-42 -112.5v-203q0 -72 51 -122.5t122 -50.5h388q71 0 122 50.5t51 122.5v203q0 64 -42 112.5t-104 58.5v156zM294 501q0 47 19 83.5t49.5 55.5t67.5 28t74 0t67.5 -28
t49.5 -55.5t19 -83.5v-154h-346v154zM467 167q19 0 32.5 -13.5t13.5 -32.5q0 -26 -22 -40v-84q0 -13 -13 -13h-22q-13 0 -13 13v84q-22 14 -22 40q0 19 13.5 32.5t32.5 13.5z" />
    <glyph glyph-name="F" unicode="F" horiz-adv-x="933" 
d="M247 417q-23 41 -25 82.5t15 73t44.5 57.5t64 37t72.5 9.5t71 -23.5t58 -63l64 -112q6 -10 18 -4l18 10q12 7 5 18q-12 22 -35 61.5t-29 50.5q-30 52 -74.5 80.5t-90.5 30t-92.5 -12.5t-81.5 -47t-56.5 -73.5t-19 -93.5t32.5 -105l28 -49q-58 -13 -96 -60t-38 -108v-203
q0 -72 50.5 -122.5t121.5 -50.5h388q72 0 122.5 50.5t50.5 122.5v203q0 71 -50.5 122t-122.5 51h-374zM466 169q19 0 33 -13.5t14 -32.5q0 -27 -23 -40v-84q0 -13 -13 -13h-21q-13 0 -13 13v84q-23 13 -23 40q0 19 13.5 32.5t32.5 13.5z" />
    <glyph glyph-name="G" unicode="G" horiz-adv-x="1087" 
d="M543 693q-184 0 -313.5 -130t-129.5 -313q0 -121 59 -223t161.5 -161.5t222.5 -59.5t222.5 59.5t162 162t59.5 222.5q0 183 -130 313t-314 130zM567 226v-180q0 -13 -13 -13h-22q-13 0 -13 13v180h-180q-13 0 -13 13v21q0 13 13 13h180v181q0 13 13 13h22q13 0 13 -13
v-181h180q13 0 13 -13v-21q0 -13 -13 -13h-180z" />
    <glyph glyph-name="H" unicode="H" horiz-adv-x="987" 
d="M548 591q101 -17 177 -86t103 -168q29 -109 -11.5 -214.5t-134.5 -166.5q-11 -7 -4 -18l12 -18q7 -11 17 -4q108 70 154 189.5t13 244.5q-30 112 -116 190t-201 97l86 54q12 7 4 17l-11 19q-7 11 -18 4l-132 -82q-11 -7 -13.5 -20t5.5 -24l96 -127q8 -10 19 -2l17 13
q9 8 2 18q-42 56 -64 84zM438 -95q-101 17 -177 86t-102 168q-29 109 11 214t134 167q12 7 5 18l-12 18q-8 10 -18 4q-107 -70 -153 -190t-13 -244q30 -112 116 -190t201 -97q-58 -36 -86 -54q-11 -6 -5 -18l12 -18q6 -10 18 -4q88 54 132 82q11 7 13.5 20t-5.5 24
q-64 84 -96 127q-8 10 -19 2l-17 -13q-11 -8 -2 -18z" />
    <glyph glyph-name="I" unicode="I" horiz-adv-x="991" 
d="M472 680q0 13 13 13h21q13 0 13 -13v-334q0 -13 -13 -13h-21q-13 0 -13 13v334zM374 524q-102 -37 -164 -126.5t-62 -199.5q0 -144 102 -246t246 -101q144 -1 245.5 101t101.5 246q0 110 -62 199.5t-164 126.5q-12 5 -8 17l8 20q4 12 17 8q116 -43 186.5 -145t70.5 -226
q0 -164 -116 -279.5t-279 -114.5q-164 -1 -280 114.5t-116 279.5q0 124 70.5 226t186.5 145q13 4 18 -8l7 -20q4 -12 -8 -17z" />
    <glyph glyph-name="J" unicode="J" horiz-adv-x="991" 
d="M436 -49q-91 15 -162 74q-100 83 -121.5 212t47.5 240q76 121 216.5 154t262.5 -42q109 -67 148 -189.5t-11 -240.5q-44 -105 -141 -163q-11 -7 -5 -18l11 -19q6 -11 18 -4q111 65 161 185q56 134 12 273.5t-168 215.5q-139 86 -298.5 48.5t-245.5 -175.5
q-79 -127 -54.5 -273t138.5 -241q83 -68 185 -84l-87 -54q-12 -8 -4 -18l11 -19q7 -11 18 -4q60 37 131 82q13 7 15 20.5t-6 24.5l-96 126q-8 10 -19 2l-17 -13q-9 -8 -2 -18z" />
    <glyph glyph-name="K" unicode="K" horiz-adv-x="1114" 
d="M977 388q27 -5 35 -30.5t-11 -45.5l-187 -186l42 -260q5 -27 -17 -43.5t-47 -3.5l-235 120l-234 -120q-25 -13 -47.5 3.5t-17.5 43.5l42 260l-187 186q-19 20 -10.5 45.5t35.5 30.5l260 40l119 235q13 25 40.5 25t39.5 -25l119 -235z" />
    <glyph glyph-name="L" unicode="L" horiz-adv-x="1074" 
d="M263 7l-124 124q-9 9 -19 0l-15 -15q-9 -10 0 -19q19 -18 39.5 -39t45.5 -46l39 -39l-39 -39t-45.5 -46t-39.5 -39q-9 -9 0 -18l15 -16q10 -8 19 0q18 19 39 39.5t46 45.5l39 39l124 -124q9 -8 18 0l16 16q9 9 0 18l-124 124l117 117q94 -83 222 -83q140 0 239 99.5
t99 239.5t-99 239t-239 99t-239.5 -99t-99.5 -239q0 -128 83 -222zM636 637q120 0 205.5 -85t85.5 -206t-85.5 -206t-205.5 -85q-121 0 -206 85t-85 206t85 206t206 85z" />
    <glyph glyph-name="M" unicode="M" horiz-adv-x="1061" 
d="M660 414q-94 83 -222 83q-140 0 -239 -99.5t-99 -239.5t99 -239t239 -99t239.5 99t99.5 239q0 128 -83 222l220 220v-188q0 -13 13 -13h21q13 0 13 13v226q0 18 -13 31t-31 13h-226q-13 0 -13 -13v-21q0 -13 13 -13h190zM438 -133q-120 0 -205.5 85.5t-85.5 205.5
q0 121 85.5 206t205.5 85q121 0 206 -85t85 -206q0 -120 -85 -205.5t-206 -85.5z" />
    <glyph glyph-name="N" unicode="N" horiz-adv-x="1092" 
d="M570 588q126 -8 216 -98t98 -217h95q13 0 13 -13v-21q0 -13 -13 -13h-95q-9 -126 -99 -215.5t-215 -97.5v-95q0 -13 -13 -13h-22q-13 0 -13 13v95q-126 8 -215.5 97.5t-98.5 215.5h-95q-13 0 -13 13v21q0 13 13 13h95q8 127 98 217t216 98v95q0 13 13 13h22q13 0 13 -13
v-95zM522 273v267q-106 -8 -182 -84t-84 -183h266zM836 273q-8 107 -84 183t-182 84v-267h266zM256 226q9 -106 84.5 -181.5t181.5 -84.5v266h-266zM570 -40q106 9 181.5 84.5t84.5 181.5h-266v-266z" />
    <glyph glyph-name="O" unicode="O" horiz-adv-x="976" 
d="M574 625q21 16 44 3t23 -39v-679q0 -29 -24 -40t-48 6l-262 197h-163q-18 0 -31 13t-13 31v265q0 18 13 30.5t31 12.5h163zM734 417q54 -9 90.5 -43.5t45.5 -79t0 -89.5t-45.5 -79.5t-90.5 -43.5q-14 -3 -15 11l-4 21q-2 12 11 15q49 8 76 44t27 77t-27 77t-76 43
q-13 3 -11 15l4 22q1 13 15 10z" />
    <glyph glyph-name="P" unicode="P" horiz-adv-x="1132" 
d="M573 626q21 16 44.5 3t23.5 -39v-679q0 -29 -24 -40t-48 6l-262 197h-163q-18 0 -31 13t-13 31v265q0 18 13 30.5t31 12.5h163zM819 557q82 -30 136 -93t68.5 -138t0 -150.5t-68.5 -138.5t-136 -93q-13 -4 -18 7l-7 21q-4 12 8 16q70 26 116.5 80t58.5 118t0 128.5
t-58.5 118.5t-116.5 79q-12 5 -8 17l7 20q5 12 18 8zM733 418q54 -9 90.5 -43.5t45.5 -79t0 -89.5t-45.5 -79.5t-90.5 -43.5q-12 -3 -15 11l-3 21q-2 12 11 15q49 8 76 44t27 77t-27 77t-76 43q-13 3 -11 15l3 22q3 13 15 10z" />
    <glyph glyph-name="Q" unicode="Q" horiz-adv-x="1187" 
d="M573 625q21 16 44.5 3t23.5 -39v-679q0 -29 -24.5 -40t-47.5 6l-262 197h-164q-18 0 -30.5 13t-12.5 31v265q0 18 12.5 30.5t30.5 12.5h164zM947 249l135 -135q9 -9 0 -18l-16 -15q-8 -10 -18 0l-135 135l-135 -135q-9 -9 -18 0l-16 15q-8 9 0 18l135 135l-135 135
q-8 9 0 19l16 15q9 9 18 0l135 -135l135 135q10 10 18 0l16 -15q10 -9 0 -19z" />
    <glyph glyph-name="R" unicode="R" horiz-adv-x="1084" 
d="M390 325q-10 8 0 18l15 15q9 10 19 0q63 -63 94 -95v409q0 13 13 13h22q13 0 13 -13v-409q11 11 30 30.5t35 35t30 29.5q9 9 18 0l15 -15q10 -10 0 -18q-42 -43 -127 -128q-25 -25 -49 0q-19 19 -40.5 40t-47.5 47.5t-40 40.5zM984 130v-289q0 -17 -12.5 -29.5
t-29.5 -12.5h-800q-17 0 -29.5 12.5t-12.5 29.5v289l127 334q10 27 40 27h118q13 0 13 -13v-21q0 -13 -13 -13h-115l-112 -294h229q16 0 28 -11t14 -27q5 -43 37.5 -72t75.5 -29t76 29t38 72q1 16 13 27t29 11h228l-112 294h-115q-13 0 -13 13v21q0 13 13 13h119
q29 0 39 -27z" />
    <glyph glyph-name="S" unicode="S" horiz-adv-x="1084" 
d="M389 598q-8 9 0 18l128 128q11 10 25 10t24 -10l128 -128q9 -9 0 -18l-15 -15q-9 -9 -19 0l-94 94v-408q0 -13 -13 -13h-22q-13 0 -13 13v408q-16 -15 -47.5 -47t-47.5 -47q-9 -9 -18 0zM984 131v-289q0 -18 -12.5 -30t-29.5 -12h-800q-17 0 -29.5 12t-12.5 30v289
l127 333q10 28 39 28h119q13 0 13 -13v-22q0 -13 -13 -13h-115l-112 -294h228q16 0 28 -10.5t14 -26.5q5 -43 37.5 -72t76.5 -29t76.5 29t36.5 72q2 16 14 26.5t28 10.5h229l-112 294h-115q-13 0 -13 13v22q0 13 13 13h118q30 0 40 -28z" />
    <glyph glyph-name="T" unicode="T" 
d="M1054 391q18 0 30.5 -13t12.5 -30v-194q0 -18 -12.5 -30.5t-30.5 -12.5h-50q-5 -61 -50 -102.5t-107 -41.5h-589q-65 0 -111.5 46t-46.5 111v254q0 65 46.5 111t111.5 46h589q62 0 107 -41.5t50 -102.5h50z" />
    <glyph glyph-name="U" unicode="U" 
d="M258 536q-65 0 -111.5 -46t-46.5 -111v-254q0 -65 46.5 -111t111.5 -46h590q61 0 106.5 41.5t50.5 102.5h49q18 0 30.5 12.5t12.5 30.5v194q0 17 -12.5 30t-30.5 13h-49q-5 61 -50.5 102.5t-106.5 41.5h-590zM303 369v-234q0 -13 -13 -13h-22q-13 0 -13 13v234
q0 13 13 13h22q13 0 13 -13zM444 369v-234q0 -13 -13 -13h-21q-13 0 -13 13v234q0 13 13 13h21q13 0 13 -13zM585 369v-234q0 -13 -13 -13h-21q-13 0 -13 13v234q0 13 13 13h21q13 0 13 -13z" />
    <glyph glyph-name="V" unicode="V" 
d="M258 534q-65 0 -111.5 -46t-46.5 -111v-254q0 -65 46.5 -111t111.5 -46h589q62 0 107 41.5t50 102.5h50q18 0 30.5 12.5t12.5 30.5v194q0 17 -12.5 30t-30.5 13h-50q-5 61 -50 102.5t-107 41.5h-589zM303 367v-234q0 -13 -13 -13h-22q-13 0 -13 13v234q0 13 13 13h22
q13 0 13 -13z" />
    <glyph glyph-name="W" unicode="W" 
d="M258 535q-65 0 -111.5 -46t-46.5 -111v-254q0 -65 46.5 -111t111.5 -46h590q61 0 106.5 41.5t50.5 102.5h49q18 0 30.5 12.5t12.5 30.5v194q0 17 -12.5 30t-30.5 13h-49q-5 61 -50.5 102.5t-106.5 41.5h-590zM295 368v-234q0 -13 -13 -13h-22q-13 0 -13 13v234
q0 13 13 13h22q13 0 13 -13zM436 368v-234q0 -13 -13 -13h-22q-13 0 -13 13v234q0 13 13 13h22q13 0 13 -13zM577 368v-234q0 -13 -13 -13h-21q-13 0 -13 13v234q0 13 13 13h21q13 0 13 -13zM715 368v-234q0 -13 -13 -13h-21q-13 0 -13 13v234q0 13 13 13h21q13 0 13 -13z
M853 368v-234q0 -13 -13 -13h-21q-13 0 -13 13v234q0 13 13 13h21q13 0 13 -13z" />
    <glyph glyph-name="X" unicode="X" horiz-adv-x="1164" 
d="M635 612q6 12 -6 17l-19 10q-13 6 -18 -6l-174 -348q-11 -22 1 -41.5t36 -19.5h164l-170 -341q-7 -11 6 -17l19 -10q12 -5 17 6l174 348q11 22 -1 41.5t-37 19.5h-162zM243 -20q-59 0 -101 42.5t-42 101.5v253q0 59 42 101.5t101 42.5h240l-108 -215q-22 -46 4 -88
t76 -42h86l-97 -196h-201zM1035 376q12 0 20.5 -8.5t8.5 -20.5v-193q0 -12 -8.5 -20.5t-20.5 -8.5h-49q-9 0 -11 -10q-3 -56 -44.5 -95.5t-97.5 -39.5h-229l104 209q23 44 -3 87t-78 43h-84l100 202h190q56 0 97.5 -39.5t44.5 -95.5q2 -10 11 -10h49z" />
    <glyph glyph-name="Y" unicode="Y" horiz-adv-x="1077" 
d="M951 98q18 -12 22 -22.5t4 -35.5v-122q0 -15 -10.5 -27t-25.5 -15l-439 -96q-24 -5 -41 12l-347 329q-14 12 -14 31v115q0 19 7 29l234 345q11 15 30 18l388 59q26 4 41 -19t-1 -44l-229 -311zM919 62l-388 251l-358 -58l317 -268z" />
    <glyph glyph-name="Z" unicode="Z" horiz-adv-x="923" 
d="M504 28q-15 -13 -37 -20q-78 -24 -154 -24q-102 0 -199 40q-13 6 -14.5 19t6.5 20l161 162l-104 390q-3 13 7 23t22 7l391 -105l161 161q11 9 23 6t16 -13q61 -145 31 -297.5t-140 -262.5q-39 -39 -91 -73l161 -240q7 -11 -3 -19l-18 -12q-11 -7 -18 4l-115 186
q-10 16 -13 30h-2v-210q0 -13 -13 -13h-22q-13 0 -13 13v210h-2q-3 -12 -13 -30l-116 -186q-6 -10 -18 -4l-17 12q-11 7 -4 19l117 175q2 3 8 9t13.5 12.5t9.5 8.5zM544 501l-279 75l177 -177zM232 542l74 -279l102 102z" />
    <glyph glyph-name="a" unicode="a" horiz-adv-x="1070" 
d="M475 -89q-103 17 -186 84q-111 93 -135 236t53 267q84 135 240 172t293 -47q117 -73 161.5 -204t-2.5 -259q-24 -66 -64 -112t-102 -86q-10 -8 -4 -18l12 -19q7 -11 18 -3q69 45 112.5 94.5t71.5 126.5q54 145 3.5 292t-181.5 228q-153 94 -328.5 53t-270.5 -193
q-86 -139 -59 -300t152 -264q92 -77 210 -95q-90 -56 -103 -64q-12 -6 -4 -18l11 -18q7 -11 18 -4q67 41 146 91q12 7 15 20.5t-5 24.5l-108 141q-8 11 -18 3l-17 -13q-11 -8 -3 -19q50 -64 74 -97zM559 305v267q0 13 -13 13h-21q-13 0 -13 -13v-269q0 -21 16 -34l128 -103
q11 -8 19 2l13 17q9 10 -2 18q-84 68 -127 102z" />
    <glyph glyph-name="b" unicode="b" horiz-adv-x="1089" 
d="M923 124q28 16 51.5 -5t11.5 -50q-47 -109 -139 -180t-197.5 -91.5t-218 11t-197.5 115.5q-68 68 -102 154.5t-33 171.5t33 167.5t88 146t140 104t182 44.5q31 1 42.5 -28.5t-12.5 -49.5q-106 -87 -113 -225t90 -235q74 -74 178.5 -88t195.5 38z" />
    <glyph glyph-name="c" unicode="c" horiz-adv-x="1148" 
d="M164 416q-10 -17 -26 1q-45 57 -37 130.5t65 119.5q56 46 129.5 39.5t120.5 -60.5q14 -18 -4 -26q-9 -2 -28 -10.5t-52.5 -28t-61.5 -42.5q-65 -54 -106 -123zM982 667q57 -46 65 -119.5t-37 -130.5q-16 -18 -26 -1q-41 69 -106 123q-28 23 -61.5 42.5t-52.5 28t-28 10.5
q-18 8 -4 26q47 54 120.5 60.5t129.5 -39.5zM574 605q173 0 295.5 -122.5t122.5 -295.5q0 -153 -97 -267l90 -90q9 -10 0 -19l-25 -25q-10 -10 -18 0l-90 89q-120 -105 -278 -105t-278 105l-90 -89q-8 -10 -18 0l-25 25q-9 9 0 19l90 90q-97 114 -97 267q0 173 122.5 295.5
t295.5 122.5zM598 202v254q0 13 -13 13h-22q-13 0 -13 -13v-250h-133q-13 0 -13 -13v-22q0 -13 13 -13h137q18 0 31 13t13 31z" />
    <glyph glyph-name="d" unicode="d" horiz-adv-x="988" 
d="M888 634q5 39 -27.5 56t-61.5 -7l-682 -557q-20 -16 -15 -42.5t30 -33.5l166 -52l78 -172q10 -24 36.5 -26t40.5 20l71 108l208 -65q20 -6 37.5 5.5t19.5 31.5zM752 471l31 -6l-229 -480l-41 17zM624 426l22 -18l-288 -376l-38 29z" />
    <glyph glyph-name="e" unicode="e" horiz-adv-x="1163" 
d="M415 -210q17 -16 39.5 -11.5t30.5 26.5q21 53 50.5 94.5t71.5 75t71 51.5t83 48q55 30 86.5 49.5t75.5 53.5t77 77.5t59 99.5q12 27 -9 48l-304 306q-16 16 -37.5 12.5t-31.5 -23.5q-23 -47 -53 -85t-71.5 -69t-68.5 -47.5t-79 -45.5q-48 -26 -73 -41t-66 -45t-66 -58
t-52.5 -71.5t-45.5 -94.5q-10 -25 10 -44zM459 384q7 6 14 -1l17 -16q49 29 107 6q12 -4 6 -14l-8 -14q-5 -9 -16 -5q-45 16 -80 -11q-47 -35 -16 -66q24 -24 81 12q27 16 43.5 23t43 5t48.5 -24q50 -50 -13 -109l17 -17q8 -6 -1 -12l-13 -11q-8 -6 -15 1l-17 17
q-54 -33 -115 -5q-11 4 -5 14l9 14q6 8 17 4q44 -20 84 9q51 39 21 71q-11 11 -26 11.5t-26 -5t-31 -17.5q-27 -16 -44.5 -23t-43.5 -5t-46 23q-51 51 9 106l-16 16q-7 7 1 13z" />
    <glyph glyph-name="f" unicode="f" horiz-adv-x="806" 
d="M520 516q-73 41 -156 41q-82 0 -155 -41l24 115q5 27 32 27h199q27 0 32 -27zM364 509q109 0 187 -75.5t78 -184.5q0 -108 -78 -183.5t-187 -75.5t-186.5 75.5t-77.5 183.5q0 109 77.5 184.5t186.5 75.5zM388 372q0 13 -13 13h-21q-13 0 -13 -13v-112q0 -9 5 -21
q7 -11 15 -16l151 -96q11 -7 18 4l12 18q7 11 -4 18l-150 95v110zM658 296q0 13 13 13h22q13 0 13 -13v-94q0 -13 -13 -13h-22q-13 0 -13 13v94zM209 -17q73 -41 155 -41q83 0 156 41l-24 -116q-5 -27 -32 -27h-199q-27 0 -32 27z" />
    <glyph glyph-name="g" unicode="g" horiz-adv-x="1071" 
d="M579 185q19 0 31.5 12.5t12.5 31.5v351q0 19 -12 31q-13 13 -32 13h-435q-18 0 -31 -13t-13 -31v-351q0 -18 13 -31t31 -13h435zM257 -14q-19 0 -31.5 12.5t-12.5 31.5v107h366q41 0 66 25.5t25 66.5v270h89v-217q0 -19 13.5 -32.5t32.5 -13.5h166v-206
q0 -19 -12.5 -31.5t-31.5 -12.5h-23q-7 37 -36 64q-38 35 -89 35t-89 -35q-28 -26 -37 -64h-122q-9 38 -37 64q-38 35 -89 35t-89 -35q-28 -26 -37 -64h-22zM807 284v203l152 -203h-152zM348 -100q-25 24 -24.5 58t25.5 58q23 22 56 22t56 -22q25 -24 25.5 -58t-24.5 -58
q-23 -24 -57 -24t-57 24zM835 16q25 -24 25 -58t-24 -58q-23 -24 -57 -24t-58 24t-23.5 58t25.5 58q23 22 56 22t56 -22z" />
    <glyph glyph-name="h" unicode="h" horiz-adv-x="1086" 
d="M543 692q-184 0 -313.5 -129.5t-129.5 -313.5q0 -121 59 -223t161.5 -161.5t222.5 -59.5t222.5 59.5t161.5 161.5t59 223q0 184 -129.5 313.5t-313.5 129.5zM565 514q18 0 17 -17l-8 -361q-1 -18 -17 -18h-17q-17 0 -17 18l-7 361q-1 17 17 17h32zM550 61q21 0 29 -8
t8 -28v-6q0 -20 -8 -28t-29 -8h-4q-21 0 -28.5 7.5t-7.5 28.5v6q0 20 7.5 28t28.5 8h4z" />
    <glyph glyph-name="i" unicode="i" horiz-adv-x="1205" 
d="M106 -119q-13 -22 -0.5 -43.5t37.5 -21.5h919q25 0 37.5 21.5t-0.5 43.5l-459 793q-13 21 -37.5 21t-37.5 -21zM617 409q16 0 15 -15l-7 -316q-1 -15 -15 -15h-15q-14 0 -15 15l-6 316q-1 15 15 15h28zM604 13q19 0 25.5 -7t6.5 -25v-5q0 -18 -6.5 -24.5t-25.5 -6.5h-3
q-19 0 -25.5 6.5t-6.5 24.5v5q0 18 6.5 25t25.5 7h3z" />
    <glyph glyph-name="j" unicode="j" horiz-adv-x="1132" 
d="M555 553q-13 0 -13 13v137q0 13 13 13h22q13 0 13 -13v-137q0 -13 -13 -13h-22zM326 456l-97 98q-9 9 0 18l15 15q10 9 19 0l97 -97q10 -10 0 -18l-15 -16q-9 -10 -19 0zM772 472q-8 8 0 18q58 58 98 97q9 9 18 0l15 -15q9 -9 0 -18q-39 -40 -97 -98q-9 -9 -18 0z
M566 498q103 0 175.5 -72.5t72.5 -175.5t-72.5 -175t-175.5 -72t-175 72t-72 175t72 175.5t175 72.5zM264 239q0 -13 -13 -13h-138q-13 0 -13 13v22q0 13 13 13h138q13 0 13 -13v-22zM1019 274q13 0 13 -13v-22q0 -13 -13 -13h-137q-13 0 -13 13v22q0 13 13 13h137zM360 29
q10 -9 0 -19q-14 -14 -32.5 -32t-33 -32.5t-31.5 -32.5q-9 -9 -19 0l-15 15q-10 10 0 18l97 98q10 10 19 0zM903 -54q10 -8 0 -18l-15 -15q-9 -9 -18 0l-98 97q-8 9 0 19l16 15q9 9 18 0q58 -58 97 -98zM577 -52q13 0 13 -13v-138q0 -13 -13 -13h-22q-13 0 -13 13v138
q0 13 13 13h22z" />
    <glyph glyph-name="k" unicode="k" horiz-adv-x="1117" 
d="M645 670q-50 0 -85 -35.5t-35 -85.5q0 -49 35.5 -84.5t84.5 -35.5q50 0 85.5 35t35.5 85t-35.5 85.5t-85.5 35.5zM964 347q8 11 19 3q29 -22 33.5 -57t-16.5 -64t-57 -36q2 -10 2 -29q0 -75 -25 -125q-20 -42 -66 -83l-23 -136q-3 -15 -14.5 -25t-27.5 -10h-88
q-15 -1 -26.5 8.5t-15.5 24.5l-7 39q-86 -18 -176 -4l-8 -35q-3 -15 -14.5 -24.5t-26.5 -9.5h-88q-15 0 -26.5 9.5t-14.5 24.5l-28 127q0 1 -5.5 5.5t-14 12.5t-18.5 19.5t-21.5 30t-21.5 39.5q-3 8 -13 13t-26.5 9.5t-22.5 7.5q-27 12 -27 39v91q0 15 7 24.5t16 13.5t24 8
q37 9 44 23q9 18 20.5 34.5t21.5 28.5t19 21t14 13l5 5l11 109q81 20 133 -31q30 10 78 17q29 -56 79.5 -80.5t102 -14.5t90.5 48q57 -32 102 -83t65 -109q27 5 35.5 30.5t-12.5 42.5q-10 7 -3 17zM487 358q-13 -1 -12 -14l2 -22q1 -12 16 -11q131 14 229 -39q12 -7 18 5
l10 19q6 11 -6 18q-110 59 -257 44zM303 289q-11 -13 -12.5 -28t7.5 -22q10 -8 24 -5t25 16t12.5 28t-7.5 22q-10 8 -24 5t-25 -16z" />
    <glyph glyph-name="l" unicode="l" horiz-adv-x="727" 
d="M517 538q-18 3 -38 3q-55 0 -99 -26q-62 55 -145 50q14 31 39 53q42 37 101 36.5t101 -38.5q35 -32 41 -78zM341 485q-58 -56 -58 -140q0 -59 33 -108q-45 -23 -95 -13.5t-84 47.5q-40 47 -36.5 108t49.5 102q41 35 95.5 36.5t95.5 -32.5zM479 494q61 0 104.5 -43.5
t43.5 -105.5q0 -61 -43.5 -104.5t-104.5 -43.5t-105 43.5t-44 104.5t44 105t105 44zM347 200q56 -50 132 -50q14 0 21 1l-91 -250q-9 -24 -33 -24t-33 24l-101 273q58 -2 105 26z" />
    <glyph glyph-name="m" unicode="m" horiz-adv-x="1066" 
d="M953 -199q13 0 13 13v22q0 13 -13 13h-326v103h231q29 0 40.5 26.5t-7.5 47.5l-131 138h45q33 1 43.5 28t-12.5 50l-136 141h40q32 0 42 27t-11 50l-206 224q-13 14 -32 14t-32 -14l-205 -223q-22 -24 -12.5 -51t42.5 -27h40l-136 -141q-23 -23 -12.5 -50t43.5 -28h45
l-131 -138q-19 -21 -7.5 -47.5t40.5 -26.5h231v-103h-326q-13 0 -13 -13v-22q0 -13 13 -13h840z" />
    <glyph glyph-name="n" unicode="n" horiz-adv-x="1162" 
d="M1060 385q2 -24 2 -36q0 -86 -66.5 -133.5t-155.5 -47.5h-342l-29 -28q66 -2 112.5 -49t46.5 -113q0 -68 -47.5 -115.5t-114.5 -47.5q-68 0 -115.5 47.5t-47.5 115.5q0 73 56 122l85 82q-50 30 -50 89q0 7 2 19h-132q-69 0 -116.5 47t-47.5 116q0 67 47.5 114.5
t114.5 47.5t115 -47.5t48 -114.5t-48 -115h40l260 261q40 41 88.5 62.5t102.5 15.5t95 -47l24 -27l-219 -218h292zM263 338q47 0 80.5 33.5t33.5 81.5q0 47 -33.5 81t-81.5 34q-47 0 -81 -34t-34 -81q0 -48 34 -81.5t82 -33.5zM555 334q-14 0 -24 -10t-10 -24
q0 -15 10 -24.5t24 -9.5q15 0 25 9.5t10 24.5q0 14 -10 24t-25 10zM581 -22q0 47 -34 81t-81 34q-48 0 -81.5 -34t-33.5 -81q0 -48 33.5 -81.5t81.5 -33.5q47 0 81 33.5t34 81.5z" />
    <glyph glyph-name="o" unicode="o" horiz-adv-x="1025" 
d="M376 608q37 2 112 27t117 25h213q33 0 44.5 -35.5t-14.5 -54.5q-8 -6 -5 -16.5t12 -11.5q22 -1 33.5 -19t9 -40t-18.5 -36q-7 -7 -4 -16t12 -11q37 -10 37 -55.5t-31 -55.5q-9 -3 -10.5 -13.5t6.5 -15.5q20 -12 24 -39.5t-10.5 -50t-42.5 -22.5h-190q-9 0 -14.5 -7
t-1.5 -16q15 -35 26.5 -87.5t9 -110.5t-26.5 -84q-16 -19 -34.5 -15t-25.5 31q-16 62 -27.5 97.5t-35.5 81.5t-57 82l-107 118v350zM130 193q-13 0 -21.5 8t-8.5 21v405q0 13 8.5 21t21.5 8h177q13 0 21.5 -8t8.5 -21v-405q0 -13 -8.5 -21t-21.5 -8h-177z" />
    <glyph glyph-name="p" unicode="p" horiz-adv-x="1085" 
d="M813 558h-543v62q0 13 9 21.5t21 8.5h483q13 0 21.5 -8.5t8.5 -21.5v-62zM179 253q-64 0 -76 51q-17 60 56 123l97 83h35q-45 -59 -68 -129t0 -128h-44zM401 510q-62 -151 -36 -257h-89q-33 53 -3 129t81 128h47zM518 510v-257h-103q-33 100 37 257h66zM636 510
q70 -158 38 -257h-108v257h70zM735 510q51 -52 81 -128t-3 -129h-90q27 105 -35 257h47zM866 253q23 59 0 129t-69 128h32l98 -84q71 -61 55 -122q-14 -51 -77 -51h-39zM851 -119q0 -13 -8.5 -21.5t-21.5 -8.5h-172q-12 0 -21 8.5t-9 21.5v153q0 12 -8.5 21t-21.5 9h-94
q-13 0 -21.5 -9t-8.5 -21v-153q0 -13 -9 -21.5t-21 -8.5h-172q-13 0 -21.5 8.5t-8.5 21.5v324h618v-324z" />
    <glyph glyph-name="q" unicode="q" horiz-adv-x="961" 
d="M504 274v344q0 13 -13 13h-21q-13 0 -13 -13v-344h-344q-13 0 -13 -14v-21q0 -13 13 -13h344v-344q0 -13 13 -13h21q13 0 13 13v344h344q13 0 13 13v21q0 14 -13 14h-344z" />
    <glyph glyph-name="r" unicode="r" horiz-adv-x="861" 
d="M756 542q10 8 0 18l-15 15q-9 9 -19 0l-292 -292l-291 292q-9 9 -19 0l-15 -15q-10 -10 0 -18l292 -292l-292 -292q-10 -10 0 -18l15 -16q10 -10 19 0l291 292l292 -292q10 -10 19 0l15 16q10 8 0 18l-292 292z" />
    <glyph glyph-name="s" unicode="s" horiz-adv-x="903" 
d="M361 -8l400 536q8 11 19 3l17 -13q11 -8 2 -18l-424 -565q-5 -8 -15 -8t-16 8l-241 346q-7 12 4 19l17 12q11 7 18 -4z" />
    <glyph glyph-name="t" unicode="t" horiz-adv-x="617" 
d="M512 605q10 -10 -1 -18l-351 -336l351 -335q11 -9 1 -19l-15 -15q-8 -10 -18 0l-373 354q-6 6 -6 15t6 15l373 355q9 9 18 0z" />
    <glyph glyph-name="u" unicode="u" horiz-adv-x="617" 
d="M105 605q-10 -10 0 -18l352 -336l-352 -335q-9 -10 0 -19l15 -15q8 -10 18 0l372 354q7 6 7 15t-7 15l-372 355q-9 9 -18 0z" />
    <glyph glyph-name="v" unicode="v" horiz-adv-x="1207" 
d="M1107 314q0 91 -43.5 164t-114 118t-161 69.5t-185 24.5t-185 -24.5t-161 -69.5t-114 -118t-43.5 -164q0 -93 53.5 -170.5t140.5 -129.5q6 -65 -40 -140q-19 -30 0 -50.5t53 -14.5q153 30 220 129q115 -13 228.5 13t200.5 92q71 53 111 123t40 148zM637 296
q51 -53 104 -104q8 -10 0 -19l-16 -15q-9 -9 -18 0l-104 104q-17 -18 -51.5 -52t-51.5 -52q-10 -10 -19 0l-15 15q-10 9 0 19l104 104q-35 34 -104 103q-10 9 0 19l15 15q9 9 19 0q17 -17 51.5 -52t51.5 -52l104 104q9 9 18 0l16 -15q8 -10 0 -19q-35 -34 -104 -103z" />
    <glyph glyph-name="w" unicode="w" horiz-adv-x="1207" 
d="M1107 314q0 91 -43.5 164t-114 118t-161 69.5t-185 24.5t-185 -24.5t-161 -69.5t-114 -118t-43.5 -164q0 -92 54 -170t140 -130q7 -67 -40 -140q-18 -30 0.5 -50.5t52.5 -14.5q152 30 221 129q114 -13 228 13.5t201 91.5q71 53 110.5 123t39.5 148zM448 308q-7 10 2 19
l17 13q9 9 18 -1l89 -108q27 32 80.5 97t80.5 97q8 11 18 2l17 -14q10 -9 1 -18l-181 -219q-7 -8 -16 -8t-16 8z" />
    <glyph glyph-name="x" unicode="x" horiz-adv-x="1206" 
d="M1106 314q0 91 -43 164t-114 118t-161.5 69.5t-184.5 24.5t-184.5 -24.5t-161.5 -69.5t-114 -118t-43 -164q0 -93 53.5 -170.5t139.5 -129.5q7 -66 -39 -140q-19 -30 0 -50.5t53 -14.5q153 30 220 129q115 -13 228.5 13t200.5 92q71 53 110.5 123t39.5 148zM452 262
q19 0 25.5 -7t6.5 -27v-5q0 -19 -6.5 -26t-25.5 -7h-5q-19 0 -26.5 7t-7.5 26v5q0 19 7.5 26.5t26.5 7.5h5zM607 262q19 0 25.5 -7t6.5 -27v-5q0 -19 -6.5 -26t-25.5 -7h-5q-19 0 -26 7t-7 26v5q0 19 7 26.5t26 7.5h5zM762 262q19 0 25.5 -7t6.5 -27v-5q0 -19 -6.5 -26
t-25.5 -7h-5q-19 0 -26 7t-7 26v5q0 19 7 26.5t26 7.5h5z" />
    <glyph glyph-name="y" unicode="y" horiz-adv-x="1229" 
d="M1048 161q34 0 57.5 -23.5t23.5 -57.5v-204q0 -34 -23.5 -57.5t-57.5 -23.5h-152q-34 0 -57.5 23.5t-23.5 57.5v204q0 34 23.5 57.5t57.5 23.5h51v29q0 14 -9.5 23.5t-23.5 9.5h-276v-61h53q33 0 57 -23.5t24 -57.5v-204q0 -34 -24 -57.5t-57 -23.5h-153q-33 0 -57 23.5
t-24 57.5v204q0 34 24 57.5t57 23.5h53v61h-276q-13 0 -23 -9.5t-10 -23.5v-29h51q34 0 57.5 -23.5t23.5 -57.5v-204q0 -34 -23.5 -57.5t-57.5 -23.5h-152q-34 0 -57.5 23.5t-23.5 57.5v204q0 34 23.5 57.5t57.5 23.5h54l-1 1v28q0 33 24 57t57 24h276v59h-53
q-33 0 -57 23.5t-24 57.5v204q0 34 24 57.5t57 23.5h153q33 0 57 -23.5t24 -57.5v-204q0 -34 -24 -57.5t-57 -23.5h-53v-59h276q33 0 57 -24t24 -57v-29h53z" />
    <glyph glyph-name="z" unicode="z" horiz-adv-x="831" 
d="M650 -200q33 0 57 23.5t24 57.5v733q0 34 -24 57.5t-57 23.5h-469q-33 0 -57 -23.5t-24 -57.5v-733q0 -34 24 -57.5t57 -23.5h469zM416 398q-41 0 -71 30t-30 71t30 70.5t71 29.5q40 0 70 -29.5t30 -70.5t-29.5 -71t-70.5 -30zM416 -91q-77 0 -132 54.5t-55 131.5
t55 131.5t132 54.5t131.5 -54.5t54.5 -131.5t-54.5 -131.5t-131.5 -54.5zM416 -42q-56 0 -97 40.5t-41 96.5t41 96.5t97 40.5t96.5 -40.5t40.5 -96.5t-40.5 -96.5t-96.5 -40.5z" />
  </font>
</defs>
</svg>
