<?xml version="1.0" standalone="no"?>
<!DOCTYPE svg PUBLIC "-//W3C//DTD SVG 1.1//EN" "http://www.w3.org/Graphics/SVG/1.1/DTD/svg11.dtd" >
<svg xmlns="http://www.w3.org/2000/svg" xmlns:xlink="http://www.w3.org/1999/xlink" version="1.1">
<metadata>
Created by FontForge 20170731 at Thu Nov 13 12:42:41 2014
 By Aleksey,,,
copyright missing
</metadata>
<defs>
<font id="PantonIcons-CLight" horiz-adv-x="1058" >
  <font-face 
    font-family="Panton Icons C Light"
    font-weight="400"
    font-stretch="normal"
    units-per-em="1000"
    panose-1="0 0 5 0 0 0 0 0 0 0"
    ascent="750"
    descent="-250"
    x-height="604"
    cap-height="679"
    bbox="93 -250 1634 750"
    underline-thickness="50"
    underline-position="-200"
    unicode-range="U+0020-007A"
  />
<missing-glyph horiz-adv-x="500" 
d="M410 -250h-317v1000h317v-1000zM168 683v-33h65v-37h-66v-33h166v33h-66v37h66v33h-165zM167 554v-104h166v34h-66v70h-100zM233 484h-33v36h33v-36zM167 423v-33h66v-37h-66v-33h100v70h66v33h-166zM300 363v-66h-133v-34h166v100h-33zM233 241v-56h34v23h33v-47h-100
v80h-33v-113h166v113h-100zM167 68v-113h166v113h-166zM300 -12h-100v47h100v-47zM167 -68v-33h70l-70 -47v-33h166v33h-102l70 47h32v33h-166z" />
    <glyph glyph-name=".notdef" horiz-adv-x="500" 
d="M410 -250h-317v1000h317v-1000zM168 683v-33h65v-37h-66v-33h166v33h-66v37h66v33h-165zM167 554v-104h166v34h-66v70h-100zM233 484h-33v36h33v-36zM167 423v-33h66v-37h-66v-33h100v70h66v33h-166zM300 363v-66h-133v-34h166v100h-33zM233 241v-56h34v23h33v-47h-100
v80h-33v-113h166v113h-100zM167 68v-113h166v113h-166zM300 -12h-100v47h100v-47zM167 -68v-33h70l-70 -47v-33h166v33h-102l70 47h32v33h-166z" />
    <glyph glyph-name=".null" horiz-adv-x="0" 
 />
    <glyph glyph-name="nonmarkingreturn" horiz-adv-x="333" 
 />
    <glyph glyph-name="space" unicode=" " horiz-adv-x="0" 
 />
    <glyph glyph-name="A" unicode="A" horiz-adv-x="1228" 
d="M866 669q-12 0 -21 -8.5t-9 -20.5v-783q0 -13 9 -21.5t21 -8.5h232q12 0 21 8.5t9 21.5v783q0 12 -9 20.5t-21 8.5h-232zM1098 650q11 0 11 -10v-783q0 -11 -11 -11h-232q-11 0 -11 11v783q0 10 11 10h232zM130 387q-12 0 -21 -8.5t-9 -20.5v-501q0 -13 9 -21.5t21 -8.5
h232q12 0 21 8.5t9 21.5v501q0 12 -9 20.5t-21 8.5h-232zM362 368q11 0 11 -10v-501q0 -11 -11 -11h-232q-11 0 -11 11v501q0 10 11 10h232zM499 218q-12 0 -21 -8.5t-9 -21.5v-331q0 -13 9 -21.5t21 -8.5h232q12 0 21 8.5t9 21.5v331q0 13 -9 21.5t-21 8.5h-232zM731 199
q11 0 11 -11v-331q0 -11 -11 -11h-232q-11 0 -11 11v331q0 11 11 11h232z" />
    <glyph glyph-name="B" unicode="B" 
d="M529 679q-178 0 -303.5 -125.5t-125.5 -303.5t125.5 -303.5t303.5 -125.5t303.5 125.5t125.5 303.5t-125.5 303.5t-303.5 125.5zM529 660q170 0 290 -120t120 -290t-120 -290t-290 -120t-290 120t-120 290t120.5 290t289.5 120zM679 274q-71 69 -140 140v-353q0 -5 -5 -5
h-9q-5 0 -5 5v353l-140 -140q-4 -4 -8 0l-6 6q-4 4 0 7l152 152q11 11 22 0q77 -75 152 -152q4 -3 0 -7l-6 -6q-4 -4 -7 0z" />
    <glyph glyph-name="C" unicode="C" 
d="M958 250q0 178 -125.5 303.5t-303.5 125.5t-303.5 -125.5t-125.5 -303.5t125.5 -303.5t303.5 -125.5t303.5 125.5t125.5 303.5zM939 250q0 -170 -120 -290t-290 -120t-290 120t-120 290t120.5 290t289.5 120q170 0 290 -120t120 -290zM553 100l44.5 44.5t51.5 52t44 43.5
h-352q-6 0 -6 6v8q0 5 6 5h352l-140 140q-4 4 0 8l6 6q4 4 8 0l152 -152q11 -11 0 -22l-152 -152q-4 -4 -8 0l-6 6q-3 3 0 7z" />
    <glyph glyph-name="D" unicode="D" horiz-adv-x="1059" 
d="M100 250q0 178 125.5 303.5t303.5 125.5t304 -125.5t126 -303.5t-126 -303.5t-304 -125.5t-303.5 125.5t-125.5 303.5zM119 250q0 -170 120 -290t290 -120t290 120t120 290t-120 290t-290 120q-169 0 -289.5 -120t-120.5 -290zM505 100q-69 71 -140 140h353q5 0 5 6v8
q0 5 -5 5h-353l140 140q4 4 0 8l-6 6q-3 4 -7 0l-152 -152q-11 -11 0 -22l48 -48t56 -56.5t48 -47.5q4 -4 7 0l6 6q3 3 0 7z" />
    <glyph glyph-name="E" unicode="E" 
d="M529 -179q-178 0 -303.5 125.5t-125.5 303.5t125.5 303.5t303.5 125.5t303.5 -125.5t125.5 -303.5t-125.5 -303.5t-303.5 -125.5zM529 -160q170 0 290 120t120 290t-120 290t-290 120q-169 0 -289.5 -120t-120.5 -290t120 -290t290 -120zM679 226l-140 -140v352q0 6 -5 6
h-9q-5 0 -5 -6v-352l-44.5 44.5t-52 51.5t-43.5 44q-4 4 -8 0l-6 -6q-4 -4 0 -8q77 -75 152 -152q11 -11 22 0l152 152q4 4 0 8l-6 6q-4 4 -7 0z" />
    <glyph glyph-name="F" unicode="F" 
d="M529 -179q178 0 303.5 125.5t125.5 303.5t-125.5 303.5t-303.5 125.5t-303.5 -125.5t-125.5 -303.5t125.5 -303.5t303.5 -125.5zM246 546q119 114 283 114q170 0 290 -120t120 -290q0 -165 -113 -283zM812 -47q-118 -113 -283 -113q-170 0 -290 120t-120 290
q0 164 114 283z" />
    <glyph glyph-name="G" unicode="G" 
d="M529 -179q178 0 303.5 125.5t125.5 303.5t-125.5 303.5t-303.5 125.5t-303.5 -125.5t-125.5 -303.5t125.5 -303.5t303.5 -125.5zM529 -160q-170 0 -290 120t-120 290t120.5 290t289.5 120q170 0 290 -120t120 -290t-120 -290t-290 -120zM489 94q-12 -12 -24 0l-147 151
q-4 4 0 8l6 6q4 4 8 0l145 -149q43 48 130 146.5t131 146.5q4 4 8 1l6 -6q4 -3 1 -7z" />
    <glyph glyph-name="H" unicode="H" 
d="M529 -179q178 0 303.5 125.5t125.5 303.5t-125.5 303.5t-303.5 125.5t-303.5 -125.5t-125.5 -303.5t125.5 -303.5t303.5 -125.5zM529 -160q-170 0 -290 120t-120 290t120.5 290t289.5 120q170 0 290 -120t120 -290t-120 -290t-290 -120zM305 45q73 69 219 209v200
q0 6 5 6h8q6 0 6 -6v-204v-4l-3 -3l-221 -212q-4 -4 -8 0l-6 6q-3 4 0 8z" />
    <glyph glyph-name="I" unicode="I" horiz-adv-x="1059" 
d="M529 -179q178 0 304 125.5t126 303.5t-126 303.5t-304 125.5t-303.5 -125.5t-125.5 -303.5t125.5 -303.5t303.5 -125.5zM529 -160q-170 0 -290 120t-120 290t120.5 290t289.5 120q170 0 290.5 -120t120.5 -290t-120.5 -290t-290.5 -120zM516 250l-151 150q-3 4 0 8l6 6
q4 4 8 0l150 -151l151 151q4 4 7 0l6 -6q4 -4 0 -8l-150 -150l150 -151q4 -3 0 -7l-6 -6q-3 -4 -7 0l-151 150l-150 -150q-4 -4 -8 0l-6 6q-3 4 0 7z" />
    <glyph glyph-name="J" unicode="J" horiz-adv-x="868" 
d="M749 634q0 6 5 6h8q6 0 6 -6v-769q0 -5 -6 -5h-8q-5 0 -5 5v769zM100 -104q0 -5 4 -15q5 -7 12 -11q9 -4 15 -3q8 0 15 4l561 354q7 3 10 10q4 7 4 15q0 9 -4 14q-3 6 -10 11l-561 353q-8 5 -15 5q-10 0 -15 -4q-8 -5 -12 -11q-4 -8 -4 -15v-707zM119 603q0 2 2 6
q0 1 4 3t5 2q2 0 6 -2l561 -353l4 -4l1 -2v-3v-3l-1 -2l-4 -4l-561 -354q-2 -1 -6 -1q-3 0 -5 1q-4 2 -4 4q-2 4 -2 5v707z" />
    <glyph glyph-name="K" unicode="K" horiz-adv-x="1083" 
d="M461 -41q0 -17 15.5 -26t30.5 1l462 291q13 8 13 24.5t-13 25.5l-462 291q-15 9 -30.5 0.5t-15.5 -25.5v-155q0 -6 -5.5 -9t-10.5 0l-300 189q-14 9 -29.5 0.5t-15.5 -25.5v-582q0 -17 15.5 -26t29.5 1l300 188q5 4 10.5 1t5.5 -10v-154zM480 113q0 18 -15 26.5t-30 -1.5
l-300 -188q-5 -4 -10.5 -1t-5.5 10v582q0 6 5.5 9t10.5 0l300 -189q15 -9 30 -0.5t15 25.5v155q0 6 6 9t11 0l462 -291q5 -3 5 -9t-5 -9l-462 -291q-5 -4 -11 -1t-6 10v154z" />
    <glyph glyph-name="L" unicode="L" horiz-adv-x="807" 
d="M129 631q-12 0 -20.5 -9t-8.5 -21v-709q0 -12 8.5 -20.5t20.5 -8.5h183q12 0 21 8.5t9 20.5v709q0 12 -9 21t-21 9h-183zM495 631q-13 0 -21.5 -9t-8.5 -21v-709q0 -12 8.5 -20.5t21.5 -8.5h182q13 0 21.5 8.5t8.5 20.5v709q0 12 -8.5 21t-21.5 9h-182zM312 612
q11 0 11 -11v-709q0 -10 -11 -10h-183q-10 0 -10 10v709q0 11 10 11h183zM677 612q11 0 11 -11v-709q0 -10 -11 -10h-182q-11 0 -11 10v709q0 11 11 11h182z" />
    <glyph glyph-name="M" unicode="M" horiz-adv-x="821" 
d="M100 -103q0 -18 15.5 -26.5t30.5 0.5l561 354q13 8 13 24.5t-13 25.5l-561 353q-16 10 -31 1t-15 -26v-706zM119 603q0 6 5.5 9.5t11.5 -0.5l561 -353q5 -3 5 -9t-5 -9l-561 -354q-6 -3 -11.5 0t-5.5 10v706z" />
    <glyph glyph-name="N" unicode="N" horiz-adv-x="1082" 
d="M621 -41q0 -17 -15.5 -26t-30.5 1l-461 291q-14 8 -14 24.5t14 25.5l461 291q15 9 30.5 0.5t15.5 -25.5v-155q0 -6 5.5 -9t11.5 0l299 189q15 9 30 0.5t15 -25.5v-582q0 -17 -15 -26t-30 1l-299 188q-6 4 -11.5 1t-5.5 -10v-154zM602 113q0 18 15.5 26.5t30.5 -1.5
l299 -188q5 -4 10.5 -1t5.5 10v582q0 6 -5.5 9t-10.5 0l-299 -189q-15 -9 -30.5 -0.5t-15.5 25.5v155q0 6 -5.5 9t-10.5 0l-462 -291q-5 -3 -5 -9t5 -9l462 -291q5 -4 10.5 -1t5.5 10v154z" />
    <glyph glyph-name="O" unicode="O" horiz-adv-x="868" 
d="M119 635q0 6 -5 6h-8q-6 0 -6 -6v-769q0 -5 6 -5h8q5 0 5 5v769zM768 -103q0 -5 -4 -15q-5 -7 -12 -11q-9 -4 -15 -3q-8 0 -15 4l-561 354q-7 3 -10 10q-4 7 -4 15q0 9 4 14q3 6 10 11l561 353q8 5 15 5q10 0 15 -4q8 -5 12 -11q4 -8 4 -15v-707zM749 604q0 2 -2 6
q-2 2 -4 3q-4 2 -5 2q-2 0 -6 -2l-561 -353q-3 -1 -4 -4l-1 -2v-3v-3l1 -2q1 -3 4 -4l561 -354q2 -1 6 -1q3 0 5 1q3 1 4 4q2 4 2 5v707z" />
    <glyph glyph-name="P" unicode="P" horiz-adv-x="990" 
d="M577 -125q8 -19 29 -19t28 20l254 730q6 18 -7 31.5t-31 6.5l-730 -254q-20 -7 -20 -27.5t19 -28.5l322 -130q4 -1 7 -6zM465 205q-4 11 -16 16l-323 130q-8 3 -8 11t8 10l730 254q7 2 11.5 -2.5t2.5 -11.5l-254 -730q-2 -7 -10 -7t-11 7z" />
    <glyph glyph-name="Q" unicode="Q" horiz-adv-x="1076" 
d="M226 -193v311q45 3 76 36.5t31 79.5t-31 79t-76 37v338q0 5 -6 5h-8q-5 0 -5 -5v-338q-45 -4 -76 -37t-31 -79t31 -79.5t76 -36.5v-311q0 -5 5 -5h8q6 0 6 5zM547 -193v134q45 4 76 37.5t31 79.5t-31 79t-76 37v514q0 5 -5 5h-9q-5 0 -5 -5v-514q-45 -4 -76 -37t-31 -79
t31 -79.5t76 -37.5v-134q0 -5 5 -5h9q5 0 5 5zM869 -193v533q45 3 76 36.5t31 79.5t-31 79t-76 37v116q0 5 -6 5h-8q-6 0 -6 -5v-116q-45 -4 -76 -37t-31 -79t31 -79.5t76 -36.5v-533q0 -5 6 -5h8q6 0 6 5zM859 553q41 0 69.5 -28.5t28.5 -68.5t-28.5 -69t-69.5 -29
t-69.5 29t-28.5 69t28.5 68.5t69.5 28.5zM216 331q41 0 69.5 -28.5t28.5 -68.5t-29 -69t-69 -29t-68.5 28.5t-28.5 69.5q0 40 28.5 68.5t68.5 28.5zM538 155q40 0 68.5 -28.5t28.5 -68.5q0 -41 -28.5 -69.5t-68.5 -28.5t-69 29t-29 69t28.5 68.5t69.5 28.5z" />
    <glyph glyph-name="R" unicode="R" horiz-adv-x="1280" 
d="M127 29q-27 -27 -27 -67q0 -39 27 -66q28 -28 67 -28q38 0 66 28q27 27 27 66q0 40 -27 67q-1 1 -2.5 2t-2.5 2l150 212q21 -12 46 -12q57 0 83 50l204 -82q-3 -12 -3 -25q0 -39 27.5 -66.5t66.5 -27.5t66.5 27.5t27.5 66.5q0 43 -35 72l155 235q20 -11 43 -11
q39 0 67 28q27 27 27 66q0 40 -27 67t-67 27q-39 0 -66 -27q-28 -28 -28 -67q0 -38 28 -66q4 -4 7 -6l-155 -235q-19 10 -43 10q-57 0 -84 -50l-204 82q4 11 4 26q0 38 -27.5 65.5t-66.5 27.5t-66.5 -27.5t-27.5 -65.5q0 -42 32 -71l-149 -212q-21 12 -46 12q-40 0 -67 -27z
M1086 641q33 0 53 -22q22 -20 22 -53q0 -31 -22 -53q-21 -21 -53 -21q-30 0 -53 21q-22 24 -22 53q0 31 22 53t53 22zM451 401q31 0 53 -21.5t22 -52.5t-22 -53t-53 -22t-53 22t-22 53t22 52.5t53 21.5zM829 250q31 0 53 -21.5t22 -52.5t-22 -53t-53 -22t-53 21.5t-22 53.5
q0 31 22 52.5t53 21.5zM194 37q31 0 53 -22q21 -21 21 -53q0 -30 -21 -53q-23 -21 -53 -21q-32 0 -53 21q-22 22 -22 53q0 33 22 53q20 22 53 22z" />
    <glyph glyph-name="S" unicode="S" horiz-adv-x="1006" 
d="M130 658q-13 0 -21.5 -8.5t-8.5 -21.5v-270q0 -12 8.5 -21t21.5 -9h270q12 0 21 9t9 21v270q0 13 -9 21.5t-21 8.5h-270zM606 658q-12 0 -21 -8.5t-9 -21.5v-270q0 -12 9 -21t21 -9h270q13 0 21.5 9t8.5 21v270q0 13 -8.5 21.5t-21.5 8.5h-270zM400 639q11 0 11 -11v-270
q0 -11 -11 -11h-270q-11 0 -11 11v270q0 11 11 11h270zM876 639q11 0 11 -11v-270q0 -11 -11 -11h-270q-11 0 -11 11v270q0 11 11 11h270zM130 182q-13 0 -21.5 -9t-8.5 -21v-270q0 -13 8.5 -21.5t21.5 -8.5h270q12 0 21 8.5t9 21.5v270q0 12 -9 21t-21 9h-270zM606 182
q-12 0 -21 -9t-9 -21v-270q0 -13 9 -21.5t21 -8.5h270q13 0 21.5 8.5t8.5 21.5v270q0 12 -9 21t-21 9h-270zM400 163q11 0 11 -11v-270q0 -11 -11 -11h-270q-11 0 -11 11v270q0 11 11 11h270zM876 163q4 0 8 -4q3 -3 3 -7v-270q0 -11 -11 -11h-270q-11 0 -11 11v270
q0 11 11 11h270z" />
    <glyph glyph-name="T" unicode="T" horiz-adv-x="1048" 
d="M864 294v-434q0 -13 -9 -21.5t-21 -8.5h-177q-12 0 -20.5 8.5t-8.5 21.5v288q0 10 -11 10h-186q-11 0 -11 -10v-288q0 -13 -9 -21.5t-21 -8.5h-176q-13 0 -21.5 8.5t-8.5 21.5v434l-68 -72q-4 -4 -8 0l-6 6q-4 4 0 7l401 420q8 10 21 10t21 -10l401 -420q4 -3 0 -7l-6 -6
q-4 -4 -8 0zM203 -140q0 -11 11 -11h176q11 0 11 11v288q0 12 8.5 21t21.5 9h186q12 0 21 -9t9 -21v-288q0 -11 10 -11h177q10 0 10 11v454l-313 328q-7 8 -15 0l-313 -328v-454z" />
    <glyph glyph-name="U" unicode="U" horiz-adv-x="970" 
d="M316 545v169q0 11 8 18.5t19 7.5h500q11 0 19 -7.5t8 -18.5v-796q0 -5 -5 -5h-9q-5 0 -5 5v796q0 7 -8 7h-500q-8 0 -8 -7v-169q0 -5 -5 -5h-8q-6 0 -6 5zM537 579q22 0 22 22v21q0 22 -22 22h-75q-22 0 -22 -22v-21q0 -22 22 -22h75zM724 579q22 0 22 22v21q0 22 -22 22
h-75q-22 0 -22 -22v-21q0 -22 22 -22h75zM462 596q-5 0 -5 5v21q0 5 5 5h75q5 0 5 -5v-21q0 -5 -5 -5h-75zM649 596q-5 0 -5 5v21q0 5 5 5h75q5 0 5 -5v-21q0 -5 -5 -5h-75zM755 459q0 11 -8 18.5t-19 7.5h-602q-10 0 -18 -7.5t-8 -18.5v-673q0 -12 8.5 -20.5t20.5 -8.5h241
q12 0 20.5 8.5t8.5 20.5v127q0 10 10 10h97q10 0 10 -10v-127q0 -12 8.5 -20.5t20.5 -8.5h181q12 0 20.5 8.5t8.5 20.5v673zM736 -214q0 -10 -10 -10h-181q-10 0 -10 10v127q0 12 -8.5 20.5t-20.5 8.5h-97q-12 0 -20.5 -8.5t-8.5 -20.5v-127q0 -10 -10 -10h-241
q-10 0 -10 10v673q0 7 7 7h602q8 0 8 -7v-673zM297 309q21 0 21 22v21q0 22 -21 22h-76q-21 0 -21 -22v-21q0 -22 21 -22h76zM464 309q21 0 21 22v21q0 22 -21 22h-76q-21 0 -21 -22v-21q0 -22 21 -22h76zM631 309q21 0 21 22v21q0 22 -21 22h-76q-21 0 -21 -22v-21
q0 -22 21 -22h76zM221 326q-5 0 -5 5v21q0 5 5 5h76q4 0 4 -5v-21q0 -5 -4 -5h-76zM388 326q-5 0 -5 5v21q0 5 5 5h76q5 0 5 -5v-21q0 -5 -5 -5h-76zM555 326q-4 0 -4 5v21q0 5 4 5h76q5 0 5 -5v-21q0 -5 -5 -5h-76zM297 169q21 0 21 21v22q0 21 -21 21h-76q-21 0 -21 -21
v-22q0 -21 21 -21h76zM464 169q21 0 21 21v22q0 21 -21 21h-76q-21 0 -21 -21v-22q0 -21 21 -21h76zM631 169q21 0 21 21v22q0 21 -21 21h-76q-21 0 -21 -21v-22q0 -21 21 -21h76zM221 186q-5 0 -5 4v22q0 5 5 5h76q4 0 4 -5v-22q0 -4 -4 -4h-76zM388 186q-5 0 -5 4v22
q0 5 5 5h76q5 0 5 -5v-22q0 -4 -5 -4h-76zM555 186q-4 0 -4 4v22q0 5 4 5h76q5 0 5 -5v-22q0 -4 -5 -4h-76zM297 29q21 0 21 21v22q0 21 -21 21h-76q-21 0 -21 -21v-22q0 -21 21 -21h76zM464 29q21 0 21 21v22q0 21 -21 21h-76q-21 0 -21 -21v-22q0 -21 21 -21h76zM631 29
q21 0 21 21v22q0 21 -21 21h-76q-21 0 -21 -21v-22q0 -21 21 -21h76zM221 45q-5 0 -5 5v22q0 4 5 4h76q4 0 4 -4v-22q0 -5 -4 -5h-76zM388 45q-5 0 -5 5v22q0 4 5 4h76q5 0 5 -4v-22q0 -5 -5 -5h-76zM555 45q-4 0 -4 5v22q0 4 4 4h76q5 0 5 -4v-22q0 -5 -5 -5h-76z" />
    <glyph glyph-name="V" unicode="V" horiz-adv-x="1734" 
d="M895 700q-186 0 -317.5 -131.5t-131.5 -317.5t131.5 -318t317.5 -132t318 132t132 318t-132 317.5t-318 131.5zM895 681q179 0 305 -126t126 -304q0 -88 -34 -167.5t-92 -137.5t-137.5 -92t-167.5 -34q-178 0 -304 126t-126 305q0 117 57.5 216t156.5 156.5t216 57.5z
M1604 146q12 0 21 9t9 21v324q0 74 -41 118t-119 44v-813h19v297h111zM221 -145v442q-50 2 -85.5 35t-35.5 90v223q0 5 5 5h9q5 0 5 -5v-223q0 -40 23 -68t56 -34.5t65.5 0t55.5 34.5t23 68v223q0 5 6 5h8q5 0 5 -5v-223q0 -57 -35.5 -90t-85.5 -35v-442q0 -6 -5 -6h-9
q-5 0 -5 6zM201 428q0 -6 -5 -6h-9q-5 0 -5 6v217q0 5 5 5h9q5 0 5 -5v-217zM279 428q0 -6 -5 -6h-9q-5 0 -5 6v217q0 5 5 5h9q5 0 5 -5v-217zM1493 165v478q54 -3 86 -38q36 -39 36 -105v-324q0 -11 -11 -11h-111zM895 542q-120 0 -205.5 -85t-85.5 -206t85.5 -206
t205.5 -85q121 0 206 85t85 206t-85 206t-206 85zM895 523q113 0 192.5 -79.5t79.5 -192.5t-79.5 -192.5t-192.5 -79.5t-192.5 79.5t-79.5 192.5t79.5 192.5t192.5 79.5z" />
    <glyph glyph-name="W" unicode="W" horiz-adv-x="921" 
d="M168 553q-28 0 -48 -20.5t-20 -48.5t20 -48t48 -20t48.5 20t20.5 48t-20.5 48.5t-48.5 20.5zM168 533q20 0 35 -14.5t15 -34.5t-15 -34.5t-35 -14.5t-34.5 14.5t-14.5 34.5t14.5 34.5t34.5 14.5zM347 475q-5 0 -5 5v9q0 5 5 5h469q5 0 5 -5v-9q0 -5 -5 -5h-469zM168 318
q-28 0 -48 -20.5t-20 -48.5t20 -48t48 -20t48.5 20t20.5 48q0 29 -20.5 49t-48.5 20zM168 299q20 0 35 -14.5t15 -35.5q0 -20 -15 -34.5t-35 -14.5t-34.5 14.5t-14.5 34.5q0 21 14.5 35.5t34.5 14.5zM347 241q-5 0 -5 5v8q0 6 5 6h469q5 0 5 -6v-8q0 -5 -5 -5h-469zM168 83
q-28 0 -48 -20.5t-20 -48.5t20 -48t48 -20t48.5 20t20.5 48t-20.5 48.5t-48.5 20.5zM168 64q20 0 35 -14.5t15 -35.5q0 -20 -15 -34.5t-35 -14.5t-34.5 14.5t-14.5 34.5q0 21 14.5 35.5t34.5 14.5zM347 5q-5 0 -5 5v9q0 5 5 5h469q5 0 5 -5v-9q0 -5 -5 -5h-469z" />
    <glyph glyph-name="X" unicode="X" horiz-adv-x="1060" 
d="M413 105v-128q0 -64 45.5 -109.5t109.5 -45.5h237q64 0 109.5 45.5t45.5 109.5v546q0 64 -45.5 109t-109.5 45h-237q-64 0 -109.5 -45t-45.5 -109v-129q0 -5 5 -5h9q5 0 5 5v129q0 56 40 95.5t96 39.5h237q56 0 95.5 -39.5t39.5 -95.5v-546q0 -56 -39.5 -96t-95.5 -40
h-237q-56 0 -96 40t-40 96v128q0 5 -5 5h-9q-5 0 -5 -5zM277 408q-22 -22 -46.5 -47t-55 -55t-46.5 -46h552q5 0 5 -6v-8q0 -6 -5 -6h-552q25 -24 74.5 -73.5l73.5 -73.5q4 -4 0 -8l-6 -6q-4 -4 -8 0q-52 53 -157 158q-14 13 0 27q24 23 50 49.5t58 58.5l49 49q4 4 8 0l6 -6
q4 -4 0 -7z" />
    <glyph glyph-name="Y" unicode="Y" horiz-adv-x="983" 
d="M337 105v-128q0 -64 45 -109.5t109 -45.5h237q64 0 109.5 45.5t45.5 109.5v546q0 64 -45.5 109t-109.5 45h-237q-64 0 -109 -45t-45 -109v-129q0 -5 5 -5h8q6 0 6 5v129q0 55 40 95t95 40h237q56 0 96 -39.5t40 -95.5v-546q0 -56 -40 -96t-96 -40h-237q-56 0 -95.5 40
t-39.5 96v128q0 5 -6 5h-8q-5 0 -5 -5zM509 408q22 -22 46.5 -47t55 -55t46.5 -46h-552q-5 0 -5 -6v-8q0 -6 5 -6h552l-73.5 -73.5t-74.5 -73.5q-4 -4 0 -8l6 -6q4 -4 8 0q52 53 157 158q13 13 0 27l-157 157q-4 4 -8 0l-6 -6q-4 -4 0 -7z" />
    <glyph glyph-name="Z" unicode="Z" horiz-adv-x="1137" 
d="M318 -59h-67q-62 0 -106.5 44.5t-44.5 107.5v314q0 62 44.5 106.5t106.5 44.5h635q63 0 107 -44.5t44 -106.5v-314q0 -63 -44 -107.5t-107 -44.5h-365l118 -117q3 -4 0 -8l-6 -6q-4 -4 -8 0l-128 129q-13 11 0 24l128 128q4 4 8 0l6 -6q2 -4 0 -7l-118 -118h365
q55 0 93.5 39t38.5 94v314q0 55 -38.5 93.5t-93.5 38.5h-635q-55 0 -93.5 -38.5t-38.5 -93.5v-314q0 -55 38.5 -94t93.5 -39h67q5 0 5 -5v-8q0 -6 -5 -6z" />
    <glyph glyph-name="a" unicode="a" horiz-adv-x="1125" 
d="M262 538q-67 0 -114.5 -47.5t-47.5 -114.5v-399q0 -67 47.5 -114.5t114.5 -47.5h601q67 0 114.5 47.5t47.5 114.5v399q0 67 -47.5 114.5t-114.5 47.5h-130v26q0 58 -31.5 90.5t-88.5 32.5h-101q-57 0 -88.5 -32.5t-31.5 -90.5v-26h-130zM411 538v26q0 50 25.5 77t75.5 27
h101q49 0 75 -27t26 -77v-26h-303zM863 519q59 0 101 -42.5t42 -100.5v-107h-356v65q0 14 -10 23.5t-24 9.5h-108q-14 0 -23.5 -9.5t-9.5 -23.5v-65h-356v107q0 59 42 101t101 42h601zM631 148q0 -6 -4.5 -10.5t-10.5 -4.5h-108q-14 0 -14 15v186q0 14 14 14h108
q15 0 15 -14v-186zM475 148q0 -14 9.5 -24t23.5 -10h108q14 0 24 10t10 24v101h356v-272q0 -59 -42 -101t-101 -42h-601q-59 0 -101 42t-42 101v272h356v-101z" />
    <glyph glyph-name="b" unicode="b" 
d="M532 555q-3 -1 -6 0l-356 111q-5 1 -6 -4l-3 -8q-2 -5 4 -6l355 -111q9 -3 18 0l356 111q4 2 3 6l-3 8q-1 5 -6 4zM139 607q-15 4 -27 -4.5t-12 -23.5v-597q0 -22 21 -28l399 -125q9 -3 18 0l399 125q21 6 21 28v597q0 15 -12 24t-26 4l-388 -121h-6zM127 -28q-8 2 -8 10
v597q0 5 4.5 8t9.5 2l387 -121v-619zM925 589q5 1 9.5 -2t4.5 -8v-597q0 -8 -7 -10l-393 -123v619z" />
    <glyph glyph-name="c" unicode="c" 
d="M138 659q-14 5 -26 -4t-12 -24v-640q0 -22 21 -28l399 -125q9 -3 18 0l399 125q21 6 21 28v640q0 15 -12 23.5t-27 4.5l-387 -121h-6zM126 -19q-7 2 -7 10v640q0 5 4.5 8t9.5 2l386 -121v-662zM925 641q5 1 9.5 -2t4.5 -8v-640q0 -8 -8 -10l-393 -123v662zM434 334
q4 -3 6 3l3 8q1 6 -4 7l-230 72q-6 1 -7 -4l-3 -8q-1 -4 4 -7zM633 334q-5 -3 -6 3l-3 8q-1 6 4 7l230 72q6 1 7 -4l2 -8q2 -4 -3 -7zM434 182q4 -2 6 3l3 9q2 5 -4 6l-230 72q-6 1 -7 -3l-3 -9q-2 -5 4 -6zM633 182q-5 -2 -6 3l-3 9q-2 5 4 6l230 72q6 1 7 -3l2 -9
q3 -4 -3 -6zM434 26q4 -3 6 3l3 8q1 6 -4 7l-230 72q-6 1 -7 -4l-3 -8q-1 -4 4 -7zM633 26q-5 -3 -6 3l-3 8q-1 6 4 7l230 72q6 1 7 -4l2 -8q2 -4 -3 -7z" />
    <glyph glyph-name="d" unicode="d" horiz-adv-x="872" 
d="M243 552q-59 0 -101 -42t-42 -101v-463q0 -59 42 -101.5t101 -42.5h386q59 0 101 42.5t42 101.5v463q0 59 -42 101t-101 42h-57v118q0 12 -8.5 20.5t-20.5 8.5h-214q-12 0 -20.5 -8.5t-8.5 -20.5v-118h-57zM319 670q0 10 10 10h214q10 0 10 -10v-118h-234v118zM629 533
q51 0 87.5 -36t36.5 -88v-463q0 -52 -36.5 -88t-87.5 -36h-386q-51 0 -87.5 36t-36.5 88v463q0 52 36.5 88t87.5 36h57v-120q0 -6 5 -6h9q5 0 5 6v120h234v-120q0 -6 5 -6h8q6 0 6 6v120h57z" />
    <glyph glyph-name="e" unicode="e" horiz-adv-x="1138" 
d="M522 627q0 18 -17 26t-30 -4l-365 -329q-10 -8 -10 -21.5t10 -22.5l365 -328q13 -13 30 -5t17 27v170q310 -3 459 -257q11 -19 34 -13t23 28q-5 267 -129 409t-387 163v157zM503 452q264 -19 387.5 -153.5t128.5 -400.5q0 -8 -9 -10t-13 5q-82 139 -204.5 203t-289.5 64
v-190q0 -7 -5.5 -9.5t-10.5 1.5l-364 328q-9 9 0 16l364 329q5 4 10.5 1t5.5 -9v-175z" />
    <glyph glyph-name="f" unicode="f" horiz-adv-x="1137" 
d="M615 626q0 18 17 26t31 -4l364 -329q10 -8 10 -21.5t-10 -22.5l-364 -328q-14 -13 -31 -5t-17 27v170q-309 -3 -458 -257q-11 -19 -34.5 -13t-22.5 28q5 266 129 408.5t386 163.5v157zM634 451q-264 -19 -387 -153.5t-128 -400.5q-1 -8 8 -10t13 5q82 139 204.5 203
t289.5 64v-190q0 -7 6 -10t10 2l365 328q7 9 0 16l-365 329q-4 4 -10 1t-6 -9v-175z" />
    <glyph glyph-name="g" unicode="g" horiz-adv-x="1123" 
d="M329 52q0 -5 -5 -5q-104 0 -152 27q-80 43 -71 155q5 63 48 108.5t105 45.5h12q9 0 11 10q1 102 61.5 174.5t159.5 91.5q97 19 180.5 -25t120.5 -136q2 -7 10 -7q92 -1 153 -62.5t61 -154.5q0 -94 -53.5 -159t-146.5 -68q-5 0 -5 5v9q0 5 5 5q85 3 133 62t48 146
q0 85 -55.5 141t-140.5 57q-19 0 -27 19q-34 85 -111.5 126t-168.5 24q-92 -18 -148 -85.5t-57 -162.5q0 -12 -9 -20.5t-21 -8.5h-12q-55 0 -92.5 -40.5t-41.5 -96.5q-7 -99 61 -136q45 -25 143 -25q5 0 5 -5v-9zM737 28q-77 -75 -152 -152q-11 -11 -22 0l-152 152q-4 4 0 8
l6 6q3 4 7 0l140 -140v372q0 5 5 5h9q5 0 5 -5v-372q71 69 140 140q4 4 8 0l6 -6q4 -4 0 -8z" />
    <glyph glyph-name="h" unicode="h" horiz-adv-x="1123" 
d="M329 53q0 -5 -5 -5q-103 0 -152 27q-78 43 -71 155q5 63 48 108.5t105 45.5h12q11 0 11 10q1 102 61.5 174.5t159.5 91.5q97 19 180.5 -25t120.5 -136q3 -7 10 -7q92 -1 153 -62.5t61 -154.5q0 -94 -53.5 -159t-145.5 -68q-6 0 -6 5v9q0 5 6 5q84 3 132 62t48 146
q0 85 -55 141t-140 57q-20 0 -28 19q-34 85 -111.5 126t-168.5 24q-92 -18 -148 -85.5t-57 -162.5q0 -12 -8.5 -20.5t-21.5 -8.5h-12q-54 0 -91.5 -40.5t-42.5 -96.5q-7 -99 61 -136q45 -25 143 -25q5 0 5 -5v-9zM737 148l-152 152q-11 11 -22 0l-48 -48t-56 -56.5
t-48 -47.5q-4 -4 0 -8l6 -6q4 -4 8 0q20 21 43.5 44t52 51.5l44.5 44.5v-372q0 -5 5 -5h8q6 0 6 5v372l140 -140q3 -4 7 0l6 6q4 4 0 8z" />
    <glyph glyph-name="i" unicode="i" horiz-adv-x="1060" 
d="M626 571q-5 1 -7 8l-17 76q-4 21 -26 23q-46 4 -92 0q-21 -2 -26 -23l-16 -76q-2 -6 -8 -8q-38 -12 -62 -26q-6 -3 -11 0l-66 42q-19 12 -34 -2q-32 -25 -66 -65q-14 -17 -2 -35l42 -65q4 -5 1 -11q-17 -32 -26 -63q-1 -5 -8 -7l-76 -16q-21 -5 -23 -26q-6 -47 0 -93
q2 -21 23 -26l76 -16q6 -2 8 -8q9 -31 26 -62q3 -7 -1 -11l-42 -65q-12 -18 2 -35q29 -37 66 -66q16 -13 34 -2l66 42q4 4 11 1q30 -17 62 -26q6 -2 8 -8l16 -76q5 -21 26 -23q46 -6 92 0q23 2 26 23l17 76q2 7 7 8q31 9 63 26q5 3 11 -1l65 -42q18 -12 35 2q40 34 65 66
q14 17 2 35l-42 65q-3 5 0 11q16 32 26 62q2 6 8 8l75 16q21 5 24 26q4 46 0 93q-3 21 -24 26l-75 16q-7 1 -8 7q-10 30 -26 63q-3 5 0 11l42 65q12 18 -2 35q-29 36 -65 65q-16 14 -35 2l-65 -42q-6 -3 -11 0q-26 14 -63 26zM621 553q34 -12 59 -25q16 -9 30 1l65 42
q7 5 13 0q36 -30 62 -63q5 -7 1 -13l-42 -65q-9 -14 -1 -30q15 -28 24 -59q4 -16 23 -21l75 -16q7 -1 9 -9q5 -44 0 -89q-1 -8 -9 -9l-75 -17q-16 -3 -23 -20q-8 -29 -24 -59q-8 -16 1 -30l42 -66q5 -6 -1 -12q-29 -37 -62 -63q-6 -4 -13 -1l-65 42q-15 10 -30 2
q-32 -17 -59 -25q-18 -5 -21 -22l-16 -76q-2 -8 -10 -8q-44 -5 -88 0q-8 0 -10 8l-16 76q-3 17 -20 22q-29 8 -59 25q-15 8 -31 -2l-65 -42q-7 -4 -12 1q-35 28 -63 63q-5 5 -1 12l42 66q10 15 1 30q-16 30 -24 59q-5 17 -22 20l-76 17q-8 1 -9 9q-5 45 0 89q2 8 9 9l76 16
q18 5 22 21q9 31 24 59q9 15 -1 30l-42 65q-3 7 1 13q24 31 63 63q5 5 12 0l65 -42q15 -9 31 -1q24 13 59 25q17 5 20 22l16 76q2 8 10 8q44 5 88 0q8 0 10 -8l16 -76q3 -17 21 -22zM530 415q-68 0 -116.5 -48.5t-48.5 -116.5t48.5 -116.5t116.5 -48.5t116.5 48.5
t48.5 116.5t-48.5 116.5t-116.5 48.5zM530 396q61 0 103.5 -42.5t42.5 -103.5q0 -60 -42.5 -102.5t-103.5 -42.5q-60 0 -103 42.5t-43 102.5q0 61 43 103.5t103 42.5z" />
    <glyph glyph-name="j" unicode="j" horiz-adv-x="1020" 
d="M891 655q-86 17 -186.5 -7t-157.5 -82q-89 -88 -130 -275q-1 -9 -11 -9l-114 6q-14 2 -23 -8l-98 -99q-12 -11 -8.5 -27t19.5 -22l150 -54q5 -2 6 -7l55 -150q5 -15 21 -18.5t28 8.5l98 98q9 9 9 23l-7 114q0 7 9 11q186 40 276 129q56 56 79 158t9 187q-3 21 -24 24z
M888 636q8 -2 8 -8q14 -81 -8 -178t-75 -150q-87 -87 -266 -125q-24 -5 -24 -30l7 -115l-3 -8l-99 -98q-4 -5 -10 -3.5t-8 7.5l-54 150q-5 14 -18 18l-150 54q-5 2 -6.5 8t2.5 10l99 98q4 4 8 3l114 -6q24 -2 31 23q39 182 124 267q55 55 151 77t177 6zM800 457
q0 34 -24 58.5t-58 24.5t-58.5 -24t-24.5 -59q0 -34 24.5 -58t58.5 -24t58 24t24 58zM718 520q26 0 44.5 -18.5t18.5 -44.5t-18.5 -44.5t-44.5 -18.5t-45 18.5t-19 44.5t19 44.5t45 18.5zM329 -66q4 4 0 7l-6 6q-5 3 -7 0q-33 -37 -84 -60t-102 -26q-5 -1 -8.5 2.5t-2.5 8.5
q3 51 26 102t60 84q4 3 0 7l-5 6q-4 4 -8 1q-40 -35 -64.5 -89.5t-27.5 -109.5q-1 -14 8.5 -23t22.5 -8q55 3 109 27.5t89 64.5z" />
    <glyph glyph-name="k" unicode="k" horiz-adv-x="823" 
d="M543 548q4 -3 8 0l6 6q4 4 0 8l-133 133q-13 13 -24 0l-133 -133q-4 -4 0 -8l6 -6q3 -2 7 0l122 122v-523q0 -5 5 -5h9q5 0 5 5v523zM311 403q5 0 5 6v8q0 5 -5 5h-59q-63 0 -107.5 -44.5t-44.5 -106.5v-320q0 -62 44.5 -106.5t107.5 -44.5h320q62 0 106.5 44.5
t44.5 106.5v320q0 62 -44.5 106.5t-106.5 44.5h-60q-5 0 -5 -5v-8q0 -6 6 -6h59q55 0 93.5 -38.5t38.5 -93.5v-320q0 -55 -38.5 -93.5t-93.5 -38.5h-320q-55 0 -93.5 38.5t-38.5 93.5v320q0 55 38.5 93.5t93.5 38.5h59z" />
    <glyph glyph-name="l" unicode="l" horiz-adv-x="822" 
d="M543 224q3 4 7 0l6 -6q4 -4 0 -7l-133 -133q-12 -12 -24 0l-133 133q-4 3 0 7l6 6q4 4 8 0l122 -122v523q0 6 5 6h8q6 0 6 -6v-523zM311 403q5 0 5 6v8q0 5 -5 5h-60q-62 0 -106.5 -44.5t-44.5 -106.5v-320q0 -62 44.5 -106.5t106.5 -44.5h320q63 0 107 44.5t44 106.5
v320q0 62 -44 106.5t-107 44.5h-59q-5 0 -5 -5v-8q0 -6 5 -6h59q55 0 93.5 -38.5t38.5 -93.5v-320q0 -55 -38.5 -93.5t-93.5 -38.5h-320q-55 0 -93.5 38.5t-38.5 93.5v320q0 55 38.5 93.5t93.5 38.5h60z" />
    <glyph glyph-name="m" unicode="m" horiz-adv-x="1036" 
d="M326 63q-5 2 -4 7q54 217 200 317q141 96 384 92l-130 130q-4 4 0 8l6 6q3 3 7 0l142 -142q12 -12 0 -24l-146 -146q-4 -4 -8 0l-6 6q-4 4 0 7l136 136q-239 5 -374 -89q-140 -95 -193 -306q-1 -5 -6 -4zM251 487h182q5 0 5 6v8q0 6 -5 6h-182q-62 0 -107 -45
q-44 -44 -44 -107v-336q0 -61 44 -107q46 -44 107 -44h508q63 0 107 44q44 46 44 107v210q0 5 -5 5h-8q-6 0 -6 -5v-210q0 -55 -38 -93q-39 -39 -94 -39h-508q-54 0 -93 39t-39 93v336q0 55 39 94q38 38 93 38z" />
    <glyph glyph-name="n" unicode="n" horiz-adv-x="1073" 
d="M294 -9h-188q-6 0 -6 -5v-9q0 -5 6 -5h188q16 0 24 13l365 519q3 4 8 4h253q-59 -57 -116 -116q-4 -3 0 -7l6 -6q4 -3 7 0q19 19 40.5 40t47 47t39.5 40q12 12 0 24l-127 127q-4 2 -7 0l-6 -6q-4 -4 0 -8l116 -116h-253q-15 0 -24 -12l-364 -519q-3 -5 -9 -5zM106 508
h188q6 0 9 -4q24 -35 69.5 -99.5t54.5 -78.5q4 -4 8 -1l7 5q4 3 1 7l-125 178q-8 12 -24 12h-188q-6 0 -6 -5v-8q0 -6 6 -6zM561 169q9 -13 53.5 -76.5t68.5 -96.5q3 -5 8 -5h253l-116 116q-4 3 0 7l6 6q4 4 7 0q64 -63 127 -127q13 -11 0 -23q-63 -64 -127 -127q-3 -3 -7 0
l-6 6q-4 3 0 7q17 17 36 36.5t43 43t37 36.5h-253q-15 0 -24 13l-121 172q-2 5 1 8l7 5q4 3 7 -1z" />
    <glyph glyph-name="o" unicode="o" horiz-adv-x="957" 
d="M311 321q-35 47 -93 47q-49 0 -83.5 -34.5t-34.5 -83.5q0 -48 34.5 -82.5t83.5 -34.5q62 0 97 52l317 -163q-10 -23 -10 -47q0 -49 34.5 -83t83.5 -34q48 0 82.5 34t34.5 83t-34.5 83t-82.5 34q-64 0 -99 -53l-317 163q11 22 11 48q0 29 -13 55l316 162q34 -59 102 -59
q48 0 82.5 34.5t34.5 83.5q0 48 -34.5 82.5t-82.5 34.5q-49 0 -83.5 -34.5t-34.5 -82.5q0 -22 8 -41zM740 624q40 0 69 -29t29 -69q0 -41 -28.5 -70t-69.5 -29t-70 29t-29 70t29 69.5t70 28.5zM218 349q41 0 69.5 -29t28.5 -70q0 -40 -29 -69t-69 -29q-41 0 -70 28.5
t-29 69.5t29 70t70 29zM740 73q40 0 69 -28.5t29 -69.5t-29 -69.5t-69 -28.5q-41 0 -70 28.5t-29 69.5t29 69.5t70 28.5z" />
    <glyph glyph-name="p" unicode="p" 
d="M529 679q-178 0 -303.5 -125.5t-125.5 -303.5t125.5 -303.5t303.5 -125.5t303.5 125.5t125.5 303.5t-125.5 303.5t-303.5 125.5zM529 660q170 0 290 -120t120 -290t-120 -290t-290 -120q-169 0 -289.5 120t-120.5 290t120 290t290 120zM363 384q43 116 174 116
q75 0 119.5 -41.5t44.5 -103.5q0 -43 -17 -76.5t-33.5 -47.5t-48.5 -36q-25 -17 -38.5 -29t-26.5 -36t-13 -53q0 -6 -6 -6h-7q-5 0 -5 6q0 35 14 62t28.5 39.5t42.5 31.5q29 20 44 33t30 43t15 69q0 54 -38.5 90t-105.5 36q-115 0 -155 -104q-1 -6 -7 -3l-8 3q-5 1 -3 7z
M517 7q13 0 13 -14v-4q0 -8 -2.5 -10.5t-10.5 -2.5h-3q-8 0 -11 2.5t-3 10.5v4q0 14 14 14h3z" />
    <glyph glyph-name="q" unicode="q" horiz-adv-x="867" 
d="M100 -168v790q0 25 24 30q56 9 110.5 4.5t97.5 -19.5t91 -29.5t91.5 -23.5t98.5 -2.5t112 32.5q15 7 28.5 -2t13.5 -25v-356q0 -19 -17 -27q-63 -32 -122.5 -41.5t-105 0t-95.5 23.5t-93.5 30.5t-100 21t-114.5 -6.5v-399q0 -6 -5 -6h-9q-5 0 -5 6zM119 250
q59 10 115 5.5t100 -20.5t93 -30t94 -23t102.5 0t118.5 39q6 3 6 10v356q0 6 -5 9t-10 0q-60 -27 -116.5 -34t-100.5 2t-92 23.5t-90.5 29.5t-96.5 20t-109 -4q-9 -2 -9 -11v-372z" />
    <glyph glyph-name="r" unicode="r" horiz-adv-x="950" 
d="M722 48h98q13 0 21.5 8.5t8.5 20.5v516q0 13 -8.5 21.5t-21.5 8.5h-515q-13 0 -21.5 -8.5t-8.5 -21.5v-102q0 -5 5 -5h9q5 0 5 5v102q0 11 11 11h515q11 0 11 -11v-516q0 -10 -11 -10h-98q-5 0 -5 -6v-8q0 -5 5 -5zM129 448q-12 0 -20.5 -9t-8.5 -21v-516q0 -12 8.5 -21
t20.5 -9h516q13 0 21.5 9t8.5 21v516q0 12 -8.5 21t-21.5 9h-516zM645 429q11 0 11 -11v-516q0 -10 -11 -10h-516q-10 0 -10 10v516q0 11 10 11h516z" />
    <glyph glyph-name="s" unicode="s" horiz-adv-x="1091" 
d="M676 658q-42 0 -78.5 -23t-51.5 -61q-16 38 -52.5 61t-78.5 23h-286q-12 0 -20.5 -8.5t-8.5 -20.5v-672q0 -12 8.5 -20.5t20.5 -8.5h284q83 0 116 -83q5 -11 17 -11t16 11q33 83 116 83h284q12 0 20.5 8.5t8.5 20.5v672q0 12 -8.5 20.5t-20.5 8.5h-286zM536 -125
q-41 72 -123 72h-284q-10 0 -10 10v672q0 10 10 10h286q48 0 84.5 -32.5t36.5 -79.5v-652zM555 527q0 47 36.5 79.5t84.5 32.5h286q10 0 10 -10v-672q0 -10 -10 -10h-284q-82 0 -123 -72v652z" />
    <glyph glyph-name="t" unicode="t" horiz-adv-x="1001" 
d="M899 569q-7 37 -37 67t-67 37q-37 9 -62 -16l-383 -383q-5 -5 -6 -10l-41 -162q-3 -11 6 -20t20 -6l161 42q7 2 11 6l383 383q23 24 15 62zM881 566q5 -30 -11 -45l-383 -383l-2 -2l-160 -41q-1 -1 -2.5 0t-0.5 3l41 161q0 1 1 2l383 383q16 16 45 11q31 -6 57 -32
t32 -57zM522 560h-392q-11 0 -11 -11v-686q0 -11 11 -11h635q11 0 11 11q0 70 -0.5 209.5t-0.5 209.5q0 5 6 5h8q6 0 6 -5v-419q0 -12 -9 -21t-21 -9h-635q-12 0 -21 9t-9 21v686q0 13 9 21.5t21 8.5h392q5 0 5 -5v-9q0 -5 -5 -5z" />
    <glyph glyph-name="u" unicode="u" horiz-adv-x="1056" 
d="M954 530q-10 52 -53 94.5t-95 52.5q-53 10 -85 -22l-553 -553q-7 -7 -8 -14l-59 -233q-4 -14 7 -25t25 -7l232 60q7 1 13 7l554 554q32 32 22 86zM803 658q46 -8 85 -47t47 -85q8 -44 -16 -68l-64 -64q-19 63 -70 113.5t-114 70.5l64 64q24 24 68 16zM656 563
q64 -16 116 -68t68 -116l-467 -467q-19 63 -70 114t-114 70zM129 -159q-5 -1 -8 2t-2 8l58 228q62 -17 112 -67t67 -112z" />
    <glyph glyph-name="v" unicode="v" horiz-adv-x="1104" 
d="M100 312q0 -13 8.5 -22t21.5 -9h358q13 0 21.5 8.5t8.5 21.5v358q0 13 -9 22t-22 8q-157 -8 -268 -119t-119 -268zM119 311q8 149 114 255t255 114q11 0 11 -11v-358q0 -11 -11 -11h-358q-11 0 -11 11zM205 191q0 5 -5 5h-8q-6 -2 -6 -6q6 -165 125 -279.5t284 -114.5
q169 0 289 120t120 289q0 165 -114.5 284t-278.5 125q-6 0 -6 -5v-9q0 -5 5 -5q157 -6 266 -119.5t109 -270.5q0 -161 -114.5 -275t-275.5 -114q-158 0 -271 109t-119 266z" />
    <glyph glyph-name="w" unicode="w" horiz-adv-x="1165" 
d="M768 452q0 63 -44.5 107.5t-107.5 44.5h-365q-62 0 -106.5 -44.5t-44.5 -107.5v-405q0 -62 44.5 -106.5t106.5 -44.5h365q63 0 107.5 44.5t44.5 106.5v70q0 7 5 10t11 0l238 -125q14 -8 28.5 1.5t14.5 25.5v442q0 16 -14.5 25.5t-28.5 1.5l-235 -124q-5 -3 -9 -3t-7 2.5
t-3 8.5v70zM749 382q0 -19 15 -26.5t31 1.5l236 124q5 3 10 -0.5t5 -9.5v-442q0 -6 -5 -9.5t-10 -0.5l-238 124q-16 8 -30 0t-14 -26v-70q0 -55 -39 -93.5t-94 -38.5h-365q-55 0 -93.5 38.5t-38.5 93.5v405q0 55 38.5 94t93.5 39h365q55 0 94 -39t39 -94v-70z" />
    <glyph glyph-name="x" unicode="x" horiz-adv-x="792" 
d="M234 260q0 -51 24 -88.5t60 -54t78 -16.5t78 16.5t60 54t24 88.5v259q0 51 -24 88.5t-60 54t-78 16.5t-78 -16.5t-60 -54t-24 -88.5v-259zM254 519q0 45 21 77.5t53 47.5t68.5 15t68.5 -15t53 -47.5t21 -77.5v-259q0 -67 -44.5 -104.5t-98 -37.5t-98 37.5t-44.5 104.5
v259zM692 384v-124q0 -134 -84.5 -210t-201.5 -79v-128h158q6 0 6 -5v-9q0 -5 -6 -5h-336q-5 0 -5 5v9q0 5 5 5h159v128q-118 3 -202 79t-84 210q0 20 -0.5 62t-0.5 62q0 5 6 5h8q6 0 6 -5v-124q0 -65 24 -117.5t62.5 -85t88.5 -50t101.5 -17.5t101.5 17.5t88.5 50t62.5 85
t24 117.5v124q0 5 5 5h9q5 0 5 -5z" />
    <glyph glyph-name="y" unicode="y" horiz-adv-x="1100" 
d="M530 -115q8 -9 20 -9t20 9l374 390q78 81 49 189q-24 88 -103 141q-93 63 -191 27q-54 -21 -100 -72l-42 -47q-7 -7 -14 0l-42 47q-94 105 -211 80q-90 -19 -147 -100q-61 -88 -37 -179q13 -48 50 -86zM529 501q8 -10 21 -10t21 10l42 47q88 99 199 72q83 -20 133 -97
q56 -85 26 -170q-12 -36 -41 -66l-374 -389q-6 -8 -12 0l-374 389q-73 76 -43 177q25 83 99 129q91 58 183 15q42 -20 78 -60z" />
    <glyph glyph-name="z" unicode="z" horiz-adv-x="1087" 
d="M836 562q63 0 107 -44.5t44 -107.5v-432q0 -62 -44 -106.5t-107 -44.5h-584q-63 0 -107.5 44.5t-44.5 106.5v432q0 63 44.5 107.5t107.5 44.5h132v103q0 5 6 5h8q5 0 5 -5v-103h281v103q0 5 6 5h8q6 0 6 -5v-103h132zM684 543h-281v-74q0 -6 -5 -6h-8q-6 0 -6 6v74h-132
q-55 0 -94 -39t-39 -94v-432q0 -54 39 -93t94 -39h584q55 0 93.5 39t38.5 93v432q0 55 -38.5 94t-93.5 39h-132v-74q0 -6 -6 -6h-8q-6 0 -6 6v74zM310 360q-29 0 -49.5 -20t-20.5 -49t20.5 -49.5t49.5 -20.5t49 20.5t20 49.5t-20.5 49t-48.5 20zM544 360q-28 0 -48.5 -20
t-20.5 -49t20 -49.5t49 -20.5t49.5 20.5t20.5 49.5t-20.5 49t-49.5 20zM778 360q-28 0 -48.5 -20t-20.5 -49t20 -49.5t49 -20.5t49.5 20.5t20.5 49.5t-20.5 49t-49.5 20zM310 341q21 0 35.5 -14.5t14.5 -35.5t-14.5 -36t-35.5 -15t-36 15t-15 36t15 35.5t36 14.5zM544 341
q21 0 36 -14.5t15 -35.5t-15 -36t-36 -15t-35.5 15t-14.5 36t14.5 35.5t35.5 14.5zM778 341q21 0 36 -14.5t15 -35.5t-15 -36t-36 -15t-35.5 15t-14.5 36t14.5 35.5t35.5 14.5zM310 149q-29 0 -49.5 -20t-20.5 -49t20.5 -49.5t49.5 -20.5t49 20.5t20 49.5q0 28 -20.5 48.5
t-48.5 20.5zM544 149q-28 0 -48.5 -20.5t-20.5 -48.5q0 -29 20 -49.5t49 -20.5t49.5 20.5t20.5 49.5t-20.5 49t-49.5 20zM778 149q-28 0 -48.5 -20.5t-20.5 -48.5q0 -29 20 -49.5t49 -20.5t49.5 20.5t20.5 49.5t-20.5 49t-49.5 20zM310 130q21 0 35.5 -15t14.5 -35
q0 -21 -14.5 -36t-35.5 -15t-36 15t-15 36q0 20 15 35t36 15zM544 130q21 0 36 -15t15 -35q0 -21 -15 -36t-36 -15t-35.5 15t-14.5 36q0 20 14.5 35t35.5 15zM778 130q21 0 36 -15t15 -35q0 -21 -15 -36t-36 -15t-35.5 15t-14.5 36q0 20 14.5 35t35.5 15z" />
  </font>
</defs>
</svg>
