<?xml version="1.0" standalone="no"?>
<!DOCTYPE svg PUBLIC "-//W3C//DTD SVG 1.1//EN" "http://www.w3.org/Graphics/SVG/1.1/DTD/svg11.dtd" >
<svg xmlns="http://www.w3.org/2000/svg" xmlns:xlink="http://www.w3.org/1999/xlink" version="1.1">
<metadata>
Created by FontForge 20170731 at Thu Nov 13 12:42:41 2014
 By Aleksey,,,
copyright missing
</metadata>
<defs>
<font id="PantonIcons-CFillLight" horiz-adv-x="1058" >
  <font-face 
    font-family="Panton Icons C Fill Light"
    font-weight="400"
    font-stretch="normal"
    units-per-em="1000"
    panose-1="0 0 5 0 0 0 0 0 0 0"
    ascent="750"
    descent="-250"
    x-height="604"
    cap-height="679"
    bbox="93 -250 1634 750"
    underline-thickness="50"
    underline-position="-200"
    unicode-range="U+0020-007A"
  />
<missing-glyph horiz-adv-x="500" 
d="M410 -250h-317v1000h317v-1000zM168 683v-33h65v-37h-66v-33h166v33h-66v37h66v33h-165zM167 554v-104h166v34h-66v70h-100zM233 484h-33v36h33v-36zM167 423v-33h66v-37h-66v-33h100v70h66v33h-166zM300 363v-66h-133v-34h166v100h-33zM233 241v-56h34v23h33v-47h-100
v80h-33v-113h166v113h-100zM167 68v-113h166v113h-166zM300 -12h-100v47h100v-47zM167 -68v-33h70l-70 -47v-33h166v33h-102l70 47h32v33h-166z" />
    <glyph glyph-name=".notdef" horiz-adv-x="500" 
d="M410 -250h-317v1000h317v-1000zM168 683v-33h65v-37h-66v-33h166v33h-66v37h66v33h-165zM167 554v-104h166v34h-66v70h-100zM233 484h-33v36h33v-36zM167 423v-33h66v-37h-66v-33h100v70h66v33h-166zM300 363v-66h-133v-34h166v100h-33zM233 241v-56h34v23h33v-47h-100
v80h-33v-113h166v113h-100zM167 68v-113h166v113h-166zM300 -12h-100v47h100v-47zM167 -68v-33h70l-70 -47v-33h166v33h-102l70 47h32v33h-166z" />
    <glyph glyph-name=".null" horiz-adv-x="0" 
 />
    <glyph glyph-name="nonmarkingreturn" horiz-adv-x="333" 
 />
    <glyph glyph-name="space" unicode=" " horiz-adv-x="0" 
 />
    <glyph glyph-name="A" unicode="A" horiz-adv-x="1072" 
d="M744 650q-10 0 -18 -8t-8 -18v-751q0 -11 7.5 -19t18.5 -8h202q11 0 18.5 8t7.5 19v751q0 10 -8 18t-18 8h-202zM126 368q-10 0 -18 -8t-8 -18v-469q0 -11 7.5 -19t18.5 -8h202q11 0 18.5 8t7.5 19v469q0 10 -8 18t-18 8h-202zM435 199q-11 0 -18.5 -7.5t-7.5 -18.5v-300
q0 -11 7.5 -19t18.5 -8h202q11 0 18.5 8t7.5 19v300q0 11 -7.5 18.5t-18.5 7.5h-202z" />
    <glyph glyph-name="B" unicode="B" 
d="M529 679q-178 0 -303.5 -125.5t-125.5 -303.5t125.5 -303.5t303.5 -125.5t303.5 125.5t125.5 303.5t-125.5 303.5t-303.5 125.5zM682 274q-72 71 -143 143v-360q0 -5 -5 -5h-9q-5 0 -5 5v360l-143 -143q-4 -4 -8 0l-6 7q-3 3 0 7l155 155q11 11 22 0q78 -77 155 -155
q3 -4 0 -7l-6 -7q-3 -4 -7 0z" />
    <glyph glyph-name="C" unicode="C" 
d="M958 250q0 178 -125.5 303.5t-303.5 125.5t-303.5 -125.5t-125.5 -303.5t125.5 -303.5t303.5 -125.5t303.5 125.5t125.5 303.5zM553 97l143 143h-359q-6 0 -6 6v8q0 5 6 5h359l-143 143q-4 4 0 8l7 6q4 4 8 0l155 -155q11 -11 0 -22l-155 -155q-4 -4 -8 0l-7 6q-3 4 0 7z
" />
    <glyph glyph-name="D" unicode="D" horiz-adv-x="1059" 
d="M100 250q0 178 125.5 303.5t303.5 125.5t304 -125.5t126 -303.5t-126 -303.5t-304 -125.5t-303.5 125.5t-125.5 303.5zM505 97q-71 72 -143 143h360q5 0 5 6v8q0 5 -5 5h-360l143 143q4 4 0 8l-7 6q-3 4 -7 0l-155 -155q-11 -11 0 -22q17 -17 48.5 -49t57.5 -57.5
t49 -48.5q4 -4 7 0l7 6q3 4 0 7z" />
    <glyph glyph-name="E" unicode="E" 
d="M529 -179q-178 0 -303.5 125.5t-125.5 303.5t125.5 303.5t303.5 125.5t303.5 -125.5t125.5 -303.5t-125.5 -303.5t-303.5 -125.5zM682 226l-143 -143v359q0 6 -5 6h-9q-5 0 -5 -6v-359q-16 16 -45.5 45t-53 53t-44.5 45q-4 4 -8 0l-6 -7q-4 -4 0 -8q78 -77 155 -155
q11 -11 22 0l155 155q4 4 0 8l-6 7q-3 4 -7 0z" />
    <glyph glyph-name="F" unicode="F" horiz-adv-x="1020" 
d="M800 -40q-120 -120 -290 -120t-290 120t-120 290t120 290t290 120t290 -120t120 -290t-120 -290zM306 468q-4 4 -8 1l-6 -6q-4 -4 0 -8l423 -423q4 -4 8 0l6 6q3 4 -1 8z" />
    <glyph glyph-name="G" unicode="G" 
d="M529 -179q178 0 303.5 125.5t125.5 303.5t-125.5 303.5t-303.5 125.5t-303.5 -125.5t-125.5 -303.5t125.5 -303.5t303.5 -125.5zM488 91q-12 -12 -24 0l-150 154q-4 4 0 8l6 6q4 4 8 0l148 -152q45 49 133.5 149.5t132.5 149.5q4 4 8 1l6 -6q4 -3 1 -7z" />
    <glyph glyph-name="H" unicode="H" 
d="M529 -179q178 0 303.5 125.5t125.5 303.5t-125.5 303.5t-303.5 125.5t-303.5 -125.5t-125.5 -303.5t125.5 -303.5t303.5 -125.5zM305 45q73 69 219 209v200q0 6 5 6h8q6 0 6 -6v-204v-4l-3 -3l-221 -212q-4 -4 -8 0l-6 6q-3 4 0 8z" />
    <glyph glyph-name="I" unicode="I" horiz-adv-x="1059" 
d="M529 -179q178 0 304 125.5t126 303.5t-126 303.5t-304 125.5t-303.5 -125.5t-125.5 -303.5t125.5 -303.5t303.5 -125.5zM516 250l-154 153q-3 4 0 8l6 6q4 4 8 0l153 -154l154 154q4 4 7 0l6 -6q4 -4 0 -8l-153 -153l153 -154q4 -3 0 -7l-6 -6q-3 -4 -7 0l-154 153
l-153 -153q-4 -4 -8 0l-6 6q-3 4 0 7z" />
    <glyph glyph-name="J" unicode="J" horiz-adv-x="868" 
d="M762 640q6 0 6 -6v-769q0 -5 -6 -5h-8q-5 0 -5 5v769q0 6 5 6h8zM707 275q7 -5 10 -11q4 -5 4 -14q0 -8 -4 -15q-3 -7 -10 -10l-561 -354q-7 -4 -15 -4q-6 -1 -15 3q-7 4 -12 11q-4 12 -4 15v707q0 7 4 15q4 6 12 11q5 4 15 4q7 0 15 -5z" />
    <glyph glyph-name="K" unicode="K" horiz-adv-x="1065" 
d="M454 -35q0 -17 15 -26t30 1l453 285q13 8 13 24.5t-13 25.5l-453 285q-15 9 -30 0.5t-15 -25.5v-152q0 -6 -5.5 -8.5t-10.5 -0.5l-294 186q-14 9 -29 0.5t-15 -25.5v-570q0 -17 15 -26t29 1l294 185q5 3 10.5 0.5t5.5 -9.5v-151z" />
    <glyph glyph-name="L" unicode="L" horiz-adv-x="795" 
d="M128 623q-11 0 -19.5 -8.5t-8.5 -20.5v-695q0 -12 8.5 -20t19.5 -8h180q12 0 20.5 8t8.5 20v695q0 12 -9 20.5t-20 8.5h-180zM487 623q-12 0 -20.5 -8.5t-8.5 -20.5v-695q0 -12 8.5 -20t20.5 -8h179q12 0 20.5 8t8.5 20v695q0 12 -8.5 20.5t-20.5 8.5h-179z" />
    <glyph glyph-name="M" unicode="M" horiz-adv-x="821" 
d="M707 275q13 -9 13 -25.5t-13 -24.5l-561 -354q-15 -9 -30.5 -0.5t-15.5 26.5v706q0 17 15 26t31 -1z" />
    <glyph glyph-name="N" unicode="N" horiz-adv-x="1065" 
d="M611 116q0 7 5.5 9.5t10.5 -0.5l294 -185q14 -10 29 -1t15 26v570q0 17 -15 25.5t-29 -0.5l-294 -186q-5 -2 -10.5 0.5t-5.5 8.5v152q0 17 -15 25.5t-30 -0.5l-453 -285q-13 -9 -13 -25.5t13 -24.5l453 -285q15 -10 30 -1t15 26v151z" />
    <glyph glyph-name="O" unicode="O" horiz-adv-x="868" 
d="M114 641q5 0 5 -6v-769q0 -5 -5 -5h-8q-6 0 -6 5v769q0 6 6 6h8zM764 619q4 -8 4 -15v-707q0 -3 -4 -15q-5 -7 -12 -11q-9 -4 -15 -3q-8 0 -15 4l-561 354q-7 3 -10 10q-4 7 -4 15q0 9 4 14q3 6 10 11l561 353q8 5 15 5q10 0 15 -4q8 -5 12 -11z" />
    <glyph glyph-name="P" unicode="P" horiz-adv-x="990" 
d="M850 644q18 7 31 -6.5t7 -31.5l-254 -730q-7 -20 -28 -20t-29 19l-129 323q-3 5 -7 6l-322 130q-19 8 -19 28.5t20 27.5z" />
    <glyph glyph-name="Q" unicode="Q" horiz-adv-x="1076" 
d="M226 350q45 -4 76 -37t31 -79t-31 -79.5t-76 -36.5v-311q0 -5 -6 -5h-8q-5 0 -5 5v311q-45 3 -76 36.5t-31 79.5t31 79t76 37v338q0 5 5 5h8q6 0 6 -5v-338zM547 174q45 -4 76 -37t31 -79t-31 -79.5t-76 -37.5v-134q0 -5 -5 -5h-9q-5 0 -5 5v134q-45 4 -76 37.5t-31 79.5
t31 79t76 37v514q0 5 5 5h9q5 0 5 -5v-514zM869 572q45 -4 76 -37t31 -79t-31 -79.5t-76 -36.5v-533q0 -5 -6 -5h-8q-6 0 -6 5v533q-45 3 -76 36.5t-31 79.5t31 79t76 37v116q0 5 6 5h8q6 0 6 -5v-116z" />
    <glyph glyph-name="R" unicode="R" horiz-adv-x="1280" 
d="M1153 633q27 -27 27 -67q0 -39 -27 -66q-28 -28 -67 -28q-23 0 -43 11l-155 -235q35 -29 35 -72q0 -39 -27.5 -66.5t-66.5 -27.5t-66.5 27.5t-27.5 66.5q0 13 3 25l-204 82q-26 -50 -83 -50q-25 0 -46 12l-150 -212q1 -1 2.5 -2t2.5 -2q27 -27 27 -67q0 -39 -27 -66
q-28 -28 -66 -28q-39 0 -67 28q-27 27 -27 66q0 40 27 67t67 27q25 0 46 -12l149 212q-32 29 -32 71q0 38 27.5 65.5t66.5 27.5t66.5 -27.5t27.5 -65.5q0 -15 -4 -26l204 -82q27 50 84 50q24 0 43 -10l155 235q-3 2 -7 6q-28 28 -28 66q0 39 28 67q27 27 66 27q40 0 67 -27z
" />
    <glyph glyph-name="S" unicode="S" horiz-adv-x="1006" 
d="M130 658q-13 0 -21.5 -8.5t-8.5 -21.5v-270q0 -12 8.5 -21t21.5 -9h270q12 0 21 9t9 21v270q0 13 -9 21.5t-21 8.5h-270zM606 658q-12 0 -21 -8.5t-9 -21.5v-270q0 -12 9 -21t21 -9h270q13 0 21.5 9t8.5 21v270q0 13 -8.5 21.5t-21.5 8.5h-270zM130 182q-13 0 -21.5 -9
t-8.5 -21v-270q0 -13 8.5 -21.5t21.5 -8.5h270q12 0 21 8.5t9 21.5v270q0 12 -9 21t-21 9h-270zM606 182q-12 0 -21 -9t-9 -21v-270q0 -13 9 -21.5t21 -8.5h270q13 0 21.5 8.5t8.5 21.5v270q0 14 -8 22t-22 8h-270z" />
    <glyph glyph-name="T" unicode="T" horiz-adv-x="1072" 
d="M968 224q8 -8 0 -17l-18 -18q-9 -9 -18 0l-56 60v-389q0 -13 -8.5 -21.5t-21.5 -8.5h-176q-12 0 -21 8.5t-9 21.5v268q0 13 -9 21.5t-21 8.5h-148q-12 0 -21 -8.5t-9 -21.5v-268q0 -13 -9 -21.5t-21 -8.5h-176q-13 0 -21.5 8.5t-8.5 21.5v389l-56 -60q-9 -9 -18 0l-18 18
q-8 9 0 17l411 431q8 10 20.5 10t21.5 -10z" />
    <glyph glyph-name="U" unicode="U" horiz-adv-x="977" 
d="M774 -7h74q12 0 20.5 8.5t8.5 20.5v673q0 11 -8 18.5t-19 7.5h-499q-11 0 -18.5 -7.5t-7.5 -18.5v-191h403q21 0 33.5 -12.5t12.5 -32.5v-466zM462 598q-22 0 -22 22v21q0 22 22 22h75q22 0 22 -22v-21q0 -22 -22 -22h-75zM649 598q-22 0 -22 22v21q0 22 22 22h75
q22 0 22 -22v-21q0 -22 -22 -22h-75zM755 459q0 11 -8 18.5t-19 7.5h-602q-10 0 -18 -7.5t-8 -18.5v-673q0 -12 8.5 -20.5t20.5 -8.5h241q12 0 20.5 8.5t8.5 20.5v127q0 10 10 10h97q10 0 10 -10v-127q0 -12 8.5 -20.5t20.5 -8.5h181q12 0 20.5 8.5t8.5 20.5v673zM221 309
q-21 0 -21 22v21q0 22 21 22h76q21 0 21 -22v-21q0 -22 -21 -22h-76zM388 309q-21 0 -21 22v21q0 22 21 22h76q21 0 21 -22v-21q0 -22 -21 -22h-76zM555 309q-21 0 -21 22v21q0 22 21 22h76q21 0 21 -22v-21q0 -22 -21 -22h-76zM221 169q-21 0 -21 21v22q0 21 21 21h76
q21 0 21 -21v-22q0 -21 -21 -21h-76zM388 169q-21 0 -21 21v22q0 21 21 21h76q21 0 21 -21v-22q0 -21 -21 -21h-76zM555 169q-21 0 -21 21v22q0 21 21 21h76q21 0 21 -21v-22q0 -21 -21 -21h-76zM221 29q-21 0 -21 21v22q0 21 21 21h76q21 0 21 -21v-22q0 -21 -21 -21h-76z
M388 29q-21 0 -21 21v22q0 21 21 21h76q21 0 21 -21v-22q0 -21 -21 -21h-76zM555 29q-21 0 -21 21v22q0 21 21 21h76q21 0 21 -21v-22q0 -21 -21 -21h-76z" />
    <glyph glyph-name="V" unicode="V" horiz-adv-x="1734" 
d="M895 681q179 0 305 -126t126 -304q0 -88 -34 -167.5t-92 -137.5t-137.5 -92t-167.5 -34q-178 0 -304 126t-126 305q0 117 57.5 216t156.5 156.5t216 57.5zM1593 618q41 -44 41 -118v-324q0 -12 -9 -21t-21 -9h-111v-297h-19v813q78 0 119 -44zM356 650q5 0 5 -5v-223
q0 -57 -35.5 -90t-85.5 -35v-442q0 -6 -5 -6h-9q-5 0 -5 6v442q-50 2 -85.5 35t-35.5 90v223q0 5 5 5h9q5 0 5 -5v-204h63v204q0 5 5 5h9q5 0 5 -5v-204h59v204q0 5 5 5h9q5 0 5 -5v-204h63v204q0 5 6 5h8zM895 -40q121 0 206 85t85 206t-85 206t-206 85q-120 0 -205.5 -85
t-85.5 -206t85.5 -206t205.5 -85zM895 523q113 0 192.5 -79.5t79.5 -192.5t-79.5 -192.5t-192.5 -79.5t-192.5 79.5t-79.5 192.5t79.5 192.5t192.5 79.5z" />
    <glyph glyph-name="W" unicode="W" horiz-adv-x="926" 
d="M168 553q28 0 48.5 -20.5t20.5 -48.5t-20.5 -48t-48.5 -20t-48 20t-20 48t20 48.5t48 20.5zM821 494q5 0 5 -5v-9q0 -5 -5 -5h-479q-5 0 -5 5v9q0 5 5 5h479zM168 318q28 0 48.5 -20t20.5 -49q0 -28 -20.5 -48t-48.5 -20t-48 20t-20 48t20 48.5t48 20.5zM821 260
q5 0 5 -6v-8q0 -5 -5 -5h-479q-5 0 -5 5v8q0 6 5 6h479zM168 83q28 0 48.5 -20.5t20.5 -48.5t-20.5 -48t-48.5 -20t-48 20t-20 48t20 48.5t48 20.5zM821 24q5 0 5 -5v-9q0 -5 -5 -5h-479q-5 0 -5 5v9q0 5 5 5h479z" />
    <glyph glyph-name="X" unicode="X" horiz-adv-x="1060" 
d="M413 105v-128q0 -64 45.5 -109.5t109.5 -45.5h237q64 0 109.5 45.5t45.5 109.5v546q0 64 -45.5 109t-109.5 45h-237q-64 0 -109.5 -45t-45.5 -109v-129q0 -5 5 -5h9q5 0 5 5v129q0 56 40 95.5t96 39.5h237q56 0 95.5 -39.5t39.5 -95.5v-546q0 -56 -39.5 -96t-95.5 -40
h-237q-56 0 -96 40t-40 96v128q0 5 -5 5h-9q-5 0 -5 -5zM277 408q-22 -22 -46.5 -47t-55 -55t-46.5 -46h552q5 0 5 -6v-8q0 -6 -5 -6h-552q25 -24 74.5 -73.5l73.5 -73.5q4 -4 0 -8l-6 -6q-4 -4 -8 0q-52 53 -157 158q-14 13 0 27q24 23 50 49.5t58 58.5l49 49q4 4 8 0l6 -6
q4 -4 0 -7z" />
    <glyph glyph-name="Y" unicode="Y" horiz-adv-x="983" 
d="M337 105v-128q0 -64 45 -109.5t109 -45.5h237q64 0 109.5 45.5t45.5 109.5v546q0 64 -45.5 109t-109.5 45h-237q-64 0 -109 -45t-45 -109v-129q0 -5 5 -5h8q6 0 6 5v129q0 55 40 95t95 40h237q56 0 96 -39.5t40 -95.5v-546q0 -56 -40 -96t-96 -40h-237q-56 0 -95.5 40
t-39.5 96v128q0 5 -6 5h-8q-5 0 -5 -5zM509 408q22 -22 46.5 -47t55 -55t46.5 -46h-552q-5 0 -5 -6v-8q0 -6 5 -6h552l-73.5 -73.5t-74.5 -73.5q-4 -4 0 -8l6 -6q4 -4 8 0q52 53 157 158q13 13 0 27l-157 157q-4 4 -8 0l-6 -6q-4 -4 0 -7z" />
    <glyph glyph-name="Z" unicode="Z" horiz-adv-x="1137" 
d="M318 -59h-67q-62 0 -106.5 44.5t-44.5 107.5v314q0 62 44.5 106.5t106.5 44.5h635q63 0 107 -44.5t44 -106.5v-314q0 -63 -44 -107.5t-107 -44.5h-365l118 -117q3 -4 0 -8l-6 -6q-4 -4 -8 0l-128 129q-13 11 0 24l128 128q4 4 8 0l6 -6q2 -4 0 -7l-118 -118h365
q55 0 93.5 39t38.5 94v314q0 55 -38.5 93.5t-93.5 38.5h-635q-55 0 -93.5 -38.5t-38.5 -93.5v-314q0 -55 38.5 -94t93.5 -39h67q5 0 5 -5v-8q0 -6 -5 -6z" />
    <glyph glyph-name="a" unicode="a" horiz-adv-x="1125" 
d="M100 271v105q0 67 47.5 114.5t114.5 47.5h130v26q0 58 31.5 90.5t88.5 32.5h101q57 0 88.5 -32.5t31.5 -90.5v-26h130q67 0 114.5 -47.5t47.5 -114.5v-105h-375v63q0 14 -10 23.5t-24 9.5h-108q-14 0 -23.5 -9.5t-9.5 -23.5v-63h-375zM714 538v26q0 50 -26 77t-75 27
h-101q-50 0 -75.5 -27t-25.5 -77v-26h303zM616 348q15 0 15 -14v-186q0 -6 -4.5 -10.5t-10.5 -4.5h-108q-14 0 -14 15v186q0 14 14 14h108zM1025 251v-274q0 -67 -47.5 -114.5t-114.5 -47.5h-601q-67 0 -114.5 47.5t-47.5 114.5v274h375v-103q0 -14 9.5 -23.5t23.5 -9.5h108
q14 0 24 9.5t10 23.5v103h375z" />
    <glyph glyph-name="b" unicode="b" 
d="M158 649q-6 1 -4 6l3 8q1 5 6 4q121 -37 363 -113q3 -2 6 0q242 76 363 113q5 1 6 -4l3 -8q2 -5 -3 -6l-363 -113q-9 -3 -18 0zM920 607q14 5 26 -4t12 -24v-597q0 -22 -21 -28l-399 -125q-9 -3 -18 0l-399 125q-21 6 -21 28v597q0 15 12 23.5t27 4.5l387 -121h6z" />
    <glyph glyph-name="c" unicode="c" 
d="M138 659q-14 5 -26 -4t-12 -24v-640q0 -22 21 -28l399 -125q9 -3 18 0l399 125q21 6 21 28v640q0 15 -12 23.5t-27 4.5l-387 -121h-6zM203 415q-5 3 -4 7l3 8q1 5 7 4l230 -72q5 -1 4 -7l-3 -8q-2 -6 -6 -3zM633 344q-5 -3 -6 3l-3 8q-1 6 4 7l230 72q6 1 7 -4l2 -8
q2 -4 -3 -7zM203 254q-6 1 -4 6l3 9q1 4 7 3l230 -72q6 -1 4 -6l-3 -9q-2 -5 -6 -3zM633 182q-5 -2 -6 3l-3 9q-2 5 4 6l230 72q6 1 7 -3l2 -9q3 -4 -3 -6zM203 87q-5 3 -4 7l3 8q1 5 7 4l230 -72q5 -1 4 -7l-3 -8q-2 -6 -6 -3zM633 16q-5 -3 -6 3l-3 8q-1 6 4 7l230 72
q6 1 7 -4l2 -8q2 -4 -3 -7z" />
    <glyph glyph-name="d" unicode="d" horiz-adv-x="872" 
d="M629 552q59 0 101 -42t42 -101v-463q0 -59 -42 -101.5t-101 -42.5h-386q-59 0 -101 42.5t-42 101.5v463q0 59 42 101t101 42h57v118q0 12 8.5 20.5t20.5 8.5h214q12 0 20.5 -8.5t8.5 -20.5v-118h57zM319 552h234v118q0 10 -10 10h-214q-10 0 -10 -10v-118z" />
    <glyph glyph-name="e" unicode="e" horiz-adv-x="1138" 
d="M522 470q263 -21 387 -163t129 -409q0 -22 -23 -28t-34 13q-149 254 -459 257v-170q0 -19 -17 -27t-30 5l-365 328q-10 9 -10 22.5t10 21.5l365 329q13 12 30 4t17 -26v-157z" />
    <glyph glyph-name="f" unicode="f" horiz-adv-x="1137" 
d="M1027 319q10 -8 10 -21.5t-10 -22.5l-364 -328q-14 -13 -31 -5t-17 27v170q-309 -3 -458 -257q-11 -19 -34.5 -13t-22.5 28q5 266 129 408.5t386 163.5v157q0 18 17 26t31 -4z" />
    <glyph glyph-name="g" unicode="g" horiz-adv-x="1123" 
d="M329 52q0 -5 -5 -5q-104 0 -152 27q-80 43 -71 155q5 63 48 108.5t105 45.5h12q9 0 11 10q1 102 61.5 174.5t159.5 91.5q97 19 180.5 -25t120.5 -136q2 -7 10 -7q92 -1 153 -62.5t61 -154.5q0 -94 -53.5 -159t-146.5 -68q-5 0 -5 5v9q0 5 5 5q85 3 133 62t48 146
q0 85 -55.5 141t-140.5 57q-19 0 -27 19q-34 85 -111.5 126t-168.5 24q-92 -18 -148 -85.5t-57 -162.5q0 -12 -9 -20.5t-21 -8.5h-12q-55 0 -92.5 -40.5t-41.5 -96.5q-7 -99 61 -136q45 -25 143 -25q5 0 5 -5v-9zM737 28q-77 -75 -152 -152q-11 -11 -22 0l-152 152q-4 4 0 8
l6 6q3 4 7 0l140 -140v372q0 5 5 5h9q5 0 5 -5v-372q71 69 140 140q4 4 8 0l6 -6q4 -4 0 -8z" />
    <glyph glyph-name="h" unicode="h" horiz-adv-x="1123" 
d="M329 53q0 -5 -5 -5q-103 0 -152 27q-78 43 -71 155q5 63 48 108.5t105 45.5h12q11 0 11 10q1 102 61.5 174.5t159.5 91.5q97 19 180.5 -25t120.5 -136q3 -7 10 -7q92 -1 153 -62.5t61 -154.5q0 -94 -53.5 -159t-145.5 -68q-6 0 -6 5v9q0 5 6 5q84 3 132 62t48 146
q0 85 -55 141t-140 57q-20 0 -28 19q-34 85 -111.5 126t-168.5 24q-92 -18 -148 -85.5t-57 -162.5q0 -12 -8.5 -20.5t-21.5 -8.5h-12q-54 0 -91.5 -40.5t-42.5 -96.5q-7 -99 61 -136q45 -25 143 -25q5 0 5 -5v-9zM737 148l-152 152q-11 11 -22 0l-48 -48t-56 -56.5
t-48 -47.5q-4 -4 0 -8l6 -6q4 -4 8 0q20 21 43.5 44t52 51.5l44.5 44.5v-372q0 -5 5 -5h8q6 0 6 5v372l140 -140q3 -4 7 0l6 6q4 4 0 8z" />
    <glyph glyph-name="i" unicode="i" horiz-adv-x="1060" 
d="M626 571q-5 1 -7 8l-17 76q-4 21 -26 23q-46 4 -92 0q-21 -2 -26 -23l-16 -76q-2 -6 -8 -8q-38 -12 -62 -26q-6 -3 -11 0l-66 42q-19 12 -34 -2q-32 -25 -66 -65q-14 -17 -2 -35l42 -65q4 -5 1 -11q-17 -32 -26 -63q-1 -5 -8 -7l-76 -16q-21 -5 -23 -26q-6 -47 0 -93
q2 -21 23 -26l76 -16q6 -2 8 -8q9 -31 26 -62q3 -7 -1 -11l-42 -65q-12 -18 2 -35q29 -37 66 -66q16 -13 34 -2l66 42q4 4 11 1q30 -17 62 -26q6 -2 8 -8l16 -76q5 -21 26 -23q46 -6 92 0q23 2 26 23l17 76q2 7 7 8q31 9 63 26q5 3 11 -1l65 -42q18 -12 35 2q40 34 65 66
q14 17 2 35l-42 65q-3 5 0 11q16 32 26 62q2 6 8 8l75 16q21 5 24 26q4 46 0 93q-3 21 -24 26l-75 16q-7 1 -8 7q-10 30 -26 63q-3 5 0 11l42 65q12 18 -2 35q-29 36 -65 65q-16 14 -35 2l-65 -42q-6 -3 -11 0q-26 14 -63 26zM530 415q68 0 116.5 -48.5t48.5 -116.5
t-48.5 -116.5t-116.5 -48.5t-116.5 48.5t-48.5 116.5t48.5 116.5t116.5 48.5z" />
    <glyph glyph-name="j" unicode="j" horiz-adv-x="1020" 
d="M915 631q14 -85 -9 -187t-79 -158q-90 -89 -276 -129q-9 -4 -9 -11l7 -114q0 -14 -9 -23l-98 -98q-12 -12 -28 -8.5t-21 18.5l-55 150q-1 5 -6 7l-150 54q-16 6 -19.5 22t8.5 27l98 99q9 10 23 8l114 -6q10 0 11 9q41 187 130 275q57 58 157.5 82t186.5 7q21 -3 24 -24z
M718 383q31 0 52.5 21.5t21.5 52.5t-21.5 53t-52.5 22q-32 0 -53.5 -22t-21.5 -53t22 -52.5t53 -21.5zM285 26l-103 37q-75 -77 -82 -190q-1 -14 8.5 -23t22.5 -8q115 7 191 84z" />
    <glyph glyph-name="k" unicode="k" horiz-adv-x="823" 
d="M543 548q4 -3 8 0l6 6q4 4 0 8l-133 133q-13 13 -24 0l-133 -133q-4 -4 0 -8l6 -6q3 -2 7 0l122 122v-523q0 -5 5 -5h9q5 0 5 5v523zM311 403q5 0 5 6v8q0 5 -5 5h-59q-63 0 -107.5 -44.5t-44.5 -106.5v-320q0 -62 44.5 -106.5t107.5 -44.5h320q62 0 106.5 44.5
t44.5 106.5v320q0 62 -44.5 106.5t-106.5 44.5h-60q-5 0 -5 -5v-8q0 -6 6 -6h59q55 0 93.5 -38.5t38.5 -93.5v-320q0 -55 -38.5 -93.5t-93.5 -38.5h-320q-55 0 -93.5 38.5t-38.5 93.5v320q0 55 38.5 93.5t93.5 38.5h59z" />
    <glyph glyph-name="l" unicode="l" horiz-adv-x="822" 
d="M543 224q3 4 7 0l6 -6q4 -4 0 -7l-133 -133q-12 -12 -24 0l-133 133q-4 3 0 7l6 6q4 4 8 0l122 -122v523q0 6 5 6h8q6 0 6 -6v-523zM311 403q5 0 5 6v8q0 5 -5 5h-60q-62 0 -106.5 -44.5t-44.5 -106.5v-320q0 -62 44.5 -106.5t106.5 -44.5h320q63 0 107 44.5t44 106.5
v320q0 62 -44 106.5t-107 44.5h-59q-5 0 -5 -5v-8q0 -6 5 -6h59q55 0 93.5 -38.5t38.5 -93.5v-320q0 -55 -38.5 -93.5t-93.5 -38.5h-320q-55 0 -93.5 38.5t-38.5 93.5v320q0 55 38.5 93.5t93.5 38.5h60z" />
    <glyph glyph-name="m" unicode="m" horiz-adv-x="1036" 
d="M326 63q-5 2 -4 7q54 217 200 317q141 96 384 92l-130 130q-4 4 0 8l6 6q3 3 7 0l142 -142q12 -12 0 -24l-146 -146q-4 -4 -8 0l-6 6q-4 4 0 7l136 136q-239 5 -374 -89q-140 -95 -193 -306q-1 -5 -6 -4zM251 487h182q5 0 5 6v8q0 6 -5 6h-182q-62 0 -107 -45
q-44 -44 -44 -107v-336q0 -61 44 -107q46 -44 107 -44h508q63 0 107 44q44 46 44 107v210q0 5 -5 5h-8q-6 0 -6 -5v-210q0 -55 -38 -93q-39 -39 -94 -39h-508q-54 0 -93 39t-39 93v336q0 55 39 94q38 38 93 38z" />
    <glyph glyph-name="n" unicode="n" horiz-adv-x="1073" 
d="M294 -9h-188q-6 0 -6 -5v-9q0 -5 6 -5h188q16 0 24 13l365 519q3 4 8 4h253q-59 -57 -116 -116q-4 -3 0 -7l6 -6q4 -3 7 0q19 19 40.5 40t47 47t39.5 40q12 12 0 24l-127 127q-4 2 -7 0l-6 -6q-4 -4 0 -8l116 -116h-253q-15 0 -24 -12l-364 -519q-3 -5 -9 -5zM106 508
h188q6 0 9 -4q24 -35 69.5 -99.5t54.5 -78.5q4 -4 8 -1l7 5q4 3 1 7l-125 178q-8 12 -24 12h-188q-6 0 -6 -5v-8q0 -6 6 -6zM561 169q9 -13 53.5 -76.5t68.5 -96.5q3 -5 8 -5h253l-116 116q-4 3 0 7l6 6q4 4 7 0q64 -63 127 -127q13 -11 0 -23q-63 -64 -127 -127q-3 -3 -7 0
l-6 6q-4 3 0 7q17 17 36 36.5t43 43t37 36.5h-253q-15 0 -24 13l-121 172q-2 5 1 8l7 5q4 3 7 -1z" />
    <glyph glyph-name="o" unicode="o" horiz-adv-x="957" 
d="M740 92q48 0 82.5 -34t34.5 -83t-34.5 -83t-82.5 -34q-49 0 -83.5 34t-34.5 83q0 24 10 47l-317 163q-35 -52 -97 -52q-49 0 -83.5 34.5t-34.5 82.5q0 49 34.5 83.5t83.5 34.5q58 0 93 -47l319 164q-8 19 -8 41q0 48 34.5 82.5t83.5 34.5q48 0 82.5 -34.5t34.5 -82.5
q0 -49 -34.5 -83.5t-82.5 -34.5q-68 0 -102 59l-316 -162q13 -26 13 -55q0 -26 -11 -48l317 -163q35 53 99 53z" />
    <glyph glyph-name="p" unicode="p" 
d="M529 679q-178 0 -303.5 -125.5t-125.5 -303.5t125.5 -303.5t303.5 -125.5t303.5 125.5t125.5 303.5t-125.5 303.5t-303.5 125.5zM360 387q43 118 177 118q77 0 122 -42t45 -106q0 -34 -8 -60t-26 -46t-30 -30t-37 -27t-38.5 -29t-27 -36.5t-13.5 -54.5q0 -6 -6 -6h-7
q-6 0 -6 6q0 35 14 62.5t29.5 41t43.5 31.5q30 21 45.5 34t30.5 43.5t15 70.5q0 55 -39.5 92t-107.5 37q-118 0 -158 -106q-1 -6 -7 -3l-8 3q-5 1 -3 7zM517 2q13 0 13 -14v-4q0 -8 -2.5 -10.5t-10.5 -2.5h-3q-9 0 -12 2.5t-3 10.5v4q0 14 15 14h3z" />
    <glyph glyph-name="q" unicode="q" horiz-adv-x="867" 
d="M725 614q15 7 28.5 -2t13.5 -25v-356q0 -19 -17 -27q-63 -32 -122.5 -41.5t-105 0t-95.5 23.5t-93.5 30.5t-100 21t-114.5 -6.5v-399q0 -6 -5 -6h-9q-5 0 -5 6v790q0 25 24 30q56 9 110.5 4.5t97.5 -19.5t91 -29.5t91.5 -23.5t98.5 -2.5t112 32.5z" />
    <glyph glyph-name="r" unicode="r" horiz-adv-x="931" 
d="M801 604q13 0 21.5 -8.5t8.5 -21.5v-478q0 -12 -8.5 -20.5t-21.5 -8.5h-107v351q0 22 -13.5 35.5t-35.5 13.5h-351v107q0 13 8.5 21.5t21.5 8.5h477zM645 448q13 0 21.5 -9t8.5 -21v-516q0 -12 -8.5 -21t-21.5 -9h-516q-12 0 -20.5 9t-8.5 21v516q0 12 8.5 21t20.5 9h516
z" />
    <glyph glyph-name="s" unicode="s" horiz-adv-x="1091" 
d="M962 658q12 0 20.5 -8.5t8.5 -20.5v-672q0 -12 -8.5 -20.5t-20.5 -8.5h-284q-83 0 -116 -83q-4 -11 -16 -11t-17 11q-33 83 -116 83h-284q-12 0 -20.5 8.5t-8.5 20.5v672q0 12 8.5 20.5t20.5 8.5h286q42 0 78.5 -23t52.5 -61q15 38 51.5 61t78.5 23h286z" />
    <glyph glyph-name="t" unicode="t" horiz-adv-x="982" 
d="M865 507q23 24 15 62q-7 37 -37 67t-67 37q-37 9 -62 -16l-383 -383q-5 -5 -6 -10l-41 -162q-3 -11 6 -20t20 -6l161 42q7 2 11 6zM757 -118q0 -13 -9 -21.5t-21 -8.5h-597q-12 0 -21 8.5t-9 21.5v648q0 13 9 21.5t21 8.5h460l-272 -273q-10 -8 -11 -18l-41 -162
q-6 -22 10.5 -38.5t38.5 -10.5l161 42q11 2 19 11l261 260z" />
    <glyph glyph-name="u" unicode="u" horiz-adv-x="1034" 
d="M932 526q9 -50 -19 -75l-68 -68q-19 69 -73.5 122.5t-122.5 71.5l69 69q27 28 75 19q49 -9 89.5 -49.5t49.5 -89.5zM632 560q70 -14 125 -69t72 -125l-446 -446q-18 69 -70 121t-125 75zM172 100q75 -21 127 -74t67 -123l-5 -5q-5 -5 -10 -6l-231 -61q-9 -2 -15.5 4.5
t-4.5 15.5l59 233q1 4 6 9z" />
    <glyph glyph-name="v" unicode="v" horiz-adv-x="1085" 
d="M518 311q0 -13 -8.5 -21.5t-21.5 -8.5h-358q-13 0 -21.5 9t-8.5 22q8 157 119 268t268 119q13 1 22 -8t9 -22v-358zM640 594q146 -13 245.5 -126t99.5 -263q0 -161 -114.5 -275t-275.5 -114q-98 0 -184 44.5t-141 123.5t-64 175q-1 13 8 22.5t23 9.5h311q36 0 48 14
t12 56v302q0 14 9.5 23t22.5 8z" />
    <glyph glyph-name="w" unicode="w" horiz-adv-x="1165" 
d="M1022 498q14 8 28.5 -1.5t14.5 -25.5v-442q0 -16 -14.5 -25.5t-28.5 -1.5l-238 125q-6 3 -11 0t-5 -10v-70q0 -62 -44.5 -106.5t-107.5 -44.5h-365q-62 0 -106.5 44.5t-44.5 106.5v405q0 63 44.5 107.5t106.5 44.5h365q63 0 107.5 -44.5t44.5 -107.5v-70q0 -8 6 -10t13 2
z" />
    <glyph glyph-name="x" unicode="x" horiz-adv-x="792" 
d="M558 260q0 -51 -24 -88.5t-60 -54t-78 -16.5t-78 16.5t-60 54t-24 88.5v259q0 51 24 88.5t60 54t78 16.5t78 -16.5t60 -54t24 -88.5v-259zM687 389q5 0 5 -5v-124q0 -134 -84.5 -210t-201.5 -79v-128h158q6 0 6 -5v-9q0 -5 -6 -5h-336q-5 0 -5 5v9q0 5 5 5h159v128
q-118 3 -202 79t-84 210q0 20 -0.5 62t-0.5 62q0 5 6 5h8q6 0 6 -5v-124q0 -65 24 -117.5t62.5 -85t88.5 -50t101.5 -17.5t101.5 17.5t88.5 50t62.5 85t24 117.5v124q0 5 5 5h9z" />
    <glyph glyph-name="y" unicode="y" horiz-adv-x="1100" 
d="M599 560q94 105 211 80q90 -19 147 -100q61 -88 37 -179q-13 -48 -50 -86l-374 -390q-8 -9 -20 -9t-20 9l-374 390q-78 81 -49 189q24 88 103 141q93 63 191 27q54 -21 100 -72l42 -47q7 -7 14 0z" />
    <glyph glyph-name="z" unicode="z" horiz-adv-x="1087" 
d="M836 562q63 0 107 -44.5t44 -107.5v-432q0 -62 -44 -106.5t-107 -44.5h-584q-63 0 -107.5 44.5t-44.5 106.5v432q0 63 44.5 107.5t107.5 44.5h132v103q0 5 6 5h8q5 0 5 -5v-103h281v103q0 5 6 5h8q6 0 6 -5v-103h132zM384 550v-81q0 -6 6 -6h8q5 0 5 6v81h-19zM684 550
v-81q0 -6 6 -6h8q6 0 6 6v81h-20zM310 354q-26 0 -45 -18.5t-19 -44.5t19 -45t45 -19t44.5 19t18.5 45q0 25 -18.5 44t-44.5 19zM544 354q-26 0 -44.5 -19t-18.5 -44q0 -26 18.5 -45t44.5 -19t45 19t19 45t-19 44.5t-45 18.5zM778 354q-26 0 -44.5 -19t-18.5 -44
q0 -26 18.5 -45t44.5 -19t45 19t19 45t-19 44.5t-45 18.5zM310 143q-26 0 -45 -18.5t-19 -44.5t19 -45t45 -19t44.5 19t18.5 45t-18.5 44.5t-44.5 18.5zM544 143q-26 0 -44.5 -18.5t-18.5 -44.5t18.5 -45t44.5 -19t45 19t19 45t-19 44.5t-45 18.5zM778 143
q-26 0 -44.5 -18.5t-18.5 -44.5t18.5 -45t44.5 -19t45 19t19 45t-19 44.5t-45 18.5z" />
  </font>
</defs>
</svg>
