<?xml version="1.0" standalone="no"?>
<!DOCTYPE svg PUBLIC "-//W3C//DTD SVG 1.1//EN" "http://www.w3.org/Graphics/SVG/1.1/DTD/svg11.dtd" >
<svg xmlns="http://www.w3.org/2000/svg" xmlns:xlink="http://www.w3.org/1999/xlink" version="1.1">
<metadata>
Created by FontForge 20170731 at Thu Nov 13 13:00:05 2014
 By Aleksey,,,
copyright missing
</metadata>
<defs>
<font id="PantonIcons-BRegular" horiz-adv-x="0" >
  <font-face 
    font-family="Panton IconsB"
    font-weight="400"
    font-stretch="normal"
    units-per-em="1000"
    panose-1="0 0 5 0 0 0 0 0 0 0"
    ascent="750"
    descent="-250"
    x-height="606"
    cap-height="655.5"
    bbox="93 -373 1309 793.765"
    underline-thickness="50"
    underline-position="-200"
    unicode-range="U+0020-007A"
  />
<missing-glyph horiz-adv-x="500" 
d="M410 -250h-317v1000h317v-1000zM168 683v-33h65v-37h-66v-33h166v33h-66v37h66v33h-165zM167 554v-104h166v34h-66v70h-100zM233 484h-33v36h33v-36zM167 423v-33h66v-37h-66v-33h100v70h66v33h-166zM300 363v-66h-133v-34h166v100h-33zM233 241v-56h34v23h33v-47h-100
v80h-33v-113h166v113h-100zM167 68v-113h166v113h-166zM300 -12h-100v47h100v-47zM167 -68v-33h70l-70 -47v-33h166v33h-102l70 47h32v33h-166z" />
    <glyph glyph-name=".notdef" horiz-adv-x="500" 
d="M410 -250h-317v1000h317v-1000zM168 683v-33h65v-37h-66v-33h166v33h-66v37h66v33h-165zM167 554v-104h166v34h-66v70h-100zM233 484h-33v36h33v-36zM167 423v-33h66v-37h-66v-33h100v70h66v33h-166zM300 363v-66h-133v-34h166v100h-33zM233 241v-56h34v23h33v-47h-100
v80h-33v-113h166v113h-100zM167 68v-113h166v113h-166zM300 -12h-100v47h100v-47zM167 -68v-33h70l-70 -47v-33h166v33h-102l70 47h32v33h-166z" />
    <glyph glyph-name=".null" 
 />
    <glyph glyph-name="nonmarkingreturn" horiz-adv-x="333" 
 />
    <glyph glyph-name="space" unicode=" " 
 />
    <glyph glyph-name="A" unicode="A" horiz-adv-x="898" 
d="M113 -174q-13 0 -13 13v22q0 13 13 13h50q1 57 11.5 103.5t24 75t38 56.5t39 39.5t41.5 31.5q59 41 59 70.5t-59 70.5q-27 20 -41.5 31.5t-39 39.5t-38 56.5t-24 75t-11.5 103.5h-50q-13 0 -13 13v21q0 13 13 13h672q13 0 13 -13v-21q0 -13 -13 -13h-47
q-1 -57 -13.5 -103t-38.5 -83t-44.5 -56.5t-51.5 -49.5q-63 -55 -63 -84.5t63 -85.5q33 -29 51.5 -49t44.5 -56.5t38.5 -82.5t13.5 -103h47q13 0 13 -13v-22q0 -13 -13 -13h-672zM558 130q-80 71 -80 120.5t80 120.5q30 27 46 44t39.5 49.5t35 73t12.5 89.5h-480
q1 -61 12.5 -107t35 -77t40 -46.5t46.5 -36.5q79 -56 79 -109.5t-79 -109.5q-30 -21 -46.5 -36.5t-40 -46.5t-35 -77t-12.5 -107h480q-1 49 -12.5 89.5t-35 73t-39.5 49.5t-46 44z" />
    <glyph glyph-name="B" unicode="B" horiz-adv-x="1225" 
d="M763 -208q-27 32 -79 98q-9 11 -25 32t-23 28v-151q0 -13 -13 -13h-21q-13 0 -13 13v151q-7 -7 -23 -28t-25 -32q-52 -66 -79 -98q-8 -11 -18 -2l-17 14q-10 9 -1 18q13 17 39 48.5t39 48.5q38 47 41 51h-278q-69 0 -118 48.5t-49 117.5v372q0 68 49 117t118 49h692
q68 0 117 -49t49 -117v-372q0 -69 -49 -117.5t-117 -48.5h-279q22 -26 41 -51l79 -97q9 -10 -2 -18l-17 -14q-10 -9 -18 2zM267 626q-49 0 -84 -34.5t-35 -83.5v-372q0 -49 35 -84t84 -35h692q49 0 83.5 35t34.5 84v372q0 49 -34.5 83.5t-83.5 34.5h-692z" />
    <glyph glyph-name="C" unicode="C" horiz-adv-x="1225" 
d="M378 -211q-8 -11 -19 -2l-17 13q-9 8 -2 18l117 150h-190q-69 0 -118 48.5t-49 117.5v372q0 68 49 117t118 49h692q68 0 117 -49t49 -117v-372q0 -69 -49 -117.5t-117 -48.5h-191q60 -75 117 -150q8 -11 -2 -18l-17 -13q-9 -9 -18 2l-140 179h-191zM267 624
q-49 0 -84 -34.5t-35 -83.5v-372q0 -49 35 -84t84 -35h692q49 0 84 35t35 84v372q0 49 -35 83.5t-84 34.5h-692zM348 186q-21 4 -37.5 -10t-16.5 -36q0 -19 13.5 -32.5t32.5 -13.5q20 0 33.5 13.5t13.5 32.5q0 9 -3 15l122 144q2 0 4 -0.5t4 -0.5q12 0 23 7l114 -64
q0 -19 13.5 -32t32.5 -13t33 13.5t14 32.5q0 11 -4 19l141 192q20 -2 35.5 12t15.5 35q0 19 -14 32.5t-33 13.5t-32.5 -13.5t-13.5 -32.5q0 -11 4 -19l-141 -192h-5q-13 0 -23 -6l-113 63q-1 19 -14.5 32t-32.5 13q-20 0 -33.5 -13.5t-13.5 -32.5q0 -9 3 -15z" />
    <glyph glyph-name="D" unicode="D" horiz-adv-x="1113" 
d="M122 397q-22 -13 -22 -38t22 -38l163 -93v-174q0 -52 30 -93t78 -62t105.5 -31t115.5 -0.5t106 30.5t78 62t30 93v175l98 56v-131q-23 -13 -23 -41q0 -19 14 -32.5t33 -13.5t33 13.5t14 32.5q0 27 -23 41v158l17 10q22 13 22 38t-22 38l-413 238q-21 13 -43 0zM962 359
l-405 -233l-406 233l406 234zM781 53q0 -39 -25 -69.5t-64.5 -46t-87.5 -23t-95.5 0t-87 23.5t-64.5 46.5t-25 69.5v146l203 -116q22 -13 43 0l203 116v-147z" />
    <glyph glyph-name="E" unicode="E" horiz-adv-x="947" 
d="M334 356l-187 187v-134q0 -14 -13 -14h-21q-13 0 -13 14v171q0 18 12.5 31t31.5 13h171q13 0 13 -13v-21q0 -13 -13 -13h-134l187 -187q10 -10 0 -19l-15 -15q-9 -10 -19 0zM579 390l187 187h-135q-13 0 -13 13v21q0 13 13 13h172q18 0 31 -13t13 -31v-171q0 -14 -13 -14
h-21q-14 0 -14 14v134l-187 -187q-8 -10 -18 0l-15 15q-9 9 0 19zM368 111q-94 -93 -187 -187h134q13 0 13 -13v-21q0 -13 -13 -13h-171q-19 0 -31.5 13t-12.5 31v172q0 13 13 13h21q13 0 13 -13v-135l187 187q10 9 19 0l15 -15q10 -10 0 -19zM612 145l59 -59l69 -69l59 -59
v135q0 13 14 13h21q13 0 13 -13v-172q0 -18 -13 -31t-31 -13h-172q-13 0 -13 13v21q0 13 13 13h135l-187 187q-9 9 0 19l15 15q10 10 18 0z" />
    <glyph glyph-name="F" unicode="F" horiz-adv-x="926" 
d="M139 609l59 -59l69 -69l59 -59v134q0 13 13 13h22q13 0 13 -13v-172q0 -18 -13 -31t-31 -13h-172q-13 0 -13 13v22q0 13 13 13h134l-187 187q-9 9 0 18l16 16q8 10 18 0zM820 576q-31 -31 -93.5 -94t-93.5 -94h135q13 0 13 -13v-21q0 -13 -13 -13h-172q-18 0 -31 13
t-13 31v172q0 13 13 13h21q13 0 13 -13v-135l187 187q10 9 19 0l15 -15q10 -10 0 -18zM787 -106l-187 187v-134q0 -13 -13 -13h-22q-13 0 -13 13v172q0 18 13 31t31 13h172q13 0 13 -13v-22q0 -13 -13 -13h-134l187 -187q9 -9 0 -18l-16 -16q-8 -8 -18 0zM106 -72l59 59
l69 69l59 59h-135q-13 0 -13 13v21q0 13 13 13h172q18 0 31 -13t13 -31v-172q0 -13 -13 -13h-21q-13 0 -13 13v135l-187 -187q-10 -10 -19 0l-15 15q-10 9 0 19z" />
    <glyph glyph-name="G" unicode="G" horiz-adv-x="981" 
d="M368 712q-42 0 -74 -23t-46 -56.5t-7.5 -72.5t35.5 -68l9 -8h-57q-53 0 -90.5 -37.5t-37.5 -90.5v-91h62v-309q0 -53 37.5 -90.5t90.5 -37.5h401q53 0 90 37.5t37 90.5v309h63v91q0 53 -37.5 90.5t-90.5 37.5h-57l8 8q29 29 35.5 68t-7 72.5t-45.5 56.5t-74 23
q-40 0 -73 -25t-50 -66q-17 40 -49 65.5t-73 25.5zM368 665q34 0 58 -24q26 -27 33.5 -64t7.5 -92q-118 2 -157 40q-23 28 -23.5 59t23 56t58.5 25zM613 665q54 0 75 -51t-17 -89q-39 -38 -157 -40q0 36 2 58.5t11.5 50.5t27.5 47q24 24 58 24zM467 313h-319v43
q0 33 23.5 57t56.5 24h239v-124zM514 437h239q33 0 56.5 -24t23.5 -57v-43h-319v124zM290 -124q-33 0 -56.5 23.5t-23.5 56.5v309h257v-389h-177zM771 265v-309q0 -33 -23.5 -56.5t-56.5 -23.5h-177v389h257z" />
    <glyph glyph-name="H" unicode="H" horiz-adv-x="1030" 
d="M371 41q-46 35 -110 35.5t-111 -33.5q-50 -36 -50 -89t50 -89q46 -34 109.5 -34t109.5 34q50 35 50 92v566l463 96v-471q-46 34 -110.5 34.5t-110.5 -33.5q-49 -36 -49 -89t49 -89q46 -33 109.5 -33t109.5 33q50 37 50 92v561q0 21 -16.5 34t-36.5 9l-470 -98
q-16 -4 -26 -16t-10 -27v-485zM852 111q30 -22 30 -50.5t-30 -50.5q-33 -25 -81.5 -25t-82.5 25q-29 22 -29 50.5t29 50.5q34 24 82.5 24t81.5 -24zM342 4q29 -22 29 -50.5t-29 -50.5q-34 -24 -82.5 -24t-81.5 24q-30 22 -30 50.5t30 50.5q33 25 81.5 25t82.5 -25z" />
    <glyph glyph-name="I" unicode="I" horiz-adv-x="808" 
d="M419 608v-647q0 -54 -50 -90q-46 -34 -109.5 -34t-109.5 34q-50 36 -50 89t50 89q46 33 109.5 33t109.5 -33l2 -2v568q0 31 27.5 40.5t50.5 -13.5l254 -260q9 -10 0 -19l-15 -15q-10 -10 -18 0zM341 10q-33 25 -81.5 25t-81.5 -25q-30 -22 -30 -50.5t30 -50.5
q33 -24 81.5 -24t81.5 24q30 22 30 50.5t-30 50.5z" />
    <glyph glyph-name="J" unicode="J" horiz-adv-x="1028" 
d="M889 350q9 -10 19 0l15 15q9 9 0 19l-254 260q-23 23 -50.5 13.5t-27.5 -40.5v-568l-2 2q-46 33 -109.5 33t-110.5 -33q-49 -36 -49 -89t49 -89q47 -34 110.5 -34t109.5 34q49 35 49 90v647zM113 520q-13 0 -13 13v21q0 13 13 13h303q13 0 13 -13v-21q0 -13 -13 -13h-303
zM113 363q-13 0 -13 13v21q0 13 13 13h303q13 0 13 -13v-21q0 -13 -13 -13h-303zM113 206q-13 0 -13 13v22q0 13 13 13h303q13 0 13 -13v-22q0 -13 -13 -13h-303zM561 12q30 -22 30 -50.5t-30 -50.5q-34 -24 -82 -24t-82 24q-29 22 -29 50.5t29 50.5q34 25 82 25t82 -25z
" />
    <glyph glyph-name="K" unicode="K" horiz-adv-x="1016" 
d="M223 343q-17 17 -11.5 41t28.5 32q103 35 214 -14l139 138q-8 47 7 93q8 23 32 29t41 -12l230 -229q17 -17 11 -41t-29 -32q-44 -14 -93 -8l-138 -138q49 -111 14 -215q-8 -23 -32 -28.5t-41 11.5l-169 169l-288 -289q-9 -9 -18 0l-15 15q-9 9 0 19l288 289zM644 612
q-13 -44 1 -90.5t48 -81.5q35 -34 81 -47.5t91 -1.5zM740 355q-43 17 -79 53q-34 34 -54 79l-109 -109q39 -23 74 -58q36 -38 59 -74zM538 286q-57 57 -131.5 83t-146.5 3l365 -364q22 72 -4 146.5t-83 131.5z" />
    <glyph glyph-name="L" unicode="L" horiz-adv-x="1192" 
d="M249 643q-61 0 -105 -43.5t-44 -105.5v-489q0 -61 44 -105t105 -44h694q61 0 105 44t44 105v489q0 62 -44 105.5t-105 43.5h-694zM943 596q42 0 72 -30t30 -72v-384l-183 167q-13 12 -30.5 12t-29.5 -13l-126 -128l-251 244q-13 12 -30.5 12t-30.5 -13l-216 -219v322
q0 42 29.5 72t71.5 30h694zM724 529q-25 0 -43 -18t-18 -43q0 -26 17.5 -43.5t43.5 -17.5q25 0 43 18t18 43t-18 43t-43 18zM395 355l251 -244q13 -12 30.5 -12t29.5 13l127 128l212 -194v-41q0 -42 -30 -71.5t-72 -29.5h-694q-42 0 -71.5 29.5t-29.5 71.5v100z" />
    <glyph glyph-name="M" unicode="M" horiz-adv-x="1104" 
d="M150 681q-18 7 -34 -4.5t-16 -30.5v-696q0 -26 24 -36l270 -99q15 -6 30 0l271 100l259 -96q19 -7 34.5 4.5t15.5 30.5v697q0 25 -24 35l-270 99q-15 6 -30 0l-271 -100zM147 -43v674l238 -87v-675zM433 -131v675l238 87v-674zM957 544v-675l-238 88v674z" />
    <glyph glyph-name="N" unicode="N" horiz-adv-x="1073" 
d="M125 513q-25 -12 -25 -40t25 -40l393 -187q18 -9 38 0l392 187q25 12 25 40t-25 40l-392 188q-20 9 -38 0zM921 473l-384 -184l-385 184l385 184zM948 302q25 -12 25 -39.5t-25 -39.5l-392 -188q-20 -9 -38 0l-393 188q-25 12 -25 39.5t25 39.5l84 41q12 7 17 -5l10 -19
q6 -11 -5 -18q-12 -6 -25 -12t-29 -14t-25 -12l385 -184l384 184l-79 38q-11 7 -5 18l10 19q5 12 17 5zM948 92q25 -12 25 -39.5t-25 -39.5l-392 -188q-20 -9 -38 0l-393 188q-25 12 -25 39.5t25 39.5l84 41q11 6 17 -6l10 -19q7 -11 -5 -17q-17 -9 -79 -39l385 -184
l384 184q-53 26 -79 39q-12 6 -5 17l10 19q6 13 17 6z" />
    <glyph glyph-name="O" unicode="O" horiz-adv-x="1064" 
d="M226 556q-126 -126 -126 -306t126 -306q125 -125 306 -125q179 0 306 125q126 126 126 306t-126 306t-305 126q-181 0 -307 -126zM349 383q17 102 58 169.5t101 79.5v-267q-80 3 -159 18zM556 632q60 -12 100.5 -80t57.5 -169q-78 -15 -158 -18v267zM192 430
q65 126 197 177q-62 -78 -86 -213q-55 15 -111 36zM761 394q-24 135 -86 213q132 -51 197 -177q-56 -21 -111 -36zM172 114q-51 136 0 273q67 -26 124 -40q-11 -97 0 -194q-62 -15 -124 -39zM768 153q11 97 0 194q55 13 123 40q51 -137 1 -273q-64 24 -124 39zM343 164
q-9 86 0 172q79 -16 165 -19v-134q-86 -3 -165 -19zM556 317q86 3 165 19q9 -86 0 -172q-79 16 -165 19v134zM508 -132q-61 12 -101.5 80t-57.5 169q79 17 159 18v-267zM715 117q-17 -102 -58 -169.5t-101 -79.5v267q71 -1 159 -18zM303 106q24 -136 85 -213
q-131 53 -196 177q51 20 111 36zM872 70q-65 -124 -197 -177q62 76 86 213q55 -15 111 -36z" />
    <glyph glyph-name="P" unicode="P" horiz-adv-x="1069" 
d="M266 692q-68 0 -117 -48.5t-49 -116.5v-554q0 -68 49 -117t117 -49h538q68 0 116.5 49t48.5 117v554q0 68 -48.5 116.5t-116.5 48.5h-538zM804 644q49 0 83.5 -34.5t34.5 -82.5v-554q0 -49 -34.5 -83.5t-83.5 -34.5h-538q-49 0 -83.5 34.5t-34.5 83.5v554q0 48 34.5 82.5
t83.5 34.5h538zM279 558q22 0 37 -15t15 -37t-15 -37t-37 -15q-21 0 -36 15t-15 37t15 37t36 15zM774 558q22 0 37 -15t15 -37t-15 -37t-37 -15t-37 15t-15 37t15 37t37 15zM279 386q22 0 37 -15.5t15 -36.5q0 -22 -15 -37t-37 -15q-21 0 -36 15t-15 37q0 21 15 36.5
t36 15.5zM774 386q22 0 37 -15.5t15 -36.5q0 -22 -15 -37t-37 -15t-37 15t-15 37q0 21 15 36.5t37 15.5zM279 218q22 0 37 -15t15 -37q0 -21 -15 -36.5t-37 -15.5q-21 0 -36 15.5t-15 36.5q0 22 15 37t36 15zM774 218q22 0 37 -15t15 -37q0 -21 -15 -36.5t-37 -15.5
t-37 15.5t-15 36.5q0 22 15 37t37 15zM279 49q22 0 37 -15t15 -37t-15 -37t-37 -15q-21 0 -36 15t-15 37t15 37t36 15zM774 49q22 0 37 -15t15 -37t-15 -37t-37 -15t-37 15t-15 37t15 37t37 15z" />
    <glyph glyph-name="Q" unicode="Q" horiz-adv-x="973" 
d="M825 5q0 116 -44 222.5t-126 188.5t-188.5 126t-222.5 44q-13 0 -13 13v22q0 13 13 13q128 0 243 -48.5t202 -135.5t135.5 -202t48.5 -243q0 -13 -13 -13h-22q-13 0 -13 13zM231 384q0 13 13 13q162 0 277 -115t115 -277q0 -13 -13 -13h-22q-13 0 -13 13q0 144 -101 243
q-99 101 -243 101q-13 0 -13 13v22zM142 106q-42 -42 -42 -101.5t42 -101.5t101.5 -42t101.5 42t42 101.5t-42 101.5t-101.5 42t-101.5 -42zM173 -66q-30 29 -30 71t30 71q29 29 71 29t71 -29t29 -71t-29 -71q-29 -30 -71 -30t-71 30z" />
    <glyph glyph-name="R" unicode="R" horiz-adv-x="1268" 
d="M1129 368q-102 99 -230 149.5t-265 50.5q-136 0 -265 -50.5t-230 -149.5q-9 -9 -18 0l-16 16q-9 9 0 18q109 105 246 159.5t283 54.5t283 -54.5t246 -159.5q10 -10 0 -18l-16 -16q-8 -10 -18 0zM966 187q-10 -9 -19 0q-131 124 -313 124t-313 -124q-9 -9 -19 0l-15 15
q-9 10 0 19q147 138 347 138q202 0 347 -138q9 -9 0 -19zM796 15q15 15 -1 29q-72 67 -161 67t-161 -67q-16 -14 -1 -29l133 -132q12 -12 29 -12t30 12zM634 -86l-115 115q52 40 115 40t115 -40z" />
    <glyph glyph-name="S" unicode="S" horiz-adv-x="758" 
d="M658 107q2 75 -41.5 186t-95 198t-106.5 164q-13 19 -36 19t-36 -19q-55 -77 -106.5 -164t-95 -198t-41.5 -186q3 -90 44.5 -156t102.5 -96t132 -29.5t132 30t102.5 95.5t44.5 156zM610 108q-2 -75 -36.5 -130.5t-85 -80.5t-109.5 -25t-109.5 25t-85 80.5t-36.5 130.5
q-3 99 71.5 249.5t159.5 269.5q85 -119 159.5 -269.5t71.5 -249.5z" />
    <glyph glyph-name="T" unicode="T" horiz-adv-x="1072" 
d="M328 -173q-108 11 -168 84t-60 169v207q0 104 37.5 188.5t99 136.5t139.5 80t160 28t160 -28t139.5 -80t99 -136.5t37.5 -188.5v-207q0 -96 -60 -169t-168 -84q-20 -2 -34 11.5t-14 32.5v418q0 20 14.5 33t33.5 11q117 -11 181 -100v54q0 93 -33.5 168t-88.5 121.5
t-125 71.5t-143 25t-143 -25t-125 -71.5t-88.5 -121.5t-33.5 -168v-57q63 92 183 103q19 2 33.5 -11.5t14.5 -32.5v-418q0 -19 -14.5 -32.5t-33.5 -11.5zM328 285q-69 -8 -115.5 -50t-58 -98.5t0 -113t58 -98.5t115.5 -50v410zM744 -125q58 6 100 37.5t61 74.5t19 93t-19 93
t-61 74.5t-100 37.5v-410z" />
    <glyph glyph-name="U" unicode="U" horiz-adv-x="1031" 
d="M523 -171q-41 0 -70.5 -29.5t-29.5 -71.5t29.5 -71.5t70.5 -29.5q74 0 145 20t130.5 58.5t96 101.5t36.5 141v346q0 99 -35.5 179t-94 129t-133.5 76t-152.5 27t-152.5 -27t-133.5 -76t-94 -129t-35.5 -179v-194q0 -98 59 -166.5t156 -75.5q19 -2 33 11.5t14 32.5v393
q0 19 -14 32.5t-33 11.5q-108 -9 -168 -90v45q0 88 31.5 158.5t83.5 114t118 67t135 23.5t135 -23.5t118 -67t83.5 -114t31.5 -158.5v-45q-58 81 -167 90q-20 2 -34 -11.5t-14 -32.5v-393q0 -19 14 -32.5t34 -11.5q109 9 167 90q0 -108 -78 -177t-193 -92q12 22 12 49
q0 42 -29.5 71.5t-71.5 29.5zM147 102q2 72 46 126.5t122 62.5v-386q-78 8 -123 63t-45 134zM716 291q46 -5 82 -27t54.5 -55t27 -72t0 -77.5t-27 -71.5t-54.5 -55.5t-82 -27.5v386zM523 -214q24 0 41 -17t17 -41t-17 -41t-41 -17t-41 17t-17 41t17 41t41 17z" />
    <glyph glyph-name="V" unicode="V" horiz-adv-x="1067" 
d="M253 601q-63 0 -108 -45t-45 -108v-83q0 -63 45 -108t108 -45h229v-391q0 -13 14 -13h21q13 0 13 13v391h229q14 0 29 12l165 149q13 13 13 31t-13 30l-165 155q-12 12 -29 12h-229v86q0 13 -13 13h-21q-14 0 -14 -13v-86h-229zM916 404l-159 -144h-504q-43 0 -74 31
t-31 74v83q0 44 31 74.5t74 30.5h504z" />
    <glyph glyph-name="W" unicode="W" horiz-adv-x="1160" 
d="M348 648q-41 0 -71 -29.5t-30 -71.5v-65q0 -41 30 -71t71 -30h577q14 0 25 11l99 98q11 10 11 24.5t-11 24.5l-99 99q-10 10 -25 10h-272v60q0 13 -13 13h-22q-13 0 -13 -13v-60h-257zM1006 515l-86 -86h-572q-22 0 -37.5 15.5t-15.5 37.5v65q0 22 15.5 38t37.5 16h572z
M238 52q-15 0 -25 10l-102 102q-11 10 -11 25t11 25l102 102q10 10 25 10h598q43 0 73 -30t30 -73v-68q0 -43 -30 -73t-73 -30h-183v-226q0 -13 -13 -13h-22q-13 0 -13 13v226h-367zM836 99q23 0 39.5 16.5t16.5 39.5v68q0 23 -16.5 39.5t-39.5 16.5h-593l-90 -90l90 -90
h593z" />
    <glyph glyph-name="X" unicode="X" horiz-adv-x="1209" 
d="M1099 375q20 25 3 52l-125 188q-12 20 -37 20h-670q-25 0 -37 -20l-125 -188q-18 -27 2 -52l413 -511q13 -16 33 -16h99q20 0 33 16zM552 588l-132 -149l-114 149h246zM903 588l-113 -149l-132 149h245zM471 425l134 151l134 -151h-268zM164 425l96 145l110 -145h-206z
M1046 425h-207l111 145zM558 -104l-389 481h232zM606 -93q-1 0 -2 1l-153 469h308zM652 -104l157 481h231l-387 -481h-1z" />
    <glyph glyph-name="Y" unicode="Y" horiz-adv-x="1054" 
d="M527 678q-177 0 -302 -125t-125 -302q0 -176 125 -301t302 -125t302 125t125 301q0 177 -125 302t-302 125zM527 631q157 0 268 -111t111 -269q0 -157 -111 -268t-268 -111t-268 111t-111 268t111 268.5t268 111.5zM422 335q8 15 21 21l250 122q29 14 51.5 -9t8.5 -52
l-121 -249q-8 -15 -21 -21l-250 -122q-29 -14 -51.5 9t-8.5 52zM347 71l243 118l118 243l-243 -118zM527 292q17 0 28.5 -12t11.5 -29t-11.5 -28.5t-28.5 -11.5t-28.5 11.5t-11.5 28.5t11.5 29t28.5 12z" />
    <glyph glyph-name="Z" unicode="Z" horiz-adv-x="1034" 
d="M294 666q-80 0 -137 -57t-57 -137v-446q0 -80 57 -137t137 -57h446q80 0 137 57t57 137v446q0 80 -57 137t-137 57h-446zM740 618q61 0 104 -43t43 -103v-446q0 -60 -43 -103t-104 -43h-446q-60 0 -103 43t-43 103v446q0 60 43 103t103 43h446zM336 387h-68q-13 0 -13 13
v22q0 13 13 13h68v68q0 13 14 13h21q13 0 13 -13v-68h69q13 0 13 -13v-22q0 -13 -13 -13h-69v-69q0 -13 -13 -13h-21q-14 0 -14 13v69zM603 387q-13 0 -13 13v22q0 13 13 13h164q13 0 13 -13v-22q0 -13 -13 -13h-164zM394 90l55 -55q8 -10 0 -18l-16 -16q-9 -9 -18 0l-55 55
l-54 -55q-10 -9 -19 0l-15 16q-10 8 0 18l55 55l-55 54q-10 10 0 19l15 15q9 10 19 0l54 -55l55 55q9 9 18 0l16 -15q8 -9 0 -19zM603 118q-13 0 -13 13v22q0 13 13 13h164q13 0 13 -13v-22q0 -13 -13 -13h-164zM603 19q-13 0 -13 13v21q0 13 13 13h164q13 0 13 -13v-21
q0 -13 -13 -13h-164z" />
    <glyph glyph-name="a" unicode="a" horiz-adv-x="1152" 
d="M262 599q-67 0 -114.5 -47.5t-47.5 -114.5v-381q0 -67 47.5 -114.5t114.5 -47.5h628q67 0 114.5 47.5t47.5 114.5v381q0 67 -47.5 114.5t-114.5 47.5h-628zM890 551q32 0 57 -15l-300 -302q-29 -29 -71 -29t-71 29l-299 302q24 15 56 15h628zM168 -9q-20 29 -20 65v381
q0 37 22 67l254 -255zM982 504q23 -31 23 -67v-381q0 -36 -21 -65l-256 257zM471 201q43 -43 105 -43t105 43l14 13l254 -256q-27 -16 -59 -16h-628q-31 0 -60 16l255 257z" />
    <glyph glyph-name="b" unicode="b" horiz-adv-x="1086" 
d="M986 284q0 62 -54 116l-291 294q-41 41 -98.5 40.5t-98.5 -41.5l-292 -294q-52 -52 -52 -115v-353q0 -62 44.5 -106.5t107.5 -44.5h582q63 0 107.5 44.5t44.5 106.5v353zM478 660q26 26 64.5 26.5t64.5 -25.5l280 -282l-235 -236l-11 11q-40 40 -99 40t-99 -40l-10 -10
l-234 235zM399 110l-234 -236q-17 26 -17 57v353q0 23 8 42q4 9 11 18zM686 109l233 235q19 -25 19 -60v-353q0 -32 -17 -57zM477 121q26 25 65.5 25t64.5 -25l279 -280q-23 -14 -52 -14h-582q-28 0 -53 14z" />
    <glyph glyph-name="c" unicode="c" horiz-adv-x="1086" 
d="M802 565q0 18 -12.5 31.5t-30.5 13.5h-34l-84 84q-46 46 -99 45.5t-99 -46.5l-81 -83h-37q-18 0 -30 -13.5t-12 -31.5v-34l-134 -134q-49 -51 -49 -113v-353q0 -61 44 -107q46 -44 107 -44h583q61 0 107 44q45 47 45 107v353q0 62 -53 115l-131 133v33zM478 661
q64 65 130 -1l50 -50h-230zM330 562h424v-316l-102 -103l-11 11q-41 40 -99.5 40t-98.5 -40l-11 -10l-102 103v315zM802 465l84 -86l-84 -85v171zM283 295l-84 84l84 84v-168zM399 110l-235 -236q-17 29 -17 57v353q0 34 20 60zM918 344q20 -26 20 -60v-353q0 -31 -18 -57
l-235 235zM477 121q25 25 64.5 25t65.5 -25l279 -280q-25 -14 -52 -14h-583q-29 0 -52 14z" />
    <glyph glyph-name="d" unicode="d" horiz-adv-x="961" 
d="M468 -190q12 -4 24 0q108 32 187 108t119 175.5t54.5 207.5t3.5 218q-2 17 -14 28.5t-28 11.5q-80 2 -163.5 41.5t-138.5 99.5q-14 15 -32 14.5t-32 -14.5q-57 -60 -139.5 -99.5t-162.5 -41.5q-16 0 -27.5 -11.5t-13.5 -28.5q-11 -110 3.5 -218t54.5 -207.5t118.5 -175.5
t186.5 -108zM480 -144q-99 30 -170 100.5t-107 164t-48.5 192t-3.5 199.5q88 3 177.5 45.5t151.5 107.5q63 -66 152 -108t177 -45q9 -101 -3.5 -199.5t-48.5 -192t-107 -164t-170 -100.5zM651 389q-31 -61 -138 -263q-13 -25 -35 -26.5t-38 22.5q-49 74 -89 140q-8 10 4 18
l18 11q10 6 18 -4l84 -132l133 255q6 11 18 6l19 -10q12 -5 6 -17z" />
    <glyph glyph-name="e" unicode="e" horiz-adv-x="961" 
d="M468 -190q12 -4 24 0q108 32 186.5 108t118.5 175.5t55 207.5t4 218q-2 17 -14 28.5t-28 11.5q-81 2 -163.5 41.5t-138.5 99.5q-14 15 -32 14.5t-32 -14.5q-56 -60 -139 -99.5t-163 -41.5q-16 0 -28 -11.5t-14 -28.5q-10 -110 4.5 -218t54.5 -207.5t118.5 -175.5
t186.5 -108zM480 -144q-99 30 -170 100.5t-107 164t-48.5 192t-3.5 199.5q88 3 177.5 45.5t151.5 107.5q63 -66 152 -108t177 -45q9 -101 -3.5 -199.5t-48.5 -192t-107 -164t-170 -100.5zM480 228l-96 -97q-10 -9 -19 0l-15 16q-10 8 0 18l96 96l-96 97q-10 8 0 18l15 15
q9 9 19 0l96 -96l96 96q10 9 19 0l15 -15q10 -10 0 -18l-96 -97l96 -96q10 -10 0 -18l-15 -16q-9 -9 -19 0z" />
    <glyph glyph-name="f" unicode="f" horiz-adv-x="1208" 
d="M536 108q68 26 137 0q17 73 77 121t137 48q63 0 118 -34l-94 264q-5 15 -10.5 27t-12.5 21.5t-11.5 16t-15 12t-15 8.5t-18.5 7t-19 5.5t-23.5 5t-25.5 5.5q-13 3 -10 15l5 21q3 13 16 10q40 -9 54.5 -12.5t40.5 -13.5t38 -22.5t26.5 -35t25.5 -54.5l134 -380
q18 -41 18 -87q0 -92 -65 -156.5t-156 -64.5q-92 0 -157 66t-64 158q-61 31 -124 0q1 -92 -64 -158t-157 -66q-91 0 -156 64.5t-65 156.5q0 46 18 87l134 380q10 27 19.5 46.5t25 33.5t25.5 22t33.5 15.5t36 10.5t46.5 10q12 3 15 -10l5 -21q3 -12 -10 -15q-7 -2 -25 -5.5
t-23.5 -5t-19 -5t-18.5 -7t-15 -9t-15 -12t-12 -16t-12.5 -21.5t-10.5 -27l-93 -264q55 34 117 34q77 0 137 -47.5t78 -121.5zM321 229q-72 0 -122.5 -50.5t-50.5 -122.5t50.5 -122.5t122.5 -50.5t122.5 50.5t50.5 122.5t-50.5 122.5t-122.5 50.5zM887 229q-71 0 -122 -50.5
t-51 -122.5t51 -122.5t122 -50.5q72 0 123 50.5t51 122.5t-51 122.5t-123 50.5z" />
    <glyph glyph-name="g" unicode="g" horiz-adv-x="1080" 
d="M164 348q-97 -97 -48 -227q65 -167 127 -245q72 -95 142 -85q37 5 59 33.5t31.5 70t16 85t21 87.5t39.5 68l82 83q25 24 69 38.5t87.5 21.5t85 16.5t70 32t33.5 59.5q10 69 -84 142q-85 65 -247 126q-128 50 -226 -48zM456 573q76 74 175 37q159 -61 234 -120
q73 -55 67 -98q-4 -28 -43.5 -43t-89 -21t-108 -25t-90.5 -52l-83 -82q-32 -32 -51 -90.5t-24.5 -108t-21 -89t-43.5 -43.5q-42 -6 -98 67q-62 81 -119 233q-39 101 37 176zM523 513q-15 0 -25.5 -10.5t-10.5 -25.5t10.5 -26t25.5 -11q16 0 26.5 11t10.5 26t-10.5 25.5
t-26.5 10.5zM622 513q-15 0 -25.5 -10.5t-10.5 -25.5t10.5 -26t25.5 -11t26 11t11 26t-11 25.5t-26 10.5zM523 413q-15 0 -25.5 -10.5t-10.5 -25.5t10.5 -26t25.5 -11q16 0 26.5 11t10.5 26t-10.5 25.5t-26.5 10.5zM622 413q-15 0 -25.5 -10.5t-10.5 -25.5t10.5 -26
t25.5 -11t26 11t11 26t-11 25.5t-26 10.5zM408 250q10 8 0 18l-15 15q-9 9 -18 0l-42 -41l-41 41q-10 9 -19 0l-15 -15q-9 -9 0 -18l42 -42l-42 -42q-10 -8 0 -18l15 -15q9 -9 19 0l41 41l42 -41q9 -9 18 0l15 15q10 10 0 19l-41 41z" />
    <glyph glyph-name="h" unicode="h" horiz-adv-x="1004" 
d="M891 226q13 15 13 32v349q0 18 -12.5 31t-31.5 13l-349 -1q-19 0 -31 -13l-332 -332q-48 -48 -48 -116.5t48 -117.5l177 -177q48 -48 117 -48t117 48zM525 -72q-35 -34 -83 -34t-83 34l-177 177q-34 35 -34 84t34 83l331 331h344l-1 -344zM782 433q0 -41 -30 -70.5
t-71 -29.5q-42 0 -71.5 29.5t-29.5 70.5q0 42 29.5 71.5t71.5 29.5q41 0 71 -29.5t30 -71.5zM681 491q-24 0 -41 -17t-17 -41t17 -41t41 -17t41 17t17 41t-17 41t-41 17z" />
    <glyph glyph-name="i" unicode="i" horiz-adv-x="1167" 
d="M584 682q-81 0 -165 -24t-156 -68t-117.5 -116t-45.5 -158q0 -89 51.5 -164t134.5 -125q5 -64 -38 -133q-17 -28 0 -49t52 -15q146 28 211 124q70 -8 146 1.5t149 37.5t131 71t94 108.5t36 143.5q0 86 -45.5 158t-117.5 116t-155.5 68t-164.5 24zM584 634q71 0 145.5 -20
t140.5 -58t108 -101t42 -139q0 -77 -42 -140t-108 -100.5t-140.5 -58t-145.5 -20.5q-39 0 -97 8q-34 -57 -79 -85.5t-114 -41.5q51 86 36 179q-182 103 -182 259q0 76 42 139t108 100.5t140.5 58t145.5 20.5z" />
    <glyph glyph-name="j" unicode="j" horiz-adv-x="1409" 
d="M525 656q-72 0 -145.5 -21t-136.5 -60t-103 -102.5t-40 -139.5q0 -78 45 -144t117 -109q4 -55 -33 -114q-16 -26 0 -45.5t48 -13.5q127 24 186 107q30 -3 62 -3q72 0 145.5 21t136.5 60t103 102t40 139t-40 139.5t-103 102.5t-136.5 60t-145.5 21zM525 608
q61 0 125.5 -17.5t122 -50t94 -87t36.5 -120.5q0 -87 -63 -152t-147 -94t-168 -29q-18 0 -86 7q-29 -48 -66 -73t-95 -37q40 72 28 154q-159 90 -159 224q0 66 36.5 120.5t94 87t122 50t125.5 17.5zM1009 409q-12 1 -11 15l4 21q2 12 15 11q75 -13 138 -43t108.5 -88
t45.5 -134q0 -65 -36.5 -120t-97.5 -92q-3 -41 27 -88q14 -24 -0.5 -42.5t-43.5 -13.5q-105 21 -154 89q-144 -16 -251 46q-11 6 -5 18l11 18q6 11 18 5q100 -58 250 -38q23 -39 50.5 -57.5t72.5 -29.5q-29 55 -19 123q130 73 130 182q0 48 -23 87.5t-61 65t-80 41.5t-88 24
z" />
    <glyph glyph-name="k" unicode="k" horiz-adv-x="946" 
d="M559 -184q66 0 116 48q48 50 54 120l42 549h62q13 0 13 13v22q0 13 -13 13h-221v73q0 17 -12.5 29.5t-29.5 12.5h-193q-18 0 -30.5 -12.5t-12.5 -29.5v-73h-221q-13 0 -13 -13v-22q0 -13 13 -13h63l42 -549q6 -72 53 -120q50 -48 116 -48h172zM377 653h192v-72h-192v72z
M305 -102q-36 37 -40 90l-42 545h500l-42 -545q-5 -55 -40 -90q-34 -34 -82 -34h-172q-48 0 -82 34z" />
    <glyph glyph-name="l" unicode="l" horiz-adv-x="1056" 
d="M100 268q-1 -19 12 -32.5t32 -13.5h366v-257q0 -37 -27 -64t-64 -27t-64 27t-27 64q0 13 -13 13h-22q-13 0 -13 -13q0 -58 40.5 -98.5t98.5 -40.5t98.5 41t40.5 98v257h353q19 0 32 13t13 32q-5 156 -125 260t-280 113v50q0 13 -13 13h-21q-13 0 -13 -13v-50
q-160 -9 -279.5 -112.5t-124.5 -259.5zM147 270q7 142 121 232.5t260 90.5t259.5 -90.5t120.5 -232.5h-761z" />
    <glyph glyph-name="m" unicode="m" horiz-adv-x="1076" 
d="M318 699q-18 0 -31 -13t-13 -30v-146h-9q-68 0 -116.5 -48.5t-48.5 -116.5v-309q0 -18 12.5 -31t30.5 -13h131v-145q0 -18 13 -30.5t31 -12.5h440q17 0 30 12.5t13 30.5v145h132q17 0 30 13t13 31v309q0 68 -49 116.5t-117 48.5h-9v146q0 17 -13 30t-30 13h-440zM753 510
h-431v141h431v-141zM801 229h-527v-189h-127v305q0 48 34.5 82.5t83.5 34.5h545q49 0 83.5 -34.5t34.5 -82.5v-305h-127v189zM773 409q15 0 25.5 -10.5t10.5 -24.5q0 -15 -10.5 -25.5t-25.5 -10.5q-14 0 -24.5 10.5t-10.5 25.5q0 14 10.5 24.5t24.5 10.5zM322 181h431v-330
h-431v330z" />
    <glyph glyph-name="n" unicode="n" horiz-adv-x="863" 
d="M243 -197q-13 0 -13 13v21q0 13 13 13h113v117q-93 6 -171 51q-11 7 -4 19l10 19q7 10 18 3q123 -70 256 -33q136 36 206 157t33 257q-36 136 -157 205q-11 6 -5 18l11 19q6 10 18 4q138 -80 179 -234q27 -101 0 -200t-99 -172t-173 -100q-36 -10 -78 -13v-117h113
q13 0 13 -13v-21q0 -13 -13 -13h-270zM574 549q-81 81 -196.5 81t-196.5 -81t-81 -196.5t81 -196.5t196.5 -81t196.5 81t81 196.5t-81 196.5zM541 515q67 -67 67 -163t-67 -163t-163 -67t-163 67t-67 163t67 163t163 67t163 -67z" />
    <glyph glyph-name="o" unicode="o" horiz-adv-x="1110" 
d="M265 558h53q13 0 13 14v21q0 13 -13 13h-53q-68 0 -116.5 -48.5t-48.5 -116.5v-54q0 -13 13 -13h21q13 0 13 13v54q0 48 34.5 82.5t83.5 34.5zM844 558h-53q-13 0 -13 14v21q0 13 13 13h53q68 0 117 -48.5t49 -116.5v-54q0 -13 -13 -13h-22q-13 0 -13 13v54
q0 48 -34.5 82.5t-83.5 34.5zM265 -69h53q13 0 13 -13v-21q0 -14 -13 -14h-53q-68 0 -116.5 49t-48.5 117v53q0 13 13 13h21q13 0 13 -13v-53q0 -49 34.5 -83.5t83.5 -34.5zM844 -69h-53q-13 0 -13 -13v-21q0 -14 13 -14h53q68 0 117 49t49 117v53q0 13 -13 13h-22
q-13 0 -13 -13v-53q0 -49 -34.5 -83.5t-83.5 -34.5z" />
    <glyph glyph-name="p" unicode="p" horiz-adv-x="1187" 
d="M609 549q-30 56 -65 83.5t-93 27.5h-186q-68 0 -116.5 -49t-48.5 -117v-481q0 -68 48.5 -117t116.5 -49h657q68 0 116.5 49t48.5 117v371q0 68 -48.5 116.5t-116.5 48.5h-313zM922 502q49 0 83.5 -34.5t34.5 -83.5v-371q0 -49 -34.5 -83.5t-83.5 -34.5h-657
q-49 0 -83.5 34.5t-34.5 83.5v481q0 49 34.5 83.5t83.5 34.5h186q28 0 47.5 -7.5t35.5 -27t22.5 -31.5t22.5 -44h343z" />
    <glyph glyph-name="q" unicode="q" horiz-adv-x="1254" 
d="M1093 277q-10 59 -56 96.5t-106 37.5h-673q-81 0 -126 -48.5t-27 -126.5l65 -285q13 -56 58 -91t103 -35h657q65 0 115.5 47t50.5 111v431q0 68 -48 111.5t-117 43.5h-279q-29 56 -64 83t-93 27h-191q-69 0 -117.5 -41.5t-48.5 -109.5v-52q0 -13 14 -13h21q13 0 13 13v52
q0 48 34 76t84 28h191q22 0 40 -7t28.5 -13.5t24 -26.5t17.5 -28l18 -36h308q49 0 83.5 -29t34.5 -78l4 -243zM931 363q41 0 73 -24.5t41 -64.5l58 -254q13 -57 -21.5 -102t-93.5 -45h-657q-42 0 -73.5 24.5t-40.5 64.5l-66 284q-13 56 18 86.5t89 30.5h673z" />
    <glyph glyph-name="r" unicode="r" horiz-adv-x="1172" 
d="M100 221v-319q0 -18 12.5 -31t31.5 -13h884q19 0 31.5 13t12.5 31v319l-140 401q-10 30 -41 30h-610q-31 0 -41 -30zM284 604h605l126 -363h-257q-16 0 -29 -11t-15 -28q-6 -54 -45 -84t-83 -30t-83 30t-45 84q-2 17 -14.5 28t-29.5 11h-257zM1025 -94h-878v287h264
q8 -58 44 -97t83.5 -48.5t95 0t83.5 48.5t44 97h264v-287z" />
    <glyph glyph-name="s" unicode="s" horiz-adv-x="1045" 
d="M246 550q-60 0 -103 -42.5t-43 -103.5v-466q0 -60 43 -103t103 -43h332q60 0 102.5 43t42.5 103v14h76q60 0 103 43t43 103v420l-192 192h-286q-60 0 -102.5 -43t-42.5 -103v-14h-76zM897 98q0 -40 -28.5 -69t-69.5 -29h-76v358l-191 192h-163v14q0 40 29 69t69 29h238
v-151q0 -16 12 -28t29 -12h151v-373zM882 514h-134v134zM676 -62q0 -40 -29 -69t-69 -29h-332q-40 0 -69 29t-29 69v466q0 40 29 69t69 29h238v-151q0 -17 12 -28.5t28 -11.5h152v-373zM661 354h-134v134z" />
    <glyph glyph-name="t" unicode="t" horiz-adv-x="1026" 
d="M923 -54q-26 67 -81 120.5t-124 85.5q-24 11 -45 -5l-68 -52q-170 76 -246 246l52 68q15 20 5 45q-34 74 -88.5 127t-117.5 78q-31 12 -51 -13q-40 -50 -52.5 -113t0 -127.5t46.5 -133.5q57 -117 161 -221t221 -161q105 -52 199 -53t176 59q25 20 13 50zM877 587
q0 12 -8.5 21t-21.5 9h-239q-13 0 -13 -13v-21q0 -13 13 -13h188l-244 -245q-9 -9 0 -18l15 -15q9 -10 19 0l244 244v-193q0 -13 13 -13h21q13 0 13 13v244zM878 -69q-122 -96 -322 1q-110 54 -208.5 152.5t-151.5 208.5q-45 92 -47.5 172t46.5 149q54 -21 100.5 -67.5
t76.5 -110.5l-52 -68q-16 -21 -5 -44q84 -189 272 -273q25 -10 45 5l68 52q63 -30 109.5 -76.5t68.5 -100.5z" />
    <glyph glyph-name="u" unicode="u" horiz-adv-x="1026" 
d="M209 -161q67 26 120.5 81t85.5 124q11 24 -5 45l-51 68q76 168 245 246l68 -52q21 -16 45 -5q74 35 127.5 89.5t77.5 116.5q13 29 -13 50q-82 60 -175.5 59t-198.5 -52q-117 -58 -221 -162t-161 -221q-34 -69 -46.5 -133.5t0 -127.5t52.5 -113q21 -26 50 -13zM194 -116
q-96 122 1 322q54 110 152.5 208t208.5 152q92 45 172 47.5t149 -46.5q-21 -54 -67.5 -100.5t-110.5 -76.5l-68 52q-21 14 -44 5q-188 -85 -273 -273q-9 -23 5 -44l52 -68q-30 -64 -76.5 -110.5t-100.5 -67.5zM563 -73q0 -13 13 -13h21q13 0 13 13v193l244 -243
q10 -10 19 -1l15 15q10 9 0 19l-244 244h188q13 0 13 13v22q0 13 -13 13h-239q-13 0 -21.5 -9t-8.5 -22v-244z" />
    <glyph glyph-name="v" unicode="v" horiz-adv-x="1025" 
d="M209 -173q67 26 120.5 81t85.5 124q11 24 -5 45l-52 68q76 168 246 246l68 -52q21 -16 45 -5q74 34 127 88.5t78 117.5q12 30 -13 50q-82 60 -175.5 59t-198.5 -52q-117 -58 -221 -162t-162 -221q-33 -68 -45.5 -133t-0.5 -128t52 -113q21 -26 51 -13zM194 -128
q-96 122 1 322q54 109 152 207.5t208 152.5q200 97 322 1q-22 -54 -68 -100.5t-110 -76.5l-68 52q-21 15 -45 5q-189 -86 -272 -273q-11 -23 5 -44l52 -68q-30 -64 -76.5 -110.5t-100.5 -67.5z" />
    <glyph glyph-name="w" unicode="w" horiz-adv-x="1168" 
d="M380 589q-22 111 -140 111h-127q-13 0 -13 -13v-22q0 -13 13 -13h127q41 0 63 -16.5t30 -55.5l87 -446q12 -60 56.5 -94.5t106.5 -34.5h241q56 0 101 32.5t59 86.5l83 302q5 20 -8 37t-35 17h-623zM939 136q-11 -38 -43 -60.5t-72 -22.5h-241q-45 0 -76 23.5t-40 66.5
l-57 289h609zM578 -44q27 0 46 -19t19 -46t-19 -46t-46 -19t-46.5 19t-19.5 46t19.5 46t46.5 19zM829 -44q27 0 46.5 -19t19.5 -46t-19.5 -46t-46.5 -19t-46 19t-19 46t19 46t46 19z" />
    <glyph glyph-name="x" unicode="x" horiz-adv-x="1169" 
d="M380 589q-22 111 -139 111h-127q-14 0 -14 -13v-22q0 -13 14 -13h127q41 0 63 -16.5t29 -55.5q14 -74 43.5 -222.5t44.5 -223.5q12 -60 56 -94.5t106 -34.5h242q56 0 100.5 32.5t59.5 86.5l82 302q6 20 -7.5 37t-34.5 17h-69l-131 131q-47 48 -88.5 48.5t-88.5 -47.5
l-130 -132h-117zM679 582q35 35 58 34.5t58 -35.5l101 -101h-318zM939 136q-10 -38 -41.5 -60.5t-72.5 -22.5h-242q-45 0 -76 23.5t-39 66.5l-57 289h609zM578 -44q27 0 46.5 -19t19.5 -46t-19.5 -46t-46.5 -19t-46 19t-19 46t19 46t46 19zM830 -44q27 0 46 -19t19 -46
t-19 -46t-46 -19t-46 19t-19 46t19 46t46 19z" />
    <glyph glyph-name="y" unicode="y" horiz-adv-x="1014" 
d="M315 546q-13 0 -13 13q0 139 106 231q10 8 19 -1l14 -17q8 -10 -1 -18q-90 -76 -90 -195q0 -13 -13 -13h-22zM464 546q13 0 13 13q0 86 67 144q9 9 1 19l-14 16q-8 9 -19 1q-83 -72 -83 -180q0 -13 13 -13h22zM703 457q0 18 -13 31.5t-32 13.5h-513q-18 0 -31.5 -13.5
t-13.5 -31.5v-500q0 -58 42 -99.5t100 -41.5h320q58 0 99.5 41.5t41.5 99.5v92h36q48 0 85.5 19.5t57 50.5t28.5 69t0 76t-28.5 69t-57 50.5t-85.5 19.5h-36v54zM242 -136q-39 0 -66.5 27.5t-27.5 65.5v497h507v-497q0 -38 -27.5 -65.5t-65.5 -27.5h-320zM703 356h36
q48 0 81.5 -26.5t41 -65t0 -76.5t-41 -64.5t-81.5 -26.5h-36v259z" />
    <glyph glyph-name="z" unicode="z" horiz-adv-x="1084" 
d="M329 420q-139 0 -162 -138l-66 -405q-3 -20 10 -35.5t34 -15.5h794q21 0 34 15.5t10 35.5l-66 405q-23 138 -162 138h-26v65q0 51 -20.5 90.5t-53.5 60t-73 30t-80 0t-73 -30t-53.5 -60t-20.5 -90.5v-65h-26zM403 420v65q0 38 15.5 67.5t40 44.5t54 22.5t59 0t54 -22.5
t40 -44.5t15.5 -67.5v-65h-278zM755 373q52 0 79.5 -24t35.5 -75l65 -401h-786l65 401q8 51 35.5 75t79.5 24h26v-59q-25 -13 -25 -43q0 -20 14.5 -34.5t34.5 -14.5t34.5 14.5t14.5 34.5q0 30 -25 43v59h278v-59q-25 -13 -25 -43q0 -20 14.5 -34.5t34.5 -14.5t34.5 14.5
t14.5 34.5q0 30 -25 43v59h26z" />
  </font>
</defs>
</svg>
