<?xml version="1.0" standalone="no"?>
<!DOCTYPE svg PUBLIC "-//W3C//DTD SVG 1.1//EN" "http://www.w3.org/Graphics/SVG/1.1/DTD/svg11.dtd" >
<svg xmlns="http://www.w3.org/2000/svg" xmlns:xlink="http://www.w3.org/1999/xlink" version="1.1">
<metadata>
Created by FontForge 20170731 at Wed Nov 12 18:12:02 2014
 By Aleksey,,,
copyright missing
</metadata>
<defs>
<font id="PantonIcons-ALight" horiz-adv-x="1027" >
  <font-face 
    font-family="Panton Icons A Light"
    font-weight="400"
    font-stretch="normal"
    units-per-em="1000"
    panose-1="0 0 5 0 0 0 0 0 0 0"
    ascent="750"
    descent="-250"
    x-height="610"
    cap-height="673"
    bbox="93 -250 2004.43 750"
    underline-thickness="50"
    underline-position="-200"
    unicode-range="U+0020-007A"
  />
<missing-glyph horiz-adv-x="500" 
d="M410 -250h-317v1000h317v-1000zM168 683v-33h65v-37h-66v-33h166v33h-66v37h66v33h-165zM167 554v-104h166v34h-66v70h-100zM233 484h-33v36h33v-36zM167 423v-33h66v-37h-66v-33h100v70h66v33h-166zM300 363v-66h-133v-34h166v100h-33zM233 241v-56h34v23h33v-47h-100
v80h-33v-113h166v113h-100zM167 68v-113h166v113h-166zM300 -12h-100v47h100v-47zM167 -68v-33h70l-70 -47v-33h166v33h-102l70 47h32v33h-166z" />
    <glyph glyph-name=".notdef" horiz-adv-x="500" 
d="M410 -250h-317v1000h317v-1000zM168 683v-33h65v-37h-66v-33h166v33h-66v37h66v33h-165zM167 554v-104h166v34h-66v70h-100zM233 484h-33v36h33v-36zM167 423v-33h66v-37h-66v-33h100v70h66v33h-166zM300 363v-66h-133v-34h166v100h-33zM233 241v-56h34v23h33v-47h-100
v80h-33v-113h166v113h-100zM167 68v-113h166v113h-166zM300 -12h-100v47h100v-47zM167 -68v-33h70l-70 -47v-33h166v33h-102l70 47h32v33h-166z" />
    <glyph glyph-name=".null" horiz-adv-x="0" 
 />
    <glyph glyph-name="nonmarkingreturn" horiz-adv-x="333" 
 />
    <glyph glyph-name="space" unicode=" " horiz-adv-x="0" 
 />
    <glyph glyph-name="A" unicode="A" horiz-adv-x="1226" 
d="M987 37q58 0 98.5 41t40.5 99v359q0 58 -40.5 99t-98.5 41h-747q-58 0 -99 -41t-41 -99v-359q0 -58 41 -99t99 -41h364v-193h-238q-6 0 -6 -5v-9q0 -5 6 -5h495q5 0 5 5v9q0 5 -5 5h-238v193h364zM987 657q50 0 85 -35.5t35 -85.5v-359q0 -50 -35 -85.5t-85 -35.5h-747
q-50 0 -85.5 35.5t-35.5 85.5v359q0 50 35.5 85.5t85.5 35.5h747z" />
    <glyph glyph-name="B" unicode="B" horiz-adv-x="1357" 
d="M1120 564q0 50 -36 85.5t-86 35.5h-640q-50 0 -85.5 -35.5t-35.5 -85.5v-443l-106 -136q-48 -62 -23 -115.5t104 -53.5h933q79 0 104 53.5t-23 115.5l-106 137v442zM998 666q43 0 73 -30t30 -72v-436h-845v436q0 42 30 72t72 30h640zM1106 109l105 -136q41 -53 21 -95
t-87 -42h-933q-67 0 -87 42t21 95l106 136h854zM542 -88q-5 0 -5 5v8q0 6 5 6h272q5 0 5 -6v-8q0 -5 -5 -5h-272z" />
    <glyph glyph-name="C" unicode="C" horiz-adv-x="710" 
d="M267 708q-69 0 -118 -49t-49 -118v-583q0 -69 49 -117.5t118 -48.5h176q69 0 118 48.5t49 117.5v583q0 69 -49 118t-118 49h-176zM443 689q61 0 104.5 -43.5t43.5 -104.5v-583q0 -61 -43.5 -104t-104.5 -43h-176q-61 0 -104.5 43t-43.5 104v583q0 61 43.5 104.5
t104.5 43.5h176zM268 572q-5 0 -5 6v8q0 5 5 5h173q5 0 5 -5v-8q0 -6 -5 -6h-173zM355 -11q26 0 44 -18.5t18 -44.5t-18.5 -44t-43.5 -18t-43.5 18t-18.5 44t18 44.5t44 18.5zM355 -30q-18 0 -30.5 -13t-12.5 -31q0 -17 12.5 -30t30.5 -13t30.5 13t12.5 30q0 18 -12.5 31
t-30.5 13z" />
    <glyph glyph-name="D" unicode="D" horiz-adv-x="905" 
d="M258 704q-65 0 -111.5 -46.5t-46.5 -112.5v-590q0 -65 46.5 -112t111.5 -47h389q65 0 111.5 47t46.5 112v590q0 66 -46.5 112.5t-111.5 46.5h-389zM647 685q58 0 98.5 -41t40.5 -99v-590q0 -58 -40.5 -99t-98.5 -41h-389q-58 0 -98.5 41t-40.5 99v590q0 58 40.5 99
t98.5 41h389zM453 -22q-25 0 -43 -17.5t-18 -42.5q0 -26 18 -43.5t43 -17.5t42.5 18t17.5 43t-17.5 42.5t-42.5 17.5zM453 -41q17 0 29 -12t12 -29t-12 -29.5t-29 -12.5t-29.5 12.5t-12.5 29.5t12.5 29t29.5 12z" />
    <glyph glyph-name="E" unicode="E" horiz-adv-x="713" 
d="M107 233q-12 -16 -3.5 -33.5t28.5 -17.5h135l-59 -350q-4 -25 19 -35t38 10l342 460q12 16 3 33t-28 17h-136l59 351q4 25 -19 34.5t-37 -10.5zM464 681q6 8 15 4t7 -14l-62 -373h158q8 0 11 -7t-1 -13l-342 -459q-6 -8 -15.5 -4.5t-7.5 13.5l63 374h-158q-8 0 -11.5 6.5
t1.5 13.5z" />
    <glyph glyph-name="F" unicode="F" horiz-adv-x="905" 
d="M100 203q0 -84 30.5 -152t80 -109.5t112.5 -64t129.5 -22.5t129.5 22.5t112.5 64t80 109.5t30.5 152v399q0 13 -8.5 21.5t-21.5 8.5h-216q-13 0 -21.5 -8.5t-8.5 -21.5v-399q0 -47 -38.5 -66.5t-76.5 0t-38 66.5v399q0 13 -8.5 21.5t-20.5 8.5h-217q-13 0 -21.5 -8.5
t-8.5 -21.5v-399zM119 459v143q0 11 11 11h217q10 0 10 -11v-143h-238zM548 459v143q0 11 11 11h216q11 0 11 -11v-143h-238zM119 440h238v-237q0 -44 30 -69.5t65.5 -25.5t65.5 25.5t30 69.5v237h238v-237q0 -79 -28.5 -143.5t-75.5 -104t-107 -61t-122.5 -21.5
t-122.5 21.5t-107 61t-75.5 104t-28.5 143.5v237z" />
    <glyph glyph-name="G" unicode="G" horiz-adv-x="982" 
d="M491 642q-162 0 -276.5 -114.5t-114.5 -276.5t114.5 -276.5t276.5 -114.5t276.5 114.5t114.5 276.5t-114.5 276.5t-276.5 114.5zM491 623q154 0 263 -109t109 -263q0 -129 -81 -231l-220 175q19 25 19 56q0 37 -26.5 63.5t-63.5 26.5q-13 0 -25 -3l-70 273q45 12 95 12z
M449 331q-9 -5 -16 -10l-222 176q69 78 166 108zM420 307q-19 -24 -19 -56q0 -37 26.5 -63.5t63.5 -26.5q12 0 24 3l71 -273q-46 -12 -95 -12q-154 0 -263 109t-109 263q0 130 80 231zM491 322q29 0 50 -21t21 -50t-21 -50t-50 -21q-30 0 -50.5 21t-20.5 50t20.5 50t50.5 21
zM533 171q10 6 15 11l222 -176q-70 -79 -166 -109z" />
    <glyph glyph-name="H" unicode="H" horiz-adv-x="982" 
d="M491 640q-161 0 -276 -114.5t-115 -276.5t115 -276.5t276 -114.5q162 0 276.5 114.5t114.5 276.5t-114.5 276.5t-276.5 114.5zM491 621q154 0 263 -109t109 -263t-109 -263t-263 -109t-263 109t-109 263t109 263t263 109zM357 373q-12 0 -20.5 -8.5t-8.5 -21.5
q0 -12 8.5 -20.5t20.5 -8.5q13 0 21.5 8.5t8.5 20.5q0 13 -8.5 21.5t-21.5 8.5zM626 373q-13 0 -21.5 -8.5t-8.5 -21.5q0 -12 8.5 -20.5t21.5 -8.5q12 0 20.5 8.5t8.5 20.5q0 13 -8.5 21.5t-20.5 8.5zM694 137q-46 -74 -124 -101t-156 0t-125 101q-3 5 -7 2l-7 -5
q-5 -2 -2 -7q50 -79 134 -108t168.5 0t134.5 108q3 4 -1 7l-7 5q-5 3 -8 -2z" />
    <glyph glyph-name="I" unicode="I" horiz-adv-x="1058" 
d="M296 45q0 -13 8.5 -21.5t20.5 -8.5h418v-191h19v191h196v19h-196v418q0 7 -3 13l185 186l-13 13l-185 -185q-6 3 -14 3h-417v191h-19v-191h-196v-19h196v-418zM315 463h415l-415 -415v415zM328 34l415 415v-415h-415z" />
    <glyph glyph-name="J" unicode="J" horiz-adv-x="989" 
d="M603 521l14 13l-101 101q-9 9 -21.5 9t-20.5 -9l-101 -101l13 -13l99 99v-361h-361l99 99l-13 13l-101 -101q-9 -8 -9 -20.5t9 -21.5l101 -101l13 13l-99 100h361v-362l-99 99l-13 -13l101 -101q8 -8 20.5 -8t21.5 8l101 101l-14 13l-99 -99v362h361l-99 -100l14 -13
l101 101q8 9 8 21.5t-8 20.5l-101 101l-14 -13l99 -99h-361v361z" />
    <glyph glyph-name="K" unicode="K" horiz-adv-x="1177" 
d="M240 559q-58 0 -99 -41t-41 -99v-341q0 -58 41 -99t99 -41h697q58 0 99 41t41 99v341q0 58 -41 99t-99 41h-697zM937 540q47 0 81.5 -32t38.5 -79h-938q4 47 38.5 79t82.5 32h697zM1058 410v-140h-939v140h939zM1058 251v-173q0 -50 -36 -85.5t-85 -35.5h-697
q-50 0 -85.5 35.5t-35.5 85.5v173h939z" />
    <glyph glyph-name="L" unicode="L" horiz-adv-x="1290" 
d="M651 393q-5 -6 -6 -6t-6 6q-62 80 -138 79q-29 -1 -54 -9t-49.5 -26t-36.5 -29.5t-37 -36.5q-24 -26 -40 -39.5t-39 -26t-47 -8t-50 24.5q-17 14 -34.5 2.5t-12.5 -32.5q22 -88 88.5 -150t146.5 -82.5t164.5 3.5t137.5 95q3 5 5 6t3.5 0t5.5 -6q53 -71 137.5 -95
t164.5 -3.5t146.5 82.5t88.5 150q5 21 -13 32.5t-35 -2.5q-25 -20 -48.5 -24.5t-46.5 7.5t-40 26t-41 40q-31 32 -49 48.5t-53.5 34t-73.5 18.5q-76 1 -138 -79zM666 381q56 73 122 72q34 -1 66.5 -17.5t50.5 -32.5t46 -46q27 -27 47.5 -43.5t46.5 -28t53 -6t55 28.5
q6 5 12.5 0.5t4.5 -11.5q-20 -82 -83 -140.5t-137.5 -78t-153.5 2.5t-129 88q-22 31 -45 0q-50 -66 -128.5 -88t-153.5 -2.5t-137.5 78t-83.5 140.5q-1 7 5 11.5t12 -0.5q29 -23 56.5 -28.5t54 6.5t46 28t45.5 43q30 31 46.5 46.5t49.5 32t67 17.5q67 1 123 -72q20 -26 42 0
z" />
    <glyph glyph-name="M" unicode="M" horiz-adv-x="1064" 
d="M939 539q22 22 25 48.5t-10.5 47t-34 34t-47 11t-48.5 -24.5l-190 -190l-448 25q-40 2 -66 -16t-18.5 -42.5t54.5 -38.5l313 -93l-149 -149l-134 28q-35 8 -48.5 -19.5t13.5 -52.5l133 -112l107 -129q23 -28 52 -13.5t21 49.5l-28 133l149 149l94 -317q12 -40 36 -48
t42.5 16.5t16.5 65.5l-24 448zM837 641q17 17 37.5 19.5t36 -8t26 -26.5t8.5 -36t-19 -37l-196 -196l25 -457q2 -42 -19 -58q-21 -17 -36 20q-1 5 -3 10l-103 349l-179 -179l30 -144q5 -22 -9 -29t-30 10l-109 130l-133 112q-17 16 -10 30.5t28 9.5l144 -31l179 179
l-344 102q-44 13 -41 32t40 26q13 3 26 2l456 -25z" />
    <glyph glyph-name="N" unicode="N" horiz-adv-x="868" 
d="M194 645q-11 0 -19 -8t-8 -19v-129h-62q-5 0 -5 -5v-8q0 -6 5 -6h62v-131h-62q-5 0 -5 -5v-9q0 -5 5 -5h62v-132h-62q-5 0 -5 -5v-8q0 -6 5 -6h62v-131h-62q-5 0 -5 -5v-9q0 -5 5 -5h62v-128q0 -11 8 -19.5t19 -8.5h441q55 0 94 39.5t39 94.5v514q0 55 -39 94.5t-94 39.5
h-441zM247 19q5 0 5 5v9q0 5 -5 5h-61v131h61q5 0 5 6v8q0 5 -5 5h-61v132h61q6 0 6 5v9q0 5 -6 5h-61v131h61q6 0 6 6v8q0 5 -6 5h-61v129q0 8 8 8h414v-744h-414q-8 0 -8 9v128h61zM635 626q47 0 80.5 -34t33.5 -81v-514q0 -47 -33.5 -81t-80.5 -34h-8v744h8z" />
    <glyph glyph-name="O" unicode="O" horiz-adv-x="897" 
d="M582 701q-40 0 -68.5 -28.5t-28.5 -68.5t28.5 -68t68.5 -28t68 28t28 68t-28 68.5t-68 28.5zM582 682q32 0 54.5 -23t22.5 -55t-22.5 -54.5t-54.5 -22.5t-55 22.5t-23 54.5t23 55t55 23zM417 542q-25 0 -42.5 -17.5t-17.5 -42.5t17.5 -42.5t42.5 -17.5t42 17.5t17 42.5
t-17 42.5t-42 17.5zM417 523q16 0 28 -12t12 -29t-12 -29t-28 -12q-17 0 -29 12t-12 29t12 29t29 12zM591 362q0 36 17 48t55 12q5 0 5 5v9q0 5 -5 5q-46 0 -68.5 -17.5t-22.5 -61.5v-259l184 -183q16 -16 22 -38.5t-10 -42.5t-57 -20h-524q-42 0 -58 20t-10 42.5t22 38.5
l184 183v259q0 44 -22.5 61.5t-68.5 17.5q-5 0 -5 -5v-9q0 -5 5 -5q38 0 55 -12t17 -48v-252l-179 -177q-21 -20 -27 -51t15.5 -56.5t71.5 -25.5h524q50 0 71 25.5t15 56.5t-27 51l-179 177v252z" />
    <glyph glyph-name="P" unicode="P" horiz-adv-x="968" 
d="M484 606q-159 0 -271.5 -112.5t-112.5 -271.5q0 -94 44 -179q42 -80 119 -135q4 -3 7 1l5 7q4 4 -1 7q-64 47 -101 108l60 35q5 3 2 7l-5 8q-2 3 -7 1l-60 -34q-1 0 -1 2t-1 2q-39 72 -42 161h69q6 0 6 5v8q0 6 -6 6h-69q3 90 44 164l60 -34q5 -2 7 2l5 7q2 4 -2 7
l-60 35q45 74 120 121l35 -61q3 -4 7 -1l8 4q4 3 1 7l-34 60q77 43 165 44v-69q0 -5 5 -5h8q6 0 6 5v69q87 -1 164 -44l-34 -60q-3 -5 2 -7l7 -4q5 -2 7 1l35 61q74 -47 121 -121l-60 -35q-4 -2 -2 -7l4 -7q2 -5 7 -2l60 34q43 -77 44 -164h-69q-5 0 -5 -6v-8q0 -5 5 -5h69
q-1 -86 -42 -161q0 -2 -2 -4l-60 34q-4 3 -7 -1l-4 -8q-3 -5 2 -7l60 -35q-40 -64 -102 -108q-4 -3 -1 -7l5 -7q3 -4 7 -1q77 55 119 135q44 85 44 179q0 159 -112.5 271.5t-271.5 112.5zM514 275q31 -19 31 -53q0 -25 -18 -42.5t-43 -17.5t-42.5 17.5t-17.5 42.5t17.5 43
t42.5 18q4 0 12 -2l63 174q1 6 7 3l8 -3q5 -1 3 -6zM484 264q-17 0 -29 -12.5t-12 -29.5t12 -29t29 -12t29.5 12t12.5 29t-12.5 29.5t-29.5 12.5z" />
    <glyph glyph-name="Q" unicode="Q" horiz-adv-x="788" 
d="M212 483q-52 -41 -82 -101.5t-30 -129.5t30 -129.5t82 -101.5v-185q0 -12 8.5 -20t20.5 -8h306q12 0 20.5 8t8.5 20v185q52 41 82 101.5t30 129.5t-30 129.5t-82 101.5v185q0 12 -8.5 20t-20.5 8h-306q-12 0 -20.5 -8t-8.5 -20v-185zM557 497q-74 49 -163 49t-163 -49
v171q0 9 10 9h306q10 0 10 -9v-171zM394 527q114 0 194.5 -80.5t80.5 -194.5t-80.5 -194.5t-194.5 -80.5t-194.5 80.5t-80.5 194.5t80.5 194.5t194.5 80.5zM553 366q4 3 1 7l-6 7q-3 4 -7 1q-89 -74 -146 -121l-93 84q-4 4 -7 0l-6 -7q-3 -2 0 -7q34 -30 100 -90l6 -5z
M231 7q74 -49 163 -49t163 49v-171q0 -9 -10 -9h-306q-10 0 -10 9v171z" />
    <glyph glyph-name="R" unicode="R" horiz-adv-x="985" 
d="M492 643q-162 0 -277 -115t-115 -278t115 -278t277 -115q163 0 278 115t115 278q0 161 -115 278q-115 115 -278 115zM370 603q61 21 122 21q153 0 262 -107q-85 -105 -219 -158q-72 139 -165 244zM122 302q14 98 75.5 177t153.5 117q92 -100 166 -244q-164 -60 -395 -50z
M767 503q99 -105 99 -253v-21q-145 37 -278 10q-22 57 -45 102q137 56 224 162zM234 -20q-4 4 -6 5q-109 111 -109 265q0 22 1 33q239 -11 405 52q23 -47 45 -101q-210 -51 -336 -254zM864 210q-10 -91 -60 -166.5t-129 -119.5q-24 150 -80 297q126 26 269 -11zM657 -86
q-78 -38 -165 -38q-139 0 -244 91q122 200 328 249q56 -146 81 -302z" />
    <glyph glyph-name="S" unicode="S" horiz-adv-x="1102" 
d="M118 333q-16 -8 -16 -26t15 -26l120 -66v-205q0 -19 16 -27l283 -140q14 -7 27 0l287 144q17 8 17 26v206l118 64q15 9 15 27t-15 26l-117 63l118 65q16 8 16 26t-16 26l-253 138q-15 8 -29 0l-153 -84l-162 88q-15 7 -29 -1l-244 -135q-16 -8 -16 -25.5t16 -26.5
l124 -70zM125 486q-6 4 -6 10t6 9l245 136q4 3 10 0l151 -82l-271 -148zM713 637q6 3 10 0l254 -138q5 -3 5 -9.5t-5 -9.5l-129 -70l-277 149zM828 399l-278 -152l-271 153l272 148zM530 236l-141 -77q-5 -3 -11 0l-251 138q-6 3 -6 9.5t6 9.5l133 73zM848 388l128 -69
q5 -3 5 -9.5t-5 -9.5l-258 -142q-6 -3 -11 0l-138 78zM262 0q-6 3 -6 10v195l113 -62q14 -8 29 0l142 77v-358zM698 142q16 -9 29 0l121 66v-195q0 -6 -6 -9l-283 -142v358z" />
    <glyph glyph-name="T" unicode="T" horiz-adv-x="935" 
d="M484 600q-7 8 -17.5 8t-17.5 -8l-107 -107q-7 -7 -3.5 -16.5t14.5 -10.5q41 -1 69 -31.5t28 -68t-30 -72.5q-23 -23 -53.5 -28t-56 6t-43.5 35t-19 55q-1 10 -10 13.5t-17 -3.5l-113 -113q-8 -7 -8 -18t8 -18l340 -340q8 -7 18 -7t18 7l341 341q7 8 7 18t-7 18l-101 100
q49 5 80.5 42t31 85.5t-37.5 85.5t-85.5 37.5t-85.5 -31t-42 -80.5zM577 481q7 -7 16.5 -3.5t9.5 13.5q2 42 34.5 71t71.5 28.5t75 -31.5q31 -36 31.5 -75t-28.5 -71.5t-71 -34.5q-10 0 -14 -9.5t4 -16.5l105 -106q5 -4 0 -9l-341 -341q-4 -4 -9 0l-340 341q-4 4 0 8
l108 108q4 -47 40.5 -78t80.5 -30t84 35q27 27 33 62t-5.5 65t-38.5 52.5t-62 25.5l101 101q5 5 9 0z" />
    <glyph glyph-name="U" unicode="U" horiz-adv-x="1008" 
d="M820 125q-24 -125 -110.5 -194.5t-196.5 -72.5v472h139q5 0 5 5v9q0 5 -5 5h-139v87q42 4 70.5 34.5t28.5 72.5q0 45 -31.5 76.5t-76.5 31.5t-76.5 -31.5t-31.5 -76.5q0 -42 28.5 -72.5t69.5 -34.5v-87h-138q-5 0 -5 -5v-9q0 -5 5 -5h138v-472q-109 3 -195.5 72.5
t-111.5 194.5q15 -8 43 -24.5t43 -24.5q4 -3 7 2l4 8q3 4 -2 7q-41 23 -86 49q-11 6 -22 3t-18 -13q-8 -13 -55 -86q-3 -6 1 -8l8 -4q4 -4 7 1q29 45 52 83q19 -90 71.5 -154.5t119.5 -94t144 -29.5t144 29.5t119 94t71 154.5l53 -83q3 -5 7 -1l7 4q5 2 2 8q-19 28 -55 86
q-7 10 -18 13t-22 -3q-45 -26 -86 -49q-5 -2 -2 -7l4 -8q3 -5 7 -2q17 9 47 26.5t38 22.5zM504 632q37 0 63 -26t26 -63t-26 -63t-63 -26t-63 26t-26 63t26 63t63 26z" />
    <glyph glyph-name="V" unicode="V" horiz-adv-x="873" 
d="M309 -63q3 -44 29 -74t62 -37t72 0t62 37t29 74h196q8 0 12 7.5t-1 14.5q-99 143 -99 331q0 105 -54.5 169.5t-135.5 79.5q31 23 31 61q0 31 -22.5 53t-53.5 22t-53 -22t-22 -53q0 -38 31 -61q-81 -15 -135.5 -79.5t-54.5 -169.5q0 -189 -100 -331q-4 -7 -0.5 -14.5
t11.5 -7.5h196zM436 656q24 0 40.5 -16.5t16.5 -39.5t-16.5 -40t-40.5 -17q-23 0 -39.5 17t-16.5 40t16.5 39.5t39.5 16.5zM124 -44q97 147 97 334q0 56 18.5 102t49 74t69 43t79 15t79 -15t69 -43t49 -74t18.5 -102q0 -187 97 -334h-625zM544 -63q-3 -46 -36 -72t-71.5 -26
t-71.5 26t-36 72h215z" />
    <glyph glyph-name="W" unicode="W" horiz-adv-x="1065" 
d="M830 234q10 5 14 16.5t-1 21.5l-37 76q-3 4 0 9l38 75q5 11 1.5 22t-14.5 16l-74 40q-3 2 -5 7l-14 83q-1 12 -11 19t-21 5l-84 -11q-5 -2 -8 3l-60 59q-8 8 -20 8t-20 -8l-61 -58q-3 -5 -8 -3l-84 13q-11 2 -21 -5.5t-11 -18.5l-15 -83q-1 -3 -5 -7l-75 -39
q-11 -5 -14.5 -16t1.5 -22l37 -76q2 -4 0 -9l-38 -75q-5 -10 -1.5 -21.5t13.5 -16.5l40 -22l-165 -191q-13 -14 -4.5 -32t27.5 -17l124 3l39 -133q5 -18 24.5 -20t29.5 14l129 226l33 -32q8 -8 20.5 -8t21.5 8l36 34l131 -228q9 -16 28.5 -14t24.5 20l39 133l125 -3
q19 -1 27 17t-4 32l-165 190zM733 514q3 -14 15 -21l75 -39q7 -6 4 -14l-38 -75q-6 -13 0 -25l37 -76q4 -9 -5 -13l-75 -39q-12 -6 -15 -21l-15 -83q-2 -8 -11 -8l-83 13q-14 2 -24 -8l-61 -58q-8 -8 -15 1l-59 58q-11 9 -24 8l-84 -11q-9 -2 -11 8l-14 83q-2 14 -15 21
l-74 39q-8 5 -4 14l38 75q6 13 0 25l-37 76q-4 9 4 13l75 39q13 7 15 21l15 83q2 10 12 8l83 -13q14 -2 24 8l61 58q7 7 14 0l60 -59q10 -10 24 -8l83 11q10 2 12 -8zM330 -151q-3 -5 -10 -4.5t-9 6.5l-43 147l-139 -3q-7 0 -9.5 6.5t1.5 11.5l168 194l18 -9q4 -4 5 -7
l13 -83q5 -27 33 -24l83 11h5q1 0 16 -15zM601 82q13 13 18 12l83 -12q12 -2 21.5 4.5t11.5 18.5l15 83q0 2 2 4q1 2 5.5 4.5t11 5.5t7.5 4l167 -193q4 -5 1.5 -11.5t-9.5 -6.5l-139 3l-43 -147q-1 -6 -8.5 -6.5t-10.5 4.5z" />
    <glyph glyph-name="X" unicode="X" horiz-adv-x="997" 
d="M101 647l177 -306q-79 -85 -79 -200q0 -121 85.5 -206.5t206.5 -85.5t206.5 85.5t85.5 206.5q0 108 -69 188l182 318q3 5 -2 7l-7 4q-5 3 -7 -2l-180 -312q-86 89 -209 89q-13 0 -19 -1l123 215q3 4 -1 7l-8 4q-4 3 -7 -2q-22 -37 -65.5 -112.5t-65.5 -113.5
q-90 -14 -156 -76q-35 59 -99 170t-76 132q-2 4 -7 2l-7 -4q-5 -2 -2 -7zM477 533l-72 123q-1 5 -7 2l-7 -4q-5 -2 -2 -7l76 -132zM491 414q113 0 192.5 -80t79.5 -193t-79.5 -193t-192.5 -80t-193 80t-80 193t80 193t193 80zM509 276q-5 0 -8 -2l-114 -63q-5 -3 -2 -7l5 -7
q3 -6 7 -2l105 58v-272q0 -5 5 -5h9q5 0 5 5v290q0 5 -5 5h-7z" />
    <glyph glyph-name="Y" unicode="Y" horiz-adv-x="923" 
d="M687 501q3 11 -5 18t-18 2q-50 -27 -78 -71.5t-24 -98.5l-1 -4q-1 1 -2 3q-24 49 -20.5 111t23.5 120t50 102q6 8 1 17t-15 9q-85 -4 -158 -36t-122.5 -86t-77 -120.5t-24 -146t39.5 -157.5q-28 14 -56 47q-30 36 -43 75q-3 11 -14.5 11.5t-15.5 -9.5q-41 -99 -18.5 -206
t96.5 -183q50 -51 118.5 -77t138 -26t137.5 24t119 66t80 106.5t24 140.5q-3 40 -22.5 80t-42.5 68t-44.5 64.5t-29 70.5t3.5 86zM667 501q-11 -55 -3 -90.5t30 -72t45 -64t42 -66t22 -77.5q5 -71 -23 -132t-76.5 -100.5t-112.5 -62t-130 -22.5t-130.5 24.5t-111.5 72.5
q-69 71 -91.5 170t13.5 192q14 -40 45 -75q33 -39 69 -56q11 -4 19 4t3 18q-36 74 -41 150t20 140t71.5 116t116 83.5t150.5 35.5q-32 -48 -52 -108t-23 -125t24 -116q10 -19 24.5 -14.5t13.5 26.5q-3 47 20.5 85.5t65.5 63.5z" />
    <glyph glyph-name="Z" unicode="Z" 
d="M513 664q-171 0 -292 -121t-121 -292q0 -172 121 -293t292 -121q172 0 293 121t121 293q0 171 -121 292t-293 121zM437 638q76 15 153 0v-218q-77 35 -153 0v218zM417 410q-38 -25 -63 -63h-223q26 105 103.5 182.5t182.5 104.5v-224zM609 634q106 -27 183.5 -104.5
t103.5 -182.5h-224q-23 38 -63 63v224zM513 417q69 0 118 -48.5t49 -117.5t-49 -118t-118 -49t-117.5 49t-48.5 118t48.5 117.5t117.5 48.5zM126 174q-15 76 0 154h218q-35 -78 0 -154h-218zM682 174q35 76 0 154h218q15 -78 0 -154h-218zM417 -132q-105 26 -182.5 103.5
t-103.5 183.5h223q25 -40 63 -63v-224zM896 155q-26 -106 -103.5 -183.5t-183.5 -103.5v224q40 23 63 63h224zM590 -136q-76 -15 -153 0v218q76 -35 153 0v-218z" />
    <glyph glyph-name="a" unicode="a" horiz-adv-x="882" 
d="M415 -209q9 -13 24.5 -13t24.5 13l257 376q61 88 61 194q0 141 -100 241t-241 100t-241 -100t-100 -241q0 -109 58 -194zM174 177q-55 82 -55 184q0 133 94.5 227.5t227.5 94.5t227.5 -94.5t94.5 -227.5q0 -99 -58 -184l-257 -375q-3 -4 -8.5 -4t-8.5 4zM441 519
q-65 0 -111.5 -46.5t-46.5 -111.5t46.5 -111.5t111.5 -46.5t111.5 46.5t46.5 111.5t-46.5 111.5t-111.5 46.5zM441 500q57 0 98 -40.5t41 -98.5t-41 -98.5t-98 -40.5q-58 0 -98.5 40.5t-40.5 98.5t40.5 98.5t98.5 40.5z" />
    <glyph glyph-name="b" unicode="b" horiz-adv-x="1249" 
d="M972 -72q16 -14 34 -6.5t18 27.5v142q54 10 89.5 52.5t35.5 97.5v282q0 63 -44.5 108t-108.5 45h-461q-63 0 -108 -45t-45 -108v-66h-142q-58 0 -99 -41t-41 -99v-255q0 -50 32 -88.5t81 -48.5v-120q0 -18 17 -25.5t31 5.5l149 137h249q57 0 98 41t41 99v25zM996 657
q55 0 94.5 -39.5t39.5 -94.5v-282q0 -50 -33.5 -88t-83.5 -45l-8 -1v-158q0 -7 -6 -10t-13 2l-182 166h-269q-55 0 -94.5 39.5t-39.5 94.5v282q0 55 39.5 94.5t94.5 39.5h461zM382 241q0 -63 45 -108t108 -45h244v-26q0 -50 -35 -85.5t-85 -35.5h-256l-155 -142
q-4 -4 -10 -2t-6 8v135q-49 6 -80.5 39.5t-31.5 82.5v255q0 50 35 85.5t85 35.5h142v-197z" />
    <glyph glyph-name="c" unicode="c" horiz-adv-x="895" 
d="M590 668q-10 8 -21 8h-316q-63 0 -108 -44.5t-45 -107.5v-548q0 -63 45 -108t108 -45h390q63 0 107.5 45t44.5 108v474q0 12 -9 21zM776 -24q0 -55 -39 -94.5t-94 -39.5h-390q-55 0 -94 39.5t-39 94.5v548q0 55 39 94t94 39h310v-182q0 -13 9 -21.5t22 -8.5h182v-469z
M767 464h-173q-12 0 -12 11v173zM274 299q-5 0 -5 6v9q0 5 5 5h347q6 0 6 -5v-9q0 -6 -6 -6h-347zM274 143q-5 0 -5 6v9q0 6 5 6h347q6 0 6 -6v-9q0 -6 -6 -6h-347zM274 -12q-5 0 -5 5v9q0 6 5 6h347q6 0 6 -6v-9q0 -5 -6 -5h-347z" />
    <glyph glyph-name="d" unicode="d" horiz-adv-x="895" 
d="M589 668q-8 8 -21 8h-315q-63 0 -108 -44.5t-45 -107.5v-548q0 -63 45 -108t108 -45h389q63 0 108 45t45 108v474q0 12 -9 21zM776 -24q0 -56 -39 -95t-95 -39h-389q-55 0 -94.5 39t-39.5 95v548q0 55 39.5 94t94.5 39h309v-183q0 -13 9 -21.5t21 -8.5h184v-468zM767 463
h-175q-11 0 -11 11v175z" />
    <glyph glyph-name="e" unicode="e" horiz-adv-x="1049" 
d="M446 640q-35 0 -57 -7t-37 -26.5t-22 -36.5t-19 -55h-71q-58 0 -99 -41.5t-41 -99.5v-361q0 -58 41 -99.5t99 -41.5h568q58 0 99.5 41.5t41.5 99.5v361q0 58 -41.5 99.5t-99.5 41.5h-70q-11 32 -15.5 44t-15.5 32.5t-23 28t-32.5 14t-48.5 6.5h-157zM603 621
q15 0 27.5 -1.5t22.5 -6t17 -8t13.5 -12.5t10.5 -14t8.5 -17.5t7 -19t7.5 -23t7 -23.5h84q50 0 86 -36t36 -86v-361q0 -50 -36 -86t-86 -36h-568q-50 0 -85.5 36t-35.5 86v361q0 50 35.5 86t85.5 36h84q2 7 7 22.5t7 21t6.5 18t7.5 17l9 13.5t11 12t13 8.5t16.5 7.5t20 3.5
t24.5 1.5h157zM524 415q88 0 149.5 -62t61.5 -149q0 -88 -61.5 -149.5t-149.5 -61.5q-87 0 -149 61.5t-62 149.5q0 87 62 149t149 62zM524 396q-79 0 -135 -56t-56 -136t56 -136t135 -56q80 0 136 56t56 136t-56 136t-136 56z" />
    <glyph glyph-name="f" unicode="f" horiz-adv-x="1039" 
d="M267 643q-69 0 -118 -49t-49 -118v-308q0 -61 39.5 -107t98.5 -57v-156q0 -21 19 -29.5t35 5.5l190 177h290q69 0 118 49t49 118v308q0 69 -49 118t-118 49h-505zM772 624q61 0 104.5 -43.5t43.5 -104.5v-308q0 -61 -43.5 -104.5t-104.5 -43.5h-298l-195 -182
q-6 -6 -14 -2.5t-8 12.5v172l-9 1q-55 7 -92 49t-37 98v308q0 61 43.5 104.5t104.5 43.5h505z" />
    <glyph glyph-name="g" unicode="g" horiz-adv-x="1015" 
d="M262 620q-67 0 -114.5 -48t-47.5 -115v-299q0 -59 38 -104t95 -56v-151q0 -21 19 -29t34 6l184 171h282q68 0 115.5 47.5t47.5 115.5v299q0 67 -47.5 115t-115.5 48h-490zM752 600q59 0 101.5 -42t42.5 -101v-299q0 -59 -42.5 -101.5t-101.5 -42.5h-289l-190 -176
q-6 -6 -13.5 -2.5t-7.5 11.5v167l-8 2q-53 7 -89 47.5t-36 94.5v299q0 59 42 101t101 42h490zM720 427q5 0 5 6v9q0 6 -5 6h-425q-6 0 -6 -6v-9q0 -6 6 -6h425zM720 281q5 0 5 5v10q0 5 -5 5h-425q-6 0 -6 -5v-10q0 -5 6 -5h425zM558 134q6 0 6 6v9q0 6 -6 6h-263
q-6 0 -6 -6v-9q0 -6 6 -6h263z" />
    <glyph glyph-name="h" unicode="h" horiz-adv-x="932" 
d="M561 452q4 4 0 8l-5 6q-4 4 -8 0l-325 -325q-20 -20 -27 -45t-1 -47.5t19.5 -43.5t34.5 -34t43 -19.5t47 1t45 27.5l401 400q41 41 46.5 92.5t-21.5 91t-66.5 66.5t-91 21.5t-92.5 -46.5l-403 -403q-29 -29 -43.5 -63t-13.5 -66.5t12 -65.5t32.5 -59t47.5 -47.5t59 -32.5
t65.5 -12t66.5 13.5t63 43.5l326 326q4 4 0 8l-6 6q-4 4 -8 0q-162 -164 -326 -326q-33 -34 -74 -45.5t-77.5 -2t-70.5 31t-55.5 56t-31 71t2 77t45.5 74.5l402 402q26 26 58 36t60 3t54 -23t42 -42t23 -54t-3 -60t-36 -58l-400 -400q-17 -17 -37.5 -22.5t-39 -0.5t-36 16.5
t-28.5 29t-16.5 36t0.5 39t22 37.5z" />
    <glyph glyph-name="i" unicode="i" horiz-adv-x="1028" 
d="M127 41q-27 -27 -27.5 -65t22 -69.5t53.5 -54t69.5 -21.5t67.5 30l302 302q132 -25 224 45q91 69 90 197q0 10 -8.5 14.5t-17.5 -0.5l-165 -93q-33 30 -62.5 81t-36.5 94l168 102q8 5 8 14t-8 14q-62 36 -137 34.5t-135 -41.5q-65 -43 -93 -117.5t-7 -158.5zM455 343
q-22 78 0.5 149.5t88.5 115.5q54 36 121 39t128 -30l-166 -101q-10 -5 -8 -17q7 -47 39 -102t68 -87q8 -8 19 -2l164 93q-2 -119 -84 -179q-86 -65 -217 -38l-310 -310q-24 -24 -56 -24t-58 19t-46 46.5t-19.5 58.5t21.5 54zM233 -19q-7 0 -12 -5t-5 -12t5 -12t12 -5
q18 0 18 17q0 7 -5.5 12t-12.5 5z" />
    <glyph glyph-name="j" unicode="j" 
d="M646 115q-93 -88 -223 -88q-134 0 -228.5 95t-94.5 229t94.5 229t228.5 95t229 -95t95 -229q0 -129 -88 -222l266 -266q4 -4 0 -8l-6 -6q-4 -4 -8 0zM423 656q-126 0 -215 -89.5t-89 -215.5q0 -127 89 -216t215 -89q127 0 216 89t89 216q0 126 -89 215.5t-216 89.5z" />
    <glyph glyph-name="k" unicode="k" 
d="M646 115q-93 -88 -222 -88q-134 0 -229 95t-95 229t95 229t229 95t229 -95t95 -229q0 -128 -89 -222l266 -266q4 -4 0 -8l-5 -6q-4 -4 -8 0zM424 656q-127 0 -216 -89.5t-89 -215.5q0 -127 89 -216t216 -89q126 0 215 89t89 216q0 126 -89 215.5t-215 89.5zM434 341h134
q6 0 6 5v9q0 5 -6 5h-134v135q0 5 -6 5h-8q-6 0 -6 -5v-135h-134q-6 0 -6 -5v-9q0 -5 6 -5h134v-135q0 -5 6 -5h8q6 0 6 5v135z" />
    <glyph glyph-name="l" unicode="l" 
d="M646 115q-93 -88 -222 -88q-134 0 -229 95t-95 229t95 229t229 95t229 -95t95 -229q0 -128 -89 -222l266 -266q4 -4 0 -8l-5 -6q-4 -4 -8 0zM424 656q-127 0 -216 -89.5t-89 -215.5q0 -127 89 -216t216 -89q126 0 215 89t89 216q0 126 -89 215.5t-215 89.5zM280 341
q-6 0 -6 5v9q0 6 6 6h287q6 0 6 -6v-9q0 -5 -6 -5h-287z" />
    <glyph glyph-name="m" unicode="m" horiz-adv-x="1053" 
d="M385 303q0 12 -8.5 20.5t-20.5 8.5h-226q-12 0 -21 -8.5t-9 -20.5v-443q0 -12 9 -20.5t21 -8.5h226q12 0 20.5 8.5t8.5 20.5v19q35 -2 110.5 -27.5t118.5 -25.5h213q28 0 47 22.5t18.5 49t-18.5 48.5q40 8 49.5 51t-18.5 72q45 16 47.5 70.5t-39.5 73.5q25 19 28.5 53.5
t-16.5 62.5t-56 28h-187q17 40 28 96t7 117t-33 89q-25 25 -53 17t-38 -45q-22 -88 -46 -145.5t-69 -107.5l-93 -102v27zM385 248l107 118q47 51 71.5 109.5t48.5 151.5q7 27 25.5 31t34.5 -15q24 -26 26.5 -84t-9 -110.5t-26.5 -87.5q-4 -9 1.5 -16t14.5 -7h190
q28 0 42.5 -22.5t10.5 -50t-24 -39.5q-8 -5 -6.5 -15.5t10.5 -13.5q20 -6 28 -30.5t-1 -49t-33 -31.5q-9 -2 -12 -11t4 -16q16 -14 18.5 -36t-9 -40t-33.5 -19q-9 -1 -12 -11.5t5 -16.5q26 -19 14.5 -54.5t-44.5 -35.5h-213q-42 0 -117 25t-112 27v350zM356 313q10 0 10 -10
v-443q0 -10 -10 -10h-226q-11 0 -11 10v443q0 10 11 10h226z" />
    <glyph glyph-name="n" unicode="n" horiz-adv-x="1136" 
d="M183 6q-54 -26 -75 -74t5.5 -87t95.5 -39h718q69 0 95.5 39t6 87t-74.5 74l-253 121q84 54 94 147l21 181q8 72 -27.5 125.5t-93.5 78t-127 24.5t-127 -24.5t-93 -78t-27 -125.5l20 -181q11 -92 94 -147zM445 111q27 13 2 31q-40 28 -60.5 58t-26.5 76l-20 181
q-11 98 58.5 152.5t169.5 54.5t170 -54.5t59 -152.5l-21 -181q-9 -80 -83 -132q-12 -8 -13.5 -17t12.5 -16l253 -122q33 -16 52.5 -44t20.5 -54.5t-22.5 -46t-68.5 -19.5h-718q-44 0 -67.5 19.5t-23 46t20 54.5t52.5 44z" />
    <glyph glyph-name="o" unicode="o" horiz-adv-x="1178" 
d="M756 71l-70 41q-24 15 1 32q43 31 62.5 58.5t25.5 74.5l20 181q11 98 -58.5 152.5t-169.5 54.5t-170 -54.5t-59 -152.5l21 -181q5 -45 25 -74t60 -56q29 -22 1 -35l-254 -122q-33 -16 -52.5 -44t-20 -55t23 -46.5t68.5 -19.5h536q5 0 5 -5v-8q0 -6 -5 -6h-536
q-52 0 -80.5 24t-29.5 56.5t21 67t62 53.5l254 122q-46 32 -68.5 63t-28.5 83l-21 181q-8 72 27.5 125.5t93.5 78t127 24.5t127 -24.5t93 -78t27 -125.5l-20 -181q-6 -53 -27.5 -82t-70.5 -64l69 -41q5 -3 2 -7l-4 -8q-3 -5 -7 -2zM948 -83q13 -13 36 -36.5t42.5 -42.5
t36.5 -36q3 -4 7 0l6 6q4 4 0 8q-76 76 -115 114l115 115q4 3 0 7l-6 6q-4 4 -7 0l-115 -114q-76 76 -115 114q-3 4 -7 0l-6 -6q-4 -3 0 -7l115 -115q-39 -38 -115 -114q-4 -4 0 -8l6 -6q4 -4 7 0q17 17 36.5 36t42.5 42.5t36 36.5z" />
    <glyph glyph-name="p" unicode="p" horiz-adv-x="1147" 
d="M791 50q-29 15 -105 62q-25 14 0 32q43 31 62.5 58.5t25.5 74.5l21 181q7 66 -26 114.5t-86.5 70.5t-116.5 22q-100 0 -169.5 -54.5t-58.5 -152.5l20 -181q5 -45 25.5 -74t60.5 -56q28 -21 1 -35l-254 -122q-33 -16 -52.5 -44t-20.5 -55t22.5 -46.5t68.5 -19.5h524
q6 0 6 -5v-8q0 -6 -6 -6h-524q-68 0 -95 39t-6.5 87.5t74.5 74.5l254 122q-46 32 -68.5 63t-28.5 83l-20 181q-9 72 26.5 125.5t93.5 78t127 24.5t127 -24.5t93.5 -78t27.5 -125.5l-21 -181q-6 -53 -27.5 -82t-70.5 -64l106 -63q4 -3 1 -7l-4 -7q-3 -5 -7 -2zM869 -179
q-49 73 -90 133q-3 4 -7 1l-7 -5q-4 -3 -1 -7l89 -132q9 -14 25 -13.5t23 14.5l145 275q2 4 -2 7l-8 4q-4 3 -7 -2q-70 -135 -145 -275q-2 -4 -7 -4t-8 4z" />
    <glyph glyph-name="q" unicode="q" horiz-adv-x="1191" 
d="M799 45q-14 8 -63.5 37.5t-50.5 29.5q-23 15 1 31q43 31 62.5 58.5t25.5 75.5l20 181q11 98 -58.5 152.5t-169.5 54.5q-63 0 -116.5 -22t-86.5 -70.5t-26 -114.5l21 -181q5 -45 25.5 -74.5t60.5 -56.5q30 -21 0 -35l-254 -122q-33 -16 -52.5 -44t-20 -54.5t23 -46
t68.5 -19.5h559q5 0 5 -5v-9q0 -5 -5 -5h-559q-69 0 -95.5 39t-6 87t74.5 74l254 122q-46 32 -68.5 64t-28.5 83l-20 181q-9 72 26.5 125.5t93.5 78t127 24.5t127 -24.5t93.5 -78t26.5 -125.5l-20 -181q-6 -53 -27.5 -82t-70.5 -65l113 -67q5 -3 2 -7l-4 -7q-2 -5 -7 -2z
M930 -77v-137q0 -5 5 -5h9q5 0 5 5v137h137q5 0 5 5v8q0 6 -5 6h-137v136q0 5 -5 5h-9q-5 0 -5 -5v-136h-137q-5 0 -5 -6v-8q0 -5 5 -5h137z" />
    <glyph glyph-name="r" unicode="r" horiz-adv-x="1168" 
d="M957 -195q69 0 96.5 40t6.5 89.5t-77 75.5l-228 97q113 11 204 67q13 7 15 20t-7 25q-35 45 -64.5 104.5t-46.5 109.5t-41 101.5t-50 86.5t-72 57.5t-109 22.5q-75 0 -125 -30t-79.5 -83.5t-51 -111.5t-54.5 -131.5t-74 -125.5q-9 -12 -7 -25t15 -20q91 -56 204 -67
l-228 -97q-40 -19 -62.5 -53.5t-22.5 -68t29 -58.5t83 -25h746zM211 -175q-47 0 -71 21t-23 48.5t21.5 56t53.5 42.5l233 99q13 4 11 18t-17 15q-111 9 -201 65q-11 6 -3 17q35 45 65 104.5t46.5 108.5t40 99.5t48 85t67.5 56t102 21.5q70 0 116.5 -29t74.5 -81.5t49 -109.5
t54 -129.5t74 -125.5q8 -11 -3 -17q-89 -56 -201 -65q-15 -1 -17 -15t11 -18l233 -99q32 -14 52.5 -42.5t22 -56t-22 -48.5t-70.5 -21h-746z" />
    <glyph glyph-name="s" unicode="s" horiz-adv-x="1591" 
d="M184 9q-55 -26 -76 -75t6 -88.5t96 -39.5h727q69 0 96.5 39.5t6.5 88.5t-76 75l-256 123q85 54 95 148l21 184q8 73 -27.5 127t-94 79t-128.5 25q-110 0 -186.5 -61.5t-64.5 -169.5l21 -184q11 -93 95 -149zM454 117q10 5 10 13t-9 14q-45 31 -65.5 60t-26.5 79l-21 183
q-11 99 59.5 154t172.5 55q101 0 171.5 -55t59.5 -154l-21 -183q-6 -49 -27.5 -80.5t-62.5 -57.5q-9 -6 -9 -14.5t10 -13.5l261 -125q45 -22 64.5 -62t-2 -72.5t-81.5 -32.5h-727q-60 0 -81 32.5t-1.5 72.5t64.5 62zM1096 -32h316q49 0 69 28t5 63t-54 54l-172 82
q56 39 63 102l14 126q8 76 -45 119.5t-130 43.5q-78 0 -131 -43.5t-45 -119.5l15 -126q7 -62 62 -102l-153 -75q-5 -2 -2 -7l4 -7q1 -6 7 -3q30 14 92 45t69 34q8 5 9 11t-6 11q-32 22 -45.5 41t-17.5 54l-15 127q-8 67 40 104t117 37q68 0 116 -37t40 -104l-14 -127
q-7 -61 -57 -90q-10 -7 -10 -15.5t12 -13.5l175 -84q22 -11 35 -29.5t13.5 -36t-15 -30.5t-45.5 -13h-316q-6 0 -6 -5v-9q0 -5 6 -5z" />
    <glyph glyph-name="t" unicode="t" horiz-adv-x="2103" 
d="M696 9q-55 -26 -76 -75t6 -88.5t96 -39.5h727q69 0 96.5 39.5t6.5 88.5t-76 75l-256 123q85 54 95 148l21 184q8 73 -27.5 127t-94 79t-128.5 25q-110 0 -186.5 -61.5t-64.5 -169.5l21 -184q11 -93 95 -149zM966 117q10 5 10 13t-10 14q-44 31 -64.5 60.5t-26.5 78.5
l-21 183q-11 99 59.5 154t172.5 55q101 0 171.5 -55t59.5 -154l-21 -183q-6 -49 -27.5 -80.5t-62.5 -57.5q-9 -6 -9.5 -14t10.5 -14l261 -125q45 -22 64.5 -62t-2 -72.5t-81.5 -32.5h-727q-60 0 -81 32.5t-1.5 72.5t64.5 62zM1608 -32h316q49 0 69 28t5 63t-54 54l-172 82
q56 41 63 102l14 126q8 76 -45 119.5t-130 43.5q-78 0 -131 -43.5t-45 -119.5l15 -126q7 -62 62 -102l-153 -75q-5 -2 -2 -7l4 -7q1 -6 7 -3q7 3 69 34t92 45q8 5 9 11t-6 11q-32 22 -45.5 41t-17.5 54l-15 127q-8 67 40 104t117 37q68 0 116 -37t40 -104l-14 -127
q-7 -61 -57 -90q-11 -7 -10.5 -15.5t12.5 -13.5l175 -84q22 -11 35 -29.5t13.5 -36t-15 -30.5t-45.5 -13h-316q-6 0 -6 -5v-9q0 -5 6 -5zM563 174q72 9 129 45q23 14 6 35q-33 42 -60.5 108t-43.5 110.5t-56 78.5t-104 34t-104 -34t-56 -78.5t-43.5 -110.5t-60.5 -108
q-17 -21 6 -35q57 -36 132 -44l-147 -62q-29 -12 -45.5 -36.5t-16.5 -49t21 -42.5t59 -18h386q5 0 5 5v9q0 5 -5 5h-386q-31 0 -46.5 13.5t-14 32t15 37t35.5 27.5l157 66q10 5 8 17t-13 13q-75 6 -135 43q-4 4 -1 7q33 43 60.5 107.5t43 108t52 76t93.5 32.5t93.5 -32.5
t52 -76t43 -108t61.5 -107.5q2 -4 -2 -7q-60 -37 -134 -43q-11 -1 -13.5 -13t7.5 -17l167 -72q4 -3 7 3l3 8q3 5 -3 6q-51 23 -153 67z" />
    <glyph glyph-name="u" unicode="u" horiz-adv-x="2026" 
d="M618 9q-54 -26 -75 -75t6 -88.5t96 -39.5h727q52 0 81 24t30 57t-21 67.5t-63 54.5l-256 123q83 53 95 148l21 184q8 73 -27.5 127t-94 79t-128.5 25q-110 0 -186.5 -61.5t-64.5 -169.5l21 -184q11 -93 95 -149zM889 117q10 5 9.5 13t-9.5 14q-44 31 -64.5 60t-26.5 79
l-21 183q-11 99 59.5 154t172.5 55q101 0 171.5 -55t59.5 -154l-21 -183q-6 -49 -27.5 -80.5t-62.5 -57.5q-9 -6 -9.5 -14.5t9.5 -13.5l261 -125q34 -16 53.5 -44.5t20.5 -55.5t-23 -47t-69 -20h-727q-45 0 -69 20t-23 47t20.5 55.5t53.5 44.5zM496 -32q5 0 5 5v9q0 5 -5 5
h-317q-40 0 -53.5 21t-0.5 47.5t43 40.5l175 84q11 5 11.5 13.5t-9.5 15.5q-50 29 -57 90l-15 127q-8 67 40 104t117 37q68 0 116 -37t40 -104l-14 -127q-4 -35 -18 -54t-46 -41q-7 -5 -6 -11t9 -11q25 -12 81 -39.5t81 -39.5q4 -2 7 3l4 7q1 6 -3 7l-153 75q56 41 63 102
l14 126q9 76 -44 119.5t-131 43.5t-131 -43.5t-45 -119.5l15 -126q7 -62 62 -102l-171 -82q-39 -19 -54 -54t4.5 -63t68.5 -28h317zM1530 -32h317q49 0 69 28t5 63t-54 54l-172 82q56 41 63 102l14 126q8 76 -45 119.5t-130 43.5q-78 0 -131 -43.5t-45 -119.5l14 -126
q7 -61 63 -102l-153 -75q-5 -1 -2 -7l3 -7q3 -6 7 -3q25 12 81 39.5t81 39.5q8 5 9 11t-6 11q-32 22 -46 41t-18 54l-14 127q-8 67 40 104t117 37q68 0 116 -37t40 -104l-14 -127q-8 -62 -57 -90q-11 -7 -10.5 -15.5t12.5 -13.5l174 -84q30 -14 43.5 -40.5t-0.5 -47.5
t-54 -21h-317q-5 0 -5 -5v-9q0 -5 5 -5z" />
    <glyph glyph-name="v" unicode="v" horiz-adv-x="1095" 
d="M558 79q84 3 150.5 50t94.5 126q132 85 176 194q15 41 15.5 77.5t-25 61.5t-73.5 25h-75v57q0 12 -8.5 21t-20.5 9h-487q-12 0 -20.5 -9t-8.5 -21v-57h-76q-49 0 -74.5 -25t-25 -61.5t15.5 -77.5q21 -51 67 -102t111 -93q29 -79 95 -125.5t150 -49.5v-180h-110
q-5 0 -5 -6v-8q0 -5 5 -5h239q5 0 5 5v8q0 6 -5 6h-110v180zM792 680q10 0 10 -10v-301q0 -117 -70 -194t-184 -77t-183.5 77t-69.5 194v301q0 10 10 10h487zM286 282q-113 78 -152 174q-13 34 -15 65t19 52t62 21h76v-225q0 -50 10 -87zM896 594q41 0 61.5 -21t18.5 -52
t-14 -65q-41 -96 -151 -173q10 37 10 86v225h75zM300 -195h496q6 0 6 5v9q0 5 -6 5h-496q-5 0 -5 -5v-9q0 -5 5 -5z" />
    <glyph glyph-name="w" unicode="w" horiz-adv-x="772" 
d="M304 616q5 -2 5 -9v-102h-180q-12 0 -21 -8.5t-8 -21.5q3 -100 30 -215.5t55 -226.5t30 -198q0 -12 9 -20.5t21 -8.5h283q12 0 20.5 8.5t8.5 20.5q2 87 30 198t55.5 226.5t29.5 215.5q1 13 -8 21.5t-21 8.5h-315v102q0 17 -15 26l-183 104q-6 3 -8 -2l-4 -7q-3 -4 2 -7z
M143 282q-23 108 -24 193q0 11 10 11h180v-225q-87 -21 -166 21zM643 486q5 0 8 -3.5t2 -7.5q-1 -76 -21 -180q-47 24 -95.5 26t-75.5 -6t-77 -28q-44 -16 -56 -20v219h315zM628 276q-10 -44 -34.5 -137t-39 -165t-16.5 -139q0 -10 -10 -10h-283q-11 0 -11 10
q-2 65 -14.5 132t-37.5 161.5t-33 129.5q45 -21 92 -22.5t73.5 6.5t76.5 27q36 14 55.5 20.5t52 12t64 -1t65.5 -24.5z" />
    <glyph glyph-name="x" unicode="x" horiz-adv-x="762" 
d="M662 423q0 67 -24 121t-63.5 87.5t-90 51.5t-103.5 18t-103.5 -18t-90 -51.5t-63.5 -87.5t-24 -121v-346q0 -67 24 -121t63.5 -87.5t90 -51.5t103.5 -18t103.5 18t90 51.5t63.5 87.5t24 121v346zM643 77q0 -82 -39 -143t-97 -88t-126 -27t-126 27t-97 88t-39 143v346
q0 62 22.5 112.5t59.5 81.5t84 48t96 17t96 -17t84 -48t59.5 -81.5t22.5 -112.5v-346zM372 357q0 -6 5 -6h8q6 0 6 6v181q0 5 -6 5h-8q-5 0 -5 -5v-181z" />
    <glyph glyph-name="y" unicode="y" horiz-adv-x="1045" 
d="M422 378q-12 31 -12 56.5t8 45.5t26 50q33 60 29 97t-45 93q-3 4 1 8l7 5q4 3 7 -2q46 -61 50 -102.5t-33 -108.5q-16 -28 -23 -45t-7.5 -40t9.5 -50q3 -4 -3 -7l-8 -3q-4 -1 -6 3zM566 378q-12 31 -12 56.5t8 45.5t26 50q33 60 29.5 97.5t-45.5 92.5q-3 4 1 8l7 5
q4 3 7 -2q46 -61 50 -102.5t-33 -108.5q-24 -41 -29 -64.5t9 -70.5q1 -4 -3 -7l-8 -3q-6 -1 -7 3zM262 333q-12 0 -21 -8.5t-9 -20.5v-124q0 -64 19 -117t51 -88.5t74.5 -58t88 -29.5t92.5 0.5t88 29t74.5 59t51.5 87.5h67q40 0 68 21.5t34.5 52.5t0 62t-34.5 52.5t-68 21.5
h-48v31q0 12 -9 20.5t-21 8.5h-498zM760 314q10 0 10 -10v-124q0 -67 -22.5 -121t-59 -87.5t-83 -51.5t-95 -18t-95 18t-83 51.5t-59 87.5t-22.5 121v124q0 10 11 10h498zM838 254q41 0 65 -27t24 -59t-24 -59t-65 -27h-61q13 47 13 98v74h48zM105 -205q-5 0 -5 6v8q0 6 5 6
h812q5 0 5 -6v-8q0 -6 -5 -6h-812z" />
    <glyph glyph-name="z" unicode="z" horiz-adv-x="994" 
d="M240 446q-59 -4 -99.5 -48t-40.5 -103v-233q0 -63 44 -107.5t107 -44.5h615q11 0 19.5 8.5t8.5 19.5v534q0 42 -59 54l-449 84q-57 11 -101.5 -26.5t-44.5 -95.5v-42zM259 488q0 49 37.5 80.5t86.5 22.5l448 -84q30 -6 40.5 -21t-2.5 -27.5t-40 -12.5h-570v42zM875 -62
q0 -9 -9 -9h-615q-55 0 -93.5 39t-38.5 94v233q0 55 38.5 93.5t93.5 38.5h578q28 0 46 13v-502zM242 220q22 0 37.5 -15.5t15.5 -37.5t-15.5 -37.5t-37.5 -15.5t-37.5 15.5t-15.5 37.5t15.5 37.5t37.5 15.5zM242 203q-15 0 -25.5 -10.5t-10.5 -25.5t10.5 -25.5t25.5 -10.5
t25.5 10.5t10.5 25.5t-10.5 25.5t-25.5 10.5z" />
  </font>
</defs>
</svg>
